<?xml version="1.0" encoding="UTF-8" standalone="no"?>
<!-- Created with Inkscape (http://www.inkscape.org/) -->

<svg
   xmlns:dc="http://purl.org/dc/elements/1.1/"
   xmlns:cc="http://creativecommons.org/ns#"
   xmlns:rdf="http://www.w3.org/1999/02/22-rdf-syntax-ns#"
   xmlns:svg="http://www.w3.org/2000/svg"
   xmlns="http://www.w3.org/2000/svg"
   xmlns:sodipodi="http://sodipodi.sourceforge.net/DTD/sodipodi-0.dtd"
   xmlns:inkscape="http://www.inkscape.org/namespaces/inkscape"
   width="400"
   height="200"
   viewBox="0 0 105.83333 52.916668"
   version="1.1"
   id="svg8"
   inkscape:version="0.92.2 (5c3e80d, 2017-08-06)"
   sodipodi:docname="prutok_anomalie.svg"
   inkscape:export-filename="D:\Users_D\Pavel II_D\Documents\Řečkovice\MAGISTERSKÉ\1. semestr\Mapová sémiotika a toponomastika\cvičení\2_znaky\prutok_anomalie.png"
   inkscape:export-xdpi="299"
   inkscape:export-ydpi="299">
  <defs
     id="defs2" />
  <sodipodi:namedview
     id="base"
     pagecolor="#ffffff"
     bordercolor="#666666"
     borderopacity="1.0"
     inkscape:pageopacity="0.0"
     inkscape:pageshadow="2"
     inkscape:zoom="0.175"
     inkscape:cx="462.13383"
     inkscape:cy="-875.72185"
     inkscape:document-units="mm"
     inkscape:current-layer="layer1"
     showgrid="false"
     units="px"
     showguides="false"
     inkscape:guide-bbox="true"
     inkscape:window-width="1920"
     inkscape:window-height="1013"
     inkscape:window-x="-9"
     inkscape:window-y="-9"
     inkscape:window-maximized="1">
    <sodipodi:guide
       position="26.458333,30.869631"
       orientation="1,0"
       id="guide827"
       inkscape:locked="false"
       inkscape:label=""
       inkscape:color="rgb(0,0,255)" />
    <sodipodi:guide
       position="52.916666,26.994223"
       orientation="1,0"
       id="guide831"
       inkscape:locked="false"
       inkscape:label=""
       inkscape:color="rgb(0,0,255)" />
    <sodipodi:guide
       position="79.375,29.934188"
       orientation="1,0"
       id="guide833"
       inkscape:locked="false"
       inkscape:label=""
       inkscape:color="rgb(0,0,255)" />
    <sodipodi:guide
       position="1.3363476,13.229167"
       orientation="0,1"
       id="guide854"
       inkscape:locked="false"
       inkscape:label=""
       inkscape:color="rgb(0,0,255)" />
    <sodipodi:guide
       position="3.0238094,39.6875"
       orientation="0,1"
       id="guide898"
       inkscape:locked="false"
       inkscape:label=""
       inkscape:color="rgb(0,0,255)" />
    <sodipodi:guide
       position="26.458333,26.059"
       orientation="0,1"
       id="guide995"
       inkscape:locked="false"
       inkscape:label=""
       inkscape:color="rgb(0,0,255)" />
  </sodipodi:namedview>
  <metadata
     id="metadata5">
    <rdf:RDF>
      <cc:Work
         rdf:about="">
        <dc:format>image/svg+xml</dc:format>
        <dc:type
           rdf:resource="http://purl.org/dc/dcmitype/StillImage" />
        <dc:title />
      </cc:Work>
    </rdf:RDF>
  </metadata>
  <g
     inkscape:label="Vrstva 1"
     inkscape:groupmode="layer"
     id="layer1"
     transform="translate(0,-244.0833)">
    <path
       sodipodi:nodetypes="csczssc"
       inkscape:connector-curvature="0"
       id="path1086"
       d="m 21.849285,286.20895 c 3e-6,4.81574 -3.903928,8.71967 -8.719668,8.71967 -4.8157406,0 -8.7196733,-3.90393 -8.7196687,-8.71967 1.2029246,-1.20292 2.6947421,-2.43815 4.3598342,-2.43815 1.6650925,0 3.0820125,1.37059 4.3598345,2.43815 1.252874,1.04672 2.694635,2.43883 4.359834,2.43883 1.665199,0 3.117704,-1.1967 4.359834,-2.43883 z"
       style="opacity:1;fill:none;fill-opacity:1;fill-rule:nonzero;stroke:#ff0000;stroke-width:3;stroke-linecap:round;stroke-linejoin:round;stroke-miterlimit:4;stroke-dasharray:none;stroke-dashoffset:0;stroke-opacity:1;paint-order:normal" />
    <path
       style="opacity:1;fill:#1a1a1a;fill-opacity:1;fill-rule:nonzero;stroke:#ff0000;stroke-width:3;stroke-linecap:round;stroke-linejoin:round;stroke-miterlimit:4;stroke-dasharray:none;stroke-dashoffset:0;stroke-opacity:1;paint-order:normal"
       d="m 21.849285,286.20895 c 3e-6,4.81574 -3.903928,8.71967 -8.719668,8.71967 -4.8157406,0 -8.7196733,-3.90393 -8.7196687,-8.71967 1.2029246,-1.20292 2.6947421,-2.43815 4.3598342,-2.43815 1.6650925,0 3.0820125,1.37059 4.3598345,2.43815 1.252874,1.04672 2.694635,2.43883 4.359834,2.43883 1.665199,0 3.117704,-1.1967 4.359834,-2.43883 z"
       id="path1075"
       inkscape:connector-curvature="0"
       sodipodi:nodetypes="csczssc" />
    <path
       style="opacity:1;fill:none;fill-opacity:1;fill-rule:nonzero;stroke:#ffcc00;stroke-width:3;stroke-linecap:round;stroke-linejoin:round;stroke-miterlimit:4;stroke-dasharray:none;stroke-dashoffset:0;stroke-opacity:1;paint-order:normal"
       d="m 48.576238,286.20895 c 3e-6,4.81574 -3.903928,8.71967 -8.719668,8.71967 -4.815741,0 -8.719674,-3.90393 -8.719669,-8.71967 1.202925,-1.20292 2.694742,-2.43815 4.359834,-2.43815 1.665093,0 3.082013,1.37059 4.359835,2.43815 1.252874,1.04672 2.694635,2.43883 4.359834,2.43883 1.665199,0 3.117704,-1.1967 4.359834,-2.43883 z"
       id="path1092"
       inkscape:connector-curvature="0"
       sodipodi:nodetypes="csczssc" />
    <path
       style="fill:none;stroke:#ff0000;stroke-width:6;stroke-linecap:round;stroke-linejoin:round;stroke-miterlimit:4;stroke-dasharray:none;stroke-opacity:1;paint-order:normal"
       d="m 31.136901,282.61811 c 1.120215,-1.12021 2.694744,-2.43815 4.359834,-2.43815 1.665091,0 3.274655,1.35297 4.359835,2.43815 1.085179,1.08518 2.694632,2.43883 4.359834,2.43883 1.665201,0 3.057177,-1.13617 4.359834,-2.43883"
       id="path1094"
       inkscape:connector-curvature="0"
       sodipodi:nodetypes="czzzc" />
    <path
       sodipodi:nodetypes="csczssc"
       inkscape:connector-curvature="0"
       id="path1098"
       d="m 48.576238,286.20895 c 3e-6,4.81574 -3.903928,8.71967 -8.719668,8.71967 -4.815741,0 -8.719674,-3.90393 -8.719669,-8.71967 1.202925,-1.20292 2.694742,-2.43815 4.359834,-2.43815 1.665093,0 3.082013,1.37059 4.359835,2.43815 1.252874,1.04672 2.694635,2.43883 4.359834,2.43883 1.665199,0 3.117704,-1.1967 4.359834,-2.43883 z"
       style="opacity:1;fill:#1a1a1a;fill-opacity:1;fill-rule:nonzero;stroke:#ff0000;stroke-width:3;stroke-linecap:round;stroke-linejoin:round;stroke-miterlimit:4;stroke-dasharray:none;stroke-dashoffset:0;stroke-opacity:1;paint-order:normal" />
    <path
       sodipodi:nodetypes="czzzc"
       inkscape:connector-curvature="0"
       id="path1100"
       d="m 31.136901,282.61811 c 1.120215,-1.12021 2.694744,-2.43815 4.359834,-2.43815 1.665091,0 3.274655,1.35297 4.359835,2.43815 1.085179,1.08518 2.694632,2.43883 4.359834,2.43883 1.665201,0 3.057177,-1.13617 4.359834,-2.43883"
       style="fill:none;stroke:#1a1a1a;stroke-width:2;stroke-linecap:round;stroke-linejoin:round;stroke-miterlimit:4;stroke-dasharray:none;stroke-opacity:1;paint-order:normal" />
    <path
       sodipodi:nodetypes="csczssc"
       inkscape:connector-curvature="0"
       id="path1104"
       d="m 74.902286,286.20895 c 3e-6,4.81574 -3.903928,8.71967 -8.719668,8.71967 -4.815741,0 -8.719674,-3.90393 -8.719669,-8.71967 1.202925,-1.20292 2.694742,-2.43815 4.359834,-2.43815 1.665093,0 3.082013,1.37059 4.359835,2.43815 1.252874,1.04672 2.694635,2.43883 4.359834,2.43883 1.665199,0 3.117704,-1.1967 4.359834,-2.43883 z"
       style="opacity:1;fill:#1a1a1a;fill-opacity:1;fill-rule:nonzero;stroke:#cccccc;stroke-width:3;stroke-linecap:round;stroke-linejoin:round;stroke-miterlimit:4;stroke-dasharray:none;stroke-dashoffset:0;stroke-opacity:1;paint-order:normal" />
    <path
       sodipodi:nodetypes="czzzc"
       inkscape:connector-curvature="0"
       id="path1106"
       d="m 57.462949,282.61811 c 1.120215,-1.12021 2.694744,-2.43815 4.359834,-2.43815 1.665091,0 3.274655,1.35297 4.359835,2.43815 1.085179,1.08518 2.694632,2.43883 4.359834,2.43883 1.665201,0 3.057177,-1.13617 4.359834,-2.43883"
       style="fill:none;stroke:#ff0000;stroke-width:6;stroke-linecap:round;stroke-linejoin:round;stroke-miterlimit:4;stroke-dasharray:none;stroke-opacity:1;paint-order:normal" />
    <path
       style="fill:none;stroke:#ff0000;stroke-width:6;stroke-linecap:round;stroke-linejoin:round;stroke-miterlimit:4;stroke-dasharray:none;stroke-opacity:1;paint-order:normal"
       d="m 57.462949,278.03515 c 1.120215,-1.12021 2.694744,-2.43815 4.359834,-2.43815 1.665091,0 3.274655,1.35297 4.359835,2.43815 1.085179,1.08518 2.694632,2.43883 4.359834,2.43883 1.665201,0 3.057177,-1.13617 4.359834,-2.43883"
       id="path1108"
       inkscape:connector-curvature="0"
       sodipodi:nodetypes="czzzc" />
    <path
       style="opacity:1;fill:#1a1a1a;fill-opacity:1;fill-rule:nonzero;stroke:#ff0000;stroke-width:3;stroke-linecap:round;stroke-linejoin:round;stroke-miterlimit:4;stroke-dasharray:none;stroke-dashoffset:0;stroke-opacity:1;paint-order:normal"
       d="m 74.902286,286.20895 c 3e-6,4.81574 -3.903928,8.71967 -8.719668,8.71967 -4.815741,0 -8.719674,-3.90393 -8.719669,-8.71967 1.202925,-1.20292 2.694742,-2.43815 4.359834,-2.43815 1.665093,0 3.082013,1.37059 4.359835,2.43815 1.252874,1.04672 2.694635,2.43883 4.359834,2.43883 1.665199,0 3.117704,-1.1967 4.359834,-2.43883 z"
       id="path1110"
       inkscape:connector-curvature="0"
       sodipodi:nodetypes="csczssc" />
    <path
       style="fill:none;stroke:#1a1a1a;stroke-width:2;stroke-linecap:round;stroke-linejoin:round;stroke-miterlimit:4;stroke-dasharray:none;stroke-opacity:1;paint-order:normal"
       d="m 57.462949,282.61811 c 1.120215,-1.12021 2.694744,-2.43815 4.359834,-2.43815 1.665091,0 3.274655,1.35297 4.359835,2.43815 1.085179,1.08518 2.694632,2.43883 4.359834,2.43883 1.665201,0 3.057177,-1.13617 4.359834,-2.43883"
       id="path1112"
       inkscape:connector-curvature="0"
       sodipodi:nodetypes="czzzc" />
    <path
       sodipodi:nodetypes="czzzc"
       inkscape:connector-curvature="0"
       id="path1114"
       d="m 57.462949,278.03515 c 1.120215,-1.12021 2.694744,-2.43815 4.359834,-2.43815 1.665091,0 3.274655,1.35297 4.359835,2.43815 1.085179,1.08518 2.694632,2.43883 4.359834,2.43883 1.665201,0 3.057177,-1.13617 4.359834,-2.43883"
       style="fill:none;stroke:#1a1a1a;stroke-width:2;stroke-linecap:round;stroke-linejoin:round;stroke-miterlimit:4;stroke-dasharray:none;stroke-opacity:1;paint-order:normal" />
    <path
       style="opacity:1;fill:#1a1a1a;fill-opacity:1;fill-rule:nonzero;stroke:#ff0000;stroke-width:11.33858299;stroke-linecap:round;stroke-linejoin:round;stroke-miterlimit:4;stroke-dasharray:none;stroke-dashoffset:0;stroke-opacity:1;paint-order:normal"
       d="M 359.78125 166.24805 L 374.73242 181.19922 C 379.99953 175.35787 383.29494 167.69952 383.29492 159.21484 C 378.60026 163.90951 373.11007 168.43359 366.81641 168.43359 C 364.33035 168.43359 362.01182 167.48523 359.78125 166.24805 z "
       id="path1128"
       transform="matrix(0.26458333,0,0,0.26458333,0,244.0833)" />
    <path
       sodipodi:nodetypes="cc"
       inkscape:connector-curvature="0"
       id="path1132"
       d="m 85.373315,278.25109 15.635255,15.63527"
       style="fill:none;stroke:#1a1a1a;stroke-width:3;stroke-linecap:butt;stroke-linejoin:miter;stroke-miterlimit:4;stroke-dasharray:none;stroke-opacity:1;paint-order:normal" />
    <path
       style="opacity:1;fill:#1a1a1a;fill-opacity:1;fill-rule:nonzero;stroke:none;stroke-width:25.84602737;stroke-linecap:round;stroke-linejoin:round;stroke-miterlimit:4;stroke-dasharray:none;stroke-dashoffset:0;stroke-opacity:1;paint-order:normal"
       d="M 324.82422 153.00977 C 322.11721 154.73387 319.61315 156.98256 317.38086 159.21484 C 317.38084 177.41607 332.13667 192.17188 350.33789 192.17188 C 354.39168 192.17188 358.22945 191.34084 361.81641 190.00195 L 324.82422 153.00977 z "
       id="path1141"
       transform="matrix(0.26458333,0,0,0.26458333,0,244.0833)" />
    <path
       style="opacity:1;fill:none;fill-opacity:1;fill-rule:nonzero;stroke:#ff0000;stroke-width:11.33858299;stroke-linecap:butt;stroke-linejoin:round;stroke-miterlimit:4;stroke-dasharray:none;stroke-dashoffset:0;stroke-opacity:1;paint-order:normal"
       d="m 324.82422,153.00977 c -1.96023,2.02511 -5.21107,3.97279 -7.44336,6.20507 -2e-5,18.20123 14.75581,32.95704 32.95703,32.95704 4.05379,0 9.20852,0.12878 11.47852,-2.16993"
       id="path1146"
       transform="matrix(0.26458333,0,0,0.26458333,0,244.0833)"
       inkscape:connector-curvature="0"
       sodipodi:nodetypes="ccsc" />
    <path
       style="opacity:1;fill:#1a1a1a;fill-opacity:1;fill-rule:nonzero;stroke:#cccccc;stroke-width:3;stroke-linecap:round;stroke-linejoin:round;stroke-miterlimit:4;stroke-dasharray:none;stroke-dashoffset:0;stroke-opacity:1;paint-order:normal"
       d="m 21.849285,259.84497 c 3e-6,4.81574 -3.903928,8.71967 -8.719668,8.71967 -4.8157406,0 -8.7196733,-3.90393 -8.7196687,-8.71967 1.2029246,-1.20292 2.6947421,-2.43815 4.3598342,-2.43815 1.6650925,0 3.0820125,1.37059 4.3598345,2.43815 1.252874,1.04672 2.694635,2.43883 4.359834,2.43883 1.665199,0 3.117704,-1.1967 4.359834,-2.43883 z"
       id="path1155"
       inkscape:connector-curvature="0"
       sodipodi:nodetypes="csczssc" />
    <path
       sodipodi:nodetypes="csczssc"
       inkscape:connector-curvature="0"
       id="path1157"
       d="m 21.849285,259.84497 c 3e-6,4.81574 -3.903928,8.71967 -8.719668,8.71967 -4.8157406,0 -8.7196733,-3.90393 -8.7196687,-8.71967 1.2029246,-1.20292 2.6947421,-2.43815 4.3598342,-2.43815 1.6650925,0 3.0820125,1.37059 4.3598345,2.43815 1.252874,1.04672 2.694635,2.43883 4.359834,2.43883 1.665199,0 3.117704,-1.1967 4.359834,-2.43883 z"
       style="opacity:1;fill:#1a1a1a;fill-opacity:1;fill-rule:nonzero;stroke:#ffcc00;stroke-width:3;stroke-linecap:round;stroke-linejoin:round;stroke-miterlimit:4;stroke-dasharray:none;stroke-dashoffset:0;stroke-opacity:1;paint-order:normal" />
    <path
       sodipodi:nodetypes="csczssc"
       inkscape:connector-curvature="0"
       id="path1159"
       d="m 48.576238,259.84497 c 3e-6,4.81574 -3.903928,8.71967 -8.719668,8.71967 -4.815741,0 -8.719674,-3.90393 -8.719669,-8.71967 1.202925,-1.20292 2.694742,-2.43815 4.359834,-2.43815 1.665093,0 3.082013,1.37059 4.359835,2.43815 1.252874,1.04672 2.694635,2.43883 4.359834,2.43883 1.665199,0 3.117704,-1.1967 4.359834,-2.43883 z"
       style="opacity:1;fill:#1a1a1a;fill-opacity:1;fill-rule:nonzero;stroke:#cccccc;stroke-width:3;stroke-linecap:round;stroke-linejoin:round;stroke-miterlimit:4;stroke-dasharray:none;stroke-dashoffset:0;stroke-opacity:1;paint-order:normal" />
    <path
       sodipodi:nodetypes="czzzc"
       inkscape:connector-curvature="0"
       id="path1161"
       d="m 31.136901,256.25413 c 1.120215,-1.12021 2.694744,-2.43815 4.359834,-2.43815 1.665091,0 3.274655,1.35297 4.359835,2.43815 1.085179,1.08518 2.694632,2.43883 4.359834,2.43883 1.665201,0 3.057177,-1.13617 4.359834,-2.43883"
       style="fill:none;stroke:#ffcc00;stroke-width:6;stroke-linecap:round;stroke-linejoin:round;stroke-miterlimit:4;stroke-dasharray:none;stroke-opacity:1;paint-order:normal" />
    <path
       style="opacity:1;fill:#1a1a1a;fill-opacity:1;fill-rule:nonzero;stroke:#ffcc00;stroke-width:3;stroke-linecap:round;stroke-linejoin:round;stroke-miterlimit:4;stroke-dasharray:none;stroke-dashoffset:0;stroke-opacity:1;paint-order:normal"
       d="m 48.576238,259.84497 c 3e-6,4.81574 -3.903928,8.71967 -8.719668,8.71967 -4.815741,0 -8.719674,-3.90393 -8.719669,-8.71967 1.202925,-1.20292 2.694742,-2.43815 4.359834,-2.43815 1.665093,0 3.082013,1.37059 4.359835,2.43815 1.252874,1.04672 2.694635,2.43883 4.359834,2.43883 1.665199,0 3.117704,-1.1967 4.359834,-2.43883 z"
       id="path1163"
       inkscape:connector-curvature="0"
       sodipodi:nodetypes="csczssc" />
    <path
       style="fill:none;stroke:#1a1a1a;stroke-width:2;stroke-linecap:round;stroke-linejoin:round;stroke-miterlimit:4;stroke-dasharray:none;stroke-opacity:1;paint-order:normal"
       d="m 31.136901,256.25413 c 1.120215,-1.12021 2.694744,-2.43815 4.359834,-2.43815 1.665091,0 3.274655,1.35297 4.359835,2.43815 1.085179,1.08518 2.694632,2.43883 4.359834,2.43883 1.665201,0 3.057177,-1.13617 4.359834,-2.43883"
       id="path1165"
       inkscape:connector-curvature="0"
       sodipodi:nodetypes="czzzc" />
    <path
       style="opacity:1;fill:#1a1a1a;fill-opacity:1;fill-rule:nonzero;stroke:#cccccc;stroke-width:3;stroke-linecap:round;stroke-linejoin:round;stroke-miterlimit:4;stroke-dasharray:none;stroke-dashoffset:0;stroke-opacity:1;paint-order:normal"
       d="m 74.902286,259.84497 c 3e-6,4.81574 -3.903928,8.71967 -8.719668,8.71967 -4.815741,0 -8.719674,-3.90393 -8.719669,-8.71967 1.202925,-1.20292 2.694742,-2.43815 4.359834,-2.43815 1.665093,0 3.082013,1.37059 4.359835,2.43815 1.252874,1.04672 2.694635,2.43883 4.359834,2.43883 1.665199,0 3.117704,-1.1967 4.359834,-2.43883 z"
       id="path1167"
       inkscape:connector-curvature="0"
       sodipodi:nodetypes="csczssc" />
    <path
       style="fill:none;stroke:#ffcc00;stroke-width:6;stroke-linecap:round;stroke-linejoin:round;stroke-miterlimit:4;stroke-dasharray:none;stroke-opacity:1;paint-order:normal"
       d="m 57.462949,256.25413 c 1.120215,-1.12021 2.694744,-2.43815 4.359834,-2.43815 1.665091,0 3.274655,1.35297 4.359835,2.43815 1.085179,1.08518 2.694632,2.43883 4.359834,2.43883 1.665201,0 3.057177,-1.13617 4.359834,-2.43883"
       id="path1169"
       inkscape:connector-curvature="0"
       sodipodi:nodetypes="czzzc" />
    <path
       sodipodi:nodetypes="czzzc"
       inkscape:connector-curvature="0"
       id="path1171"
       d="m 57.462949,251.67117 c 1.120215,-1.12021 2.694744,-2.43815 4.359834,-2.43815 1.665091,0 3.274655,1.35297 4.359835,2.43815 1.085179,1.08518 2.694632,2.43883 4.359834,2.43883 1.665201,0 3.057177,-1.13617 4.359834,-2.43883"
       style="fill:none;stroke:#ffcc00;stroke-width:6;stroke-linecap:round;stroke-linejoin:round;stroke-miterlimit:4;stroke-dasharray:none;stroke-opacity:1;paint-order:normal" />
    <path
       sodipodi:nodetypes="csczssc"
       inkscape:connector-curvature="0"
       id="path1173"
       d="m 74.902286,259.84497 c 3e-6,4.81574 -3.903928,8.71967 -8.719668,8.71967 -4.815741,0 -8.719674,-3.90393 -8.719669,-8.71967 1.202925,-1.20292 2.694742,-2.43815 4.359834,-2.43815 1.665093,0 3.082013,1.37059 4.359835,2.43815 1.252874,1.04672 2.694635,2.43883 4.359834,2.43883 1.665199,0 3.117704,-1.1967 4.359834,-2.43883 z"
       style="opacity:1;fill:#1a1a1a;fill-opacity:1;fill-rule:nonzero;stroke:#ffcc00;stroke-width:3;stroke-linecap:round;stroke-linejoin:round;stroke-miterlimit:4;stroke-dasharray:none;stroke-dashoffset:0;stroke-opacity:1;paint-order:normal" />
    <path
       sodipodi:nodetypes="czzzc"
       inkscape:connector-curvature="0"
       id="path1175"
       d="m 57.462949,256.25413 c 1.120215,-1.12021 2.694744,-2.43815 4.359834,-2.43815 1.665091,0 3.274655,1.35297 4.359835,2.43815 1.085179,1.08518 2.694632,2.43883 4.359834,2.43883 1.665201,0 3.057177,-1.13617 4.359834,-2.43883"
       style="fill:none;stroke:#1a1a1a;stroke-width:2;stroke-linecap:round;stroke-linejoin:round;stroke-miterlimit:4;stroke-dasharray:none;stroke-opacity:1;paint-order:normal" />
    <path
       style="fill:none;stroke:#1a1a1a;stroke-width:2;stroke-linecap:round;stroke-linejoin:round;stroke-miterlimit:4;stroke-dasharray:none;stroke-opacity:1;paint-order:normal"
       d="m 57.462949,251.67117 c 1.120215,-1.12021 2.694744,-2.43815 4.359834,-2.43815 1.665091,0 3.274655,1.35297 4.359835,2.43815 1.085179,1.08518 2.694632,2.43883 4.359834,2.43883 1.665201,0 3.057177,-1.13617 4.359834,-2.43883"
       id="path1177"
       inkscape:connector-curvature="0"
       sodipodi:nodetypes="czzzc" />
    <path
       id="path1179"
       d="m 95.192121,261.70578 3.955831,3.95583 c 1.393588,-1.54552 2.265498,-3.5718 2.265498,-5.8167 -1.24213,1.24213 -2.694745,2.43913 -4.359943,2.43913 -0.65777,0 -1.271214,-0.25092 -1.861386,-0.57826 z"
       style="opacity:1;fill:#1a1a1a;fill-opacity:1;fill-rule:nonzero;stroke:#ffcc00;stroke-width:3;stroke-linecap:round;stroke-linejoin:round;stroke-miterlimit:4;stroke-dasharray:none;stroke-dashoffset:0;stroke-opacity:1;paint-order:normal"
       inkscape:connector-curvature="0" />
    <path
       style="fill:none;stroke:#1a1a1a;stroke-width:3;stroke-linecap:butt;stroke-linejoin:miter;stroke-miterlimit:4;stroke-dasharray:none;stroke-opacity:1;paint-order:normal"
       d="m 85.373315,251.88711 15.635255,15.63527"
       id="path1183"
       inkscape:connector-curvature="0"
       sodipodi:nodetypes="cc" />
    <path
       id="path1185"
       d="m 85.943074,258.20315 c -0.71623,0.45617 -1.378762,1.05114 -1.969389,1.64176 -5e-6,4.81574 3.904141,8.71988 8.719881,8.71988 1.072565,0 2.087975,-0.21988 3.037025,-0.57412 z"
       style="opacity:1;fill:#1a1a1a;fill-opacity:1;fill-rule:nonzero;stroke:none;stroke-width:6.83842802;stroke-linecap:round;stroke-linejoin:round;stroke-miterlimit:4;stroke-dasharray:none;stroke-dashoffset:0;stroke-opacity:1;paint-order:normal"
       inkscape:connector-curvature="0" />
    <path
       sodipodi:nodetypes="ccsc"
       inkscape:connector-curvature="0"
       id="path1181"
       d="m 85.943074,258.20315 c -0.550865,0.55657 -1.378762,1.05114 -1.969389,1.64176 -5e-6,4.81574 3.904141,8.71988 8.719881,8.71988 1.072565,0 2.43642,0.0341 3.037025,-0.57412"
       style="opacity:1;fill:none;fill-opacity:1;fill-rule:nonzero;stroke:#ffcc00;stroke-width:3;stroke-linecap:butt;stroke-linejoin:round;stroke-miterlimit:4;stroke-dasharray:none;stroke-dashoffset:0;stroke-opacity:1;paint-order:normal" />
  </g>
</svg>
