<?xml version="1.0" encoding="UTF-8" standalone="no"?>
<!-- Created with Inkscape (http://www.inkscape.org/) -->

<svg
   xmlns:dc="http://purl.org/dc/elements/1.1/"
   xmlns:cc="http://creativecommons.org/ns#"
   xmlns:rdf="http://www.w3.org/1999/02/22-rdf-syntax-ns#"
   xmlns:svg="http://www.w3.org/2000/svg"
   xmlns="http://www.w3.org/2000/svg"
   xmlns:sodipodi="http://sodipodi.sourceforge.net/DTD/sodipodi-0.dtd"
   xmlns:inkscape="http://www.inkscape.org/namespaces/inkscape"
   width="400"
   height="200"
   viewBox="0 0 105.83333 52.916668"
   version="1.1"
   id="svg8"
   inkscape:version="0.92.2 (5c3e80d, 2017-08-06)"
   sodipodi:docname="srazky_anomalie.svg">
  <defs
     id="defs2" />
  <sodipodi:namedview
     id="base"
     pagecolor="#ffffff"
     bordercolor="#666666"
     borderopacity="1.0"
     inkscape:pageopacity="0.0"
     inkscape:pageshadow="2"
     inkscape:zoom="0.98994949"
     inkscape:cx="331.80674"
     inkscape:cy="33.561289"
     inkscape:document-units="mm"
     inkscape:current-layer="layer1"
     showgrid="false"
     units="px"
     showguides="false"
     inkscape:guide-bbox="true"
     inkscape:window-width="1920"
     inkscape:window-height="1013"
     inkscape:window-x="-9"
     inkscape:window-y="-9"
     inkscape:window-maximized="1">
    <sodipodi:guide
       position="26.458333,30.869631"
       orientation="1,0"
       id="guide827"
       inkscape:locked="false"
       inkscape:label=""
       inkscape:color="rgb(0,0,255)" />
    <sodipodi:guide
       position="52.916666,26.994223"
       orientation="1,0"
       id="guide831"
       inkscape:locked="false"
       inkscape:label=""
       inkscape:color="rgb(0,0,255)" />
    <sodipodi:guide
       position="79.375,29.934188"
       orientation="1,0"
       id="guide833"
       inkscape:locked="false"
       inkscape:label=""
       inkscape:color="rgb(0,0,255)" />
    <sodipodi:guide
       position="1.3363476,13.229167"
       orientation="0,1"
       id="guide854"
       inkscape:locked="false"
       inkscape:label=""
       inkscape:color="rgb(0,0,255)" />
    <sodipodi:guide
       position="3.0238094,39.6875"
       orientation="0,1"
       id="guide898"
       inkscape:locked="false"
       inkscape:label=""
       inkscape:color="rgb(0,0,255)" />
  </sodipodi:namedview>
  <metadata
     id="metadata5">
    <rdf:RDF>
      <cc:Work
         rdf:about="">
        <dc:format>image/svg+xml</dc:format>
        <dc:type
           rdf:resource="http://purl.org/dc/dcmitype/StillImage" />
        <dc:title></dc:title>
      </cc:Work>
    </rdf:RDF>
  </metadata>
  <g
     inkscape:label="Vrstva 1"
     inkscape:groupmode="layer"
     id="layer1"
     transform="translate(0,-244.0833)">
    <path
       sodipodi:nodetypes="ssscs"
       inkscape:connector-curvature="0"
       id="path900"
       d="m 17.55101,288.462 c -0.634527,2.23103 -3.127159,4.22618 -5.324291,3.60129 -2.197131,-0.62488 -3.2667466,-3.63316 -2.6322203,-5.86421 1.0929473,-3.84286 7.0300043,-9.59869 7.0300043,-9.59869 0,0 2.043851,7.93294 0.926507,11.86161 z"
       style="opacity:1;fill:#1a1a1a;fill-opacity:1;fill-rule:nonzero;stroke:#ff0000;stroke-width:3;stroke-linecap:round;stroke-linejoin:miter;stroke-miterlimit:4;stroke-dasharray:none;stroke-dashoffset:0;stroke-opacity:1;paint-order:normal" />
    <path
       style="opacity:1;fill:#1a1a1a;fill-opacity:1;fill-rule:nonzero;stroke:#ff0000;stroke-width:3;stroke-linecap:round;stroke-linejoin:miter;stroke-miterlimit:4;stroke-dasharray:none;stroke-dashoffset:0;stroke-opacity:1;paint-order:normal"
       d="m 39.50712,288.462 c -0.634527,2.23103 -3.12716,4.22618 -5.324291,3.60129 -2.19713,-0.62488 -3.266746,-3.63316 -2.63222,-5.86421 1.092948,-3.84286 7.030004,-9.59869 7.030004,-9.59869 0,0 2.043851,7.93294 0.926507,11.86161 z"
       id="path902"
       inkscape:connector-curvature="0"
       sodipodi:nodetypes="ssscs" />
    <path
       sodipodi:nodetypes="ssscs"
       inkscape:connector-curvature="0"
       id="path904"
       d="m 48.242187,283.7708 c -0.487706,1.7148 -2.403578,3.24829 -4.092324,2.768 -1.688745,-0.48029 -2.510866,-2.79249 -2.023161,-4.50731 0.840056,-2.95368 5.40336,-7.37769 5.40336,-7.37769 0,0 1.570932,6.09737 0.712125,9.117 z"
       style="opacity:1;fill:#1a1a1a;fill-opacity:1;fill-rule:nonzero;stroke:#ff0000;stroke-width:3;stroke-linecap:round;stroke-linejoin:miter;stroke-miterlimit:4;stroke-dasharray:none;stroke-dashoffset:0;stroke-opacity:1;paint-order:normal" />
    <path
       sodipodi:nodetypes="ssscs"
       inkscape:connector-curvature="0"
       id="path906"
       d="m 69.748651,288.462 c -0.634526,2.23103 -3.127159,4.22618 -5.32429,3.60129 -2.19713,-0.62488 -3.266746,-3.63316 -2.63222,-5.86421 1.092948,-3.84286 7.030004,-9.59869 7.030004,-9.59869 0,0 2.043851,7.93294 0.926506,11.86161 z"
       style="opacity:1;fill:#1a1a1a;fill-opacity:1;fill-rule:nonzero;stroke:#ff0000;stroke-width:3;stroke-linecap:round;stroke-linejoin:miter;stroke-miterlimit:4;stroke-dasharray:none;stroke-dashoffset:0;stroke-opacity:1;paint-order:normal" />
    <path
       style="opacity:1;fill:#1a1a1a;fill-opacity:1;fill-rule:nonzero;stroke:#ff0000;stroke-width:3;stroke-linecap:round;stroke-linejoin:miter;stroke-miterlimit:4;stroke-dasharray:none;stroke-dashoffset:0;stroke-opacity:1;paint-order:normal"
       d="m 77.755809,283.7708 c -0.487706,1.7148 -2.403579,3.24829 -4.092324,2.768 -1.688745,-0.48029 -2.510866,-2.79249 -2.023161,-4.50731 0.840055,-2.95368 5.403359,-7.37769 5.403359,-7.37769 0,0 1.570933,6.09737 0.712126,9.117 z"
       id="path908"
       inkscape:connector-curvature="0"
       sodipodi:nodetypes="ssscs" />
    <path
       sodipodi:nodetypes="ssscs"
       inkscape:connector-curvature="0"
       id="path910"
       d="m 60.713718,283.7708 c -0.487705,1.7148 -2.403578,3.24829 -4.092324,2.768 -1.688744,-0.48029 -2.510866,-2.79249 -2.02316,-4.50731 0.840055,-2.95368 5.403359,-7.37769 5.403359,-7.37769 0,0 1.570932,6.09737 0.712125,9.117 z"
       style="opacity:1;fill:#1a1a1a;fill-opacity:1;fill-rule:nonzero;stroke:#ff0000;stroke-width:3;stroke-linecap:round;stroke-linejoin:miter;stroke-miterlimit:4;stroke-dasharray:none;stroke-dashoffset:0;stroke-opacity:1;paint-order:normal" />
    <path
       style="opacity:1;fill:#1a1a1a;fill-opacity:1;fill-rule:nonzero;stroke:none;stroke-width:3;stroke-linecap:round;stroke-linejoin:miter;stroke-miterlimit:4;stroke-dasharray:none;stroke-dashoffset:0;stroke-opacity:1;paint-order:normal"
       d="M 94.950276,289.81798 88.9031,283.7708 c -0.336997,0.62491 -0.623888,1.23664 -0.784966,1.80299 -0.634526,2.23105 0.435269,5.23936 2.632398,5.86424 1.49343,0.42475 3.109581,-0.37252 4.199744,-1.62005 z"
       id="path968"
       inkscape:connector-curvature="0" />
    <path
       style="opacity:1;fill:#1a1a1a;fill-opacity:1;fill-rule:nonzero;stroke:none;stroke-width:3;stroke-linecap:round;stroke-linejoin:miter;stroke-miterlimit:4;stroke-dasharray:none;stroke-dashoffset:0;stroke-opacity:1;paint-order:normal"
       d="m 91.060592,280.58908 5.302517,5.30252 c 0.262781,-4.13683 -1.214914,-9.91671 -1.214914,-9.91671 0,0 -2.141884,2.11515 -4.087603,4.61419 z"
       id="path960"
       inkscape:connector-curvature="0" />
    <path
       style="fill:#0000ff;stroke:#0000ff;stroke-width:0;stroke-linecap:butt;stroke-linejoin:miter;stroke-miterlimit:4;stroke-dasharray:none;stroke-opacity:1"
       d="m 85.972374,275.50108 15.635266,15.63527"
       id="path983"
       inkscape:connector-curvature="0"
       sodipodi:nodetypes="cc" />
    <path
       inkscape:connector-curvature="0"
       id="path993"
       d="m 91.060592,280.58908 5.302517,5.30252 c 0.262781,-4.13683 -1.214914,-9.91671 -1.214914,-9.91671 0,0 -2.141884,2.11515 -4.087603,4.61419 z"
       style="opacity:1;fill:#1a1a1a;fill-opacity:1;fill-rule:nonzero;stroke:#ff0000;stroke-width:3;stroke-linecap:round;stroke-linejoin:miter;stroke-miterlimit:4;stroke-dasharray:none;stroke-dashoffset:0;stroke-opacity:1;paint-order:normal" />
    <path
       sodipodi:nodetypes="cc"
       inkscape:connector-curvature="0"
       id="path912"
       d="m 85.972374,275.50108 15.635266,15.63527"
       style="fill:#ff0000;stroke:#1a1a1a;stroke-width:3;stroke-linecap:butt;stroke-linejoin:miter;stroke-miterlimit:4;stroke-dasharray:none;stroke-opacity:1" />
    <path
       inkscape:connector-curvature="0"
       id="path985"
       d="m 88.9031,283.7708 c -0.525985,0.53042 -0.623888,1.23664 -0.784966,1.80299 -0.634526,2.23105 0.435269,5.23936 2.632398,5.86424 1.49343,0.42475 3.076172,-0.48945 4.199744,-1.62005"
       style="opacity:1;fill:none;fill-opacity:1;fill-rule:nonzero;stroke:#ff0000;stroke-width:3;stroke-linecap:butt;stroke-linejoin:round;stroke-miterlimit:4;stroke-dasharray:none;stroke-dashoffset:0;stroke-opacity:1;paint-order:markers stroke fill"
       sodipodi:nodetypes="cccc" />
    <path
       style="opacity:1;fill:#1a1a1a;fill-opacity:1;fill-rule:nonzero;stroke:#ffcc00;stroke-width:3;stroke-linecap:round;stroke-linejoin:miter;stroke-miterlimit:4;stroke-dasharray:none;stroke-dashoffset:0;stroke-opacity:1;paint-order:normal"
       d="m 17.55101,262.53267 c -0.634527,2.23103 -3.127159,4.22618 -5.324291,3.60129 -2.197131,-0.62488 -3.2667466,-3.63316 -2.6322203,-5.86421 1.0929473,-3.84286 7.0300043,-9.59869 7.0300043,-9.59869 0,0 2.043851,7.93294 0.926507,11.86161 z"
       id="path863"
       inkscape:connector-curvature="0"
       sodipodi:nodetypes="ssscs" />
    <path
       sodipodi:nodetypes="ssscs"
       inkscape:connector-curvature="0"
       id="path865"
       d="m 39.50712,262.53267 c -0.634527,2.23103 -3.12716,4.22618 -5.324291,3.60129 -2.19713,-0.62488 -3.266746,-3.63316 -2.63222,-5.86421 1.092948,-3.84286 7.030004,-9.59869 7.030004,-9.59869 0,0 2.043851,7.93294 0.926507,11.86161 z"
       style="opacity:1;fill:#1a1a1a;fill-opacity:1;fill-rule:nonzero;stroke:#ffcc00;stroke-width:3;stroke-linecap:round;stroke-linejoin:miter;stroke-miterlimit:4;stroke-dasharray:none;stroke-dashoffset:0;stroke-opacity:1;paint-order:normal" />
    <path
       style="opacity:1;fill:#1a1a1a;fill-opacity:1;fill-rule:nonzero;stroke:#ffcc00;stroke-width:3;stroke-linecap:round;stroke-linejoin:miter;stroke-miterlimit:4;stroke-dasharray:none;stroke-dashoffset:0;stroke-opacity:1;paint-order:normal"
       d="m 48.242187,257.84147 c -0.487706,1.7148 -2.403578,3.24829 -4.092324,2.768 -1.688745,-0.48029 -2.510866,-2.79249 -2.023161,-4.50731 0.840056,-2.95368 5.40336,-7.37769 5.40336,-7.37769 0,0 1.570932,6.09737 0.712125,9.117 z"
       id="path867"
       inkscape:connector-curvature="0"
       sodipodi:nodetypes="ssscs" />
    <path
       style="opacity:1;fill:#1a1a1a;fill-opacity:1;fill-rule:nonzero;stroke:#ffcc00;stroke-width:3;stroke-linecap:round;stroke-linejoin:miter;stroke-miterlimit:4;stroke-dasharray:none;stroke-dashoffset:0;stroke-opacity:1;paint-order:normal"
       d="m 69.748651,262.53267 c -0.634526,2.23103 -3.127159,4.22618 -5.32429,3.60129 -2.19713,-0.62488 -3.266746,-3.63316 -2.63222,-5.86421 1.092948,-3.84286 7.030004,-9.59869 7.030004,-9.59869 0,0 2.043851,7.93294 0.926506,11.86161 z"
       id="path869"
       inkscape:connector-curvature="0"
       sodipodi:nodetypes="ssscs" />
    <path
       sodipodi:nodetypes="ssscs"
       inkscape:connector-curvature="0"
       id="path871"
       d="m 77.755809,257.84147 c -0.487706,1.7148 -2.403579,3.24829 -4.092324,2.768 -1.688745,-0.48029 -2.510866,-2.79249 -2.023161,-4.50731 0.840055,-2.95368 5.403359,-7.37769 5.403359,-7.37769 0,0 1.570933,6.09737 0.712126,9.117 z"
       style="opacity:1;fill:#1a1a1a;fill-opacity:1;fill-rule:nonzero;stroke:#ffcc00;stroke-width:3;stroke-linecap:round;stroke-linejoin:miter;stroke-miterlimit:4;stroke-dasharray:none;stroke-dashoffset:0;stroke-opacity:1;paint-order:normal" />
    <path
       style="opacity:1;fill:#1a1a1a;fill-opacity:1;fill-rule:nonzero;stroke:#ffcc00;stroke-width:3;stroke-linecap:round;stroke-linejoin:miter;stroke-miterlimit:4;stroke-dasharray:none;stroke-dashoffset:0;stroke-opacity:1;paint-order:normal"
       d="m 60.713718,257.84147 c -0.487705,1.7148 -2.403578,3.24829 -4.092324,2.768 -1.688744,-0.48029 -2.510866,-2.79249 -2.02316,-4.50731 0.840055,-2.95368 5.403359,-7.37769 5.403359,-7.37769 0,0 1.570932,6.09737 0.712125,9.117 z"
       id="path873"
       inkscape:connector-curvature="0"
       sodipodi:nodetypes="ssscs" />
    <path
       inkscape:connector-curvature="0"
       id="path875"
       d="M 94.950276,263.88865 88.9031,257.84147 c -0.336997,0.62491 -0.623888,1.23664 -0.784966,1.80299 -0.634526,2.23105 0.435269,5.23936 2.632398,5.86424 1.49343,0.42475 3.109581,-0.37252 4.199744,-1.62005 z"
       style="opacity:1;fill:#1a1a1a;fill-opacity:1;fill-rule:nonzero;stroke:none;stroke-width:3;stroke-linecap:round;stroke-linejoin:miter;stroke-miterlimit:4;stroke-dasharray:none;stroke-dashoffset:0;stroke-opacity:1;paint-order:normal" />
    <path
       inkscape:connector-curvature="0"
       id="path877"
       d="m 91.060592,254.65975 5.302517,5.30252 c 0.262781,-4.13683 -1.214914,-9.91671 -1.214914,-9.91671 0,0 -2.141884,2.11515 -4.087603,4.61419 z"
       style="opacity:1;fill:#1a1a1a;fill-opacity:1;fill-rule:nonzero;stroke:none;stroke-width:3;stroke-linecap:round;stroke-linejoin:miter;stroke-miterlimit:4;stroke-dasharray:none;stroke-dashoffset:0;stroke-opacity:1;paint-order:normal" />
    <path
       sodipodi:nodetypes="cc"
       inkscape:connector-curvature="0"
       id="path879"
       d="m 85.972374,249.57175 15.635266,15.63527"
       style="fill:#0000ff;stroke:#0000ff;stroke-width:0;stroke-linecap:butt;stroke-linejoin:miter;stroke-miterlimit:4;stroke-dasharray:none;stroke-opacity:1" />
    <path
       style="opacity:1;fill:#1a1a1a;fill-opacity:1;fill-rule:nonzero;stroke:#ffcc00;stroke-width:3;stroke-linecap:round;stroke-linejoin:miter;stroke-miterlimit:4;stroke-dasharray:none;stroke-dashoffset:0;stroke-opacity:1;paint-order:normal"
       d="m 91.060592,254.65975 5.302517,5.30252 c 0.262781,-4.13683 -1.214914,-9.91671 -1.214914,-9.91671 0,0 -2.141884,2.11515 -4.087603,4.61419 z"
       id="path881"
       inkscape:connector-curvature="0" />
    <path
       style="fill:#ff0000;stroke:#1a1a1a;stroke-width:3;stroke-linecap:butt;stroke-linejoin:miter;stroke-miterlimit:4;stroke-dasharray:none;stroke-opacity:1"
       d="m 85.972374,249.57175 15.635266,15.63527"
       id="path883"
       inkscape:connector-curvature="0"
       sodipodi:nodetypes="cc" />
    <path
       sodipodi:nodetypes="cccc"
       style="opacity:1;fill:none;fill-opacity:1;fill-rule:nonzero;stroke:#ffcc00;stroke-width:3;stroke-linecap:butt;stroke-linejoin:round;stroke-miterlimit:4;stroke-dasharray:none;stroke-dashoffset:0;stroke-opacity:1;paint-order:markers stroke fill"
       d="m 88.9031,257.84147 c -0.525985,0.53042 -0.623888,1.23664 -0.784966,1.80299 -0.634526,2.23105 0.435269,5.23936 2.632398,5.86424 1.49343,0.42475 3.076172,-0.48945 4.199744,-1.62005"
       id="path885"
       inkscape:connector-curvature="0" />
  </g>
</svg>
