<?xml version="1.0" encoding="UTF-8" standalone="no"?>
<!-- Created with Inkscape (http://www.inkscape.org/) -->

<svg
   xmlns:dc="http://purl.org/dc/elements/1.1/"
   xmlns:cc="http://creativecommons.org/ns#"
   xmlns:rdf="http://www.w3.org/1999/02/22-rdf-syntax-ns#"
   xmlns:svg="http://www.w3.org/2000/svg"
   xmlns="http://www.w3.org/2000/svg"
   xmlns:sodipodi="http://sodipodi.sourceforge.net/DTD/sodipodi-0.dtd"
   xmlns:inkscape="http://www.inkscape.org/namespaces/inkscape"
   width="100"
   height="100"
   viewBox="0 0 26.458333 26.458334"
   version="1.1"
   id="svg8"
   inkscape:version="0.92.4 (5da689c313, 2019-01-14)"
   sodipodi:docname="PM10.svg">
  <defs
     id="defs2" />
  <sodipodi:namedview
     id="base"
     pagecolor="#ffffff"
     bordercolor="#666666"
     borderopacity="1.0"
     inkscape:pageopacity="0.0"
     inkscape:pageshadow="2"
     inkscape:zoom="3.959798"
     inkscape:cx="59.261752"
     inkscape:cy="38.49213"
     inkscape:document-units="mm"
     inkscape:current-layer="layer1"
     showgrid="false"
     units="px"
     inkscape:window-width="1920"
     inkscape:window-height="986"
     inkscape:window-x="-11"
     inkscape:window-y="-11"
     inkscape:window-maximized="1" />
  <metadata
     id="metadata5">
    <rdf:RDF>
      <cc:Work
         rdf:about="">
        <dc:format>image/svg+xml</dc:format>
        <dc:type
           rdf:resource="http://purl.org/dc/dcmitype/StillImage" />
        <dc:title></dc:title>
      </cc:Work>
    </rdf:RDF>
  </metadata>
  <g
     inkscape:label="Vrstva 1"
     inkscape:groupmode="layer"
     id="layer1"
     transform="translate(0,-270.54165)">
    <g
       transform="matrix(0.19126252,0,0,0.19126252,-36.335375,186.59884)"
       id="g3736">
      <g
         id="g3734"
         transform="translate(177.93476,423.36202)">
        <circle
           r="65.21376"
           cy="84.689957"
           cx="81.212799"
           id="circle3712"
           style="opacity:1;fill:#ffffff;fill-opacity:1;stroke:#000000;stroke-width:6.2967515;stroke-linecap:round;stroke-linejoin:round;stroke-miterlimit:4;stroke-dasharray:none;stroke-dashoffset:0;stroke-opacity:0.99038463;paint-order:normal" />
        <g
           transform="matrix(0.971205,-0.02252601,0.02252601,0.971205,3.3581455,5.0279916)"
           id="g3732">
          <path
             style="fill:none;stroke:#000000;stroke-width:2.6236465;stroke-linecap:butt;stroke-linejoin:miter;stroke-miterlimit:4;stroke-dasharray:none;stroke-opacity:1"
             d="m 109.62146,54.445049 c 0.45824,1.28425 1.96498,1.992937 2.47346,3.258139 0.43867,1.091499 0.50145,2.33339 0.40476,3.505767 -0.10919,1.323932 -0.36229,2.72552 -1.09949,3.830626 -0.70531,1.057299 -1.86298,1.772152 -2.97977,2.37888 -0.95873,0.520841 -2.01734,0.953663 -3.1054,1.034604 -1.18086,0.08787 -2.40648,-0.15581 -3.49929,-0.611753 -1.01914,-0.425215 -1.63737,-1.621725 -2.701157,-1.918044 -1.079226,-0.300615 -2.245116,0.423652 -3.351716,0.24891 -1.102445,-0.174136 -2.256207,-0.534609 -3.100228,-1.264904 -0.731552,-0.632976 -1.250953,-1.559643 -1.471161,-2.501636 -0.313232,-1.339885 0.623062,-2.780124 0.298261,-4.117257 -0.31614,-1.30147 -1.788202,-2.124321 -2.096369,-3.427707 -0.326488,-1.380854 -0.192612,-2.934474 0.359506,-4.241576 0.509254,-1.20563 1.489292,-2.232241 2.573487,-2.96532 0.990444,-0.669688 2.196533,-1.096375 3.3897,-1.172639 1.052215,-0.06726 2.127792,0.229076 3.096603,0.645116 0.978528,0.420209 1.563954,1.743832 2.626224,1.819297 1.00641,0.0715 1.7126,-1.182881 2.70684,-1.354588 1.02219,-0.176542 2.15745,-0.07804 3.08887,0.378596 0.77657,0.380726 1.4248,1.076772 1.82679,1.842556 0.40796,0.77717 0.389,1.715606 0.48615,2.587952 0.0755,0.677919 -0.15531,1.402548 0.0739,2.044981 z"
             id="path3714"
             inkscape:connector-curvature="0"
             sodipodi:nodetypes="aaaaaaaaaaaaaaaaaaaaaaa" />
          <path
             style="fill:none;stroke:#000000;stroke-width:2.6236465;stroke-linecap:butt;stroke-linejoin:miter;stroke-miterlimit:4;stroke-dasharray:none;stroke-opacity:1"
             d="m 50.697112,81.716027 c -0.20163,-0.66039 -0.242457,-1.546303 0.219123,-2.059834 0.509507,-0.566851 1.512828,-0.725365 2.23514,-0.482089 0.765844,0.257937 1.48695,1.037699 1.577744,1.840697 0.07415,0.655807 -0.358969,1.406014 -0.920348,1.753051 -0.621429,0.384158 -1.526043,0.345816 -2.19131,0.04387 -0.434337,-0.197133 -0.781065,-0.639504 -0.920349,-1.095695 z"
             id="path3716"
             inkscape:connector-curvature="0"
             sodipodi:nodetypes="aaaaaaa" />
          <path
             style="fill:none;stroke:#000000;stroke-width:2.6236465;stroke-linecap:butt;stroke-linejoin:miter;stroke-miterlimit:4;stroke-dasharray:none;stroke-opacity:1"
             d="m 97.400554,77.29291 c 0.301837,1.166703 0.574795,2.40914 0.368677,3.596496 -0.179919,1.036431 -0.689192,2.037783 -1.361049,2.847206 -0.664104,0.800081 -1.577066,1.399095 -2.51847,1.840592 -0.767591,0.359981 -1.630825,0.478675 -2.466909,0.619199 -0.696903,0.11713 -1.565271,-0.263307 -2.111996,0.184451 -0.758591,0.621271 -0.353169,1.964879 -0.828445,2.822522 -0.395147,0.713048 -1.330137,1.067865 -1.624681,1.828011 -0.308587,0.79639 0.152767,1.728345 -0.0327,2.562045 -0.181462,0.815697 -0.387354,1.754248 -1.033728,2.283868 -0.723291,0.59264 -1.801415,0.71011 -2.733197,0.63164 -0.8682,-0.0731 -1.817165,-0.36991 -2.41241,-1.00614 -0.512522,-0.547821 -0.553342,-1.400179 -0.726267,-2.130161 -0.135078,-0.57021 0.09047,-1.257278 -0.239419,-1.741595 -0.186453,-0.273734 -0.53536,-0.495625 -0.866432,-0.486365 -1.215219,0.03399 -1.930359,1.552136 -3.075527,1.960182 -1.022875,0.364472 -2.155771,0.498155 -3.235281,0.380787 -1.036148,-0.112653 -2.00247,-0.599499 -2.954225,-1.024299 -0.832032,-0.371365 -1.547227,-0.980915 -2.391113,-1.324493 -0.792766,-0.322763 -1.817966,-0.131877 -2.476576,-0.678583 -0.70611,-0.586134 -1.112098,-1.562789 -1.203902,-2.47587 -0.0817,-0.812559 0.132576,-1.710852 0.611304,-2.372475 0.585347,-0.808976 1.722936,-1.017815 2.521613,-1.617138 0.868219,-0.651508 1.627503,-1.436947 2.454075,-2.14054 0.552308,-0.470136 1.554164,-0.674942 1.673818,-1.390317 0.05869,-0.350872 -0.29285,-0.67078 -0.55437,-0.911962 -0.771459,-0.711545 -2.006121,-0.742668 -2.813566,-1.413099 -0.608384,-0.505148 -1.096212,-1.174169 -1.43631,-1.888059 -0.458836,-0.963127 -0.907949,-2.053524 -0.757186,-3.109659 0.141783,-0.993271 0.788764,-1.902774 1.501934,-2.60851 0.771842,-0.763795 1.773888,-1.389463 2.839973,-1.595842 0.943564,-0.182623 1.978888,-0.01356 2.859078,0.372354 0.848398,0.371976 1.263682,1.458572 2.131101,1.78373 1.011985,0.37935 2.21455,-0.270394 3.241576,0.06611 0.756442,0.247849 1.338845,0.867728 1.953416,1.373629 0.462985,0.381119 0.757706,0.985824 1.298326,1.245321 0.824791,0.395899 1.885572,-0.0151 2.72133,0.357095 0.637927,0.28409 0.893984,1.350238 1.592218,1.361529 1.077844,0.01743 1.548123,-1.56437 2.524527,-2.021194 1.164502,-0.544829 2.496388,-0.838981 3.780005,-0.766633 1.078249,0.06077 2.156358,0.441645 3.08276,0.996706 0.785499,0.470638 1.458024,1.152546 1.97811,1.906216 0.346597,0.502263 0.567084,1.092444 0.719957,1.683224 z"
             id="path3718"
             inkscape:connector-curvature="0"
             sodipodi:nodetypes="aaaaaaaaaaaaaaaaaaaaaaaaaaaaaaaaaaaaaaaaaaa" />
          <path
             style="fill:none;stroke:#000000;stroke-width:2.6236465;stroke-linecap:butt;stroke-linejoin:miter;stroke-miterlimit:4;stroke-dasharray:none;stroke-opacity:1"
             d="m 97.366526,105.29662 c 0.88689,-0.72078 0.97659,-2.14459 1.8407,-2.89253 0.72675,-0.62907 1.687124,-0.9945 2.629574,-1.18333 1.04605,-0.20959 2.17867,-0.22292 3.19932,0.0876 0.94223,0.28667 1.83724,0.84752 2.49809,1.57775 0.65758,0.72661 1.08964,1.6758 1.31479,2.62957 0.21817,0.92417 -0.26715,1.9375 0,2.84872 0.25881,0.88273 1.16572,1.46199 1.4901,2.32279 0.34388,0.91254 0.72486,1.96041 0.43826,2.89253 -0.31596,1.02763 -1.24587,1.85476 -2.19131,2.36662 -1.22496,0.6632 -2.92093,-0.008 -4.11967,0.70122 -0.93064,0.55084 -1.14106,1.90633 -2.01601,2.54193 -1.08454,0.78785 -2.43623,1.25906 -3.769054,1.40244 -1.33519,0.14363 -2.751341,-0.0467 -3.988191,-0.56974 -1.27568,-0.53947 -2.48985,-1.40923 -3.28698,-2.54192 -0.68065,-0.96719 -0.95303,-2.20058 -1.09565,-3.37463 -0.14661,-1.20682 -0.14351,-2.49185 0.26295,-3.63758 0.37534,-1.05799 1.10853,-1.99418 1.92836,-2.76106 0.72272,-0.67605 1.65162,-1.10179 2.54192,-1.53392 0.74449,-0.36136 1.680591,-0.35453 2.322801,-0.87646 z"
             id="path3720"
             inkscape:connector-curvature="0"
             sodipodi:nodetypes="aaaaaaaaaaaaaaaaaaaa" />
          <path
             style="fill:none;stroke:#000000;stroke-width:2.6236465;stroke-linecap:butt;stroke-linejoin:miter;stroke-miterlimit:4;stroke-dasharray:none;stroke-opacity:1"
             d="m 100.60707,90.103653 c 0.008,-1.045488 0.95804,-2.07284 1.92137,-2.479184 0.84297,-0.355574 1.97731,-0.214328 2.72712,0.309893 0.75723,0.529406 1.29121,1.556687 1.2396,2.479183 -0.0509,0.909727 -0.67654,1.877923 -1.48752,2.293257 -0.75483,0.386578 -1.79211,0.273658 -2.54117,-0.12398 -0.9124,-0.484347 -1.86756,-1.44621 -1.8594,-2.479169 z"
             id="path3722"
             inkscape:connector-curvature="0"
             sodipodi:nodetypes="aaaaaaa" />
          <path
             style="fill:none;stroke:#000000;stroke-width:2.6236465;stroke-linecap:butt;stroke-linejoin:miter;stroke-miterlimit:4;stroke-dasharray:none;stroke-opacity:1"
             d="m 77.907651,47.095291 c 0.0623,-0.79477 0.49262,-1.766764 1.239577,-2.045325 0.63054,-0.235144 1.43094,0.158983 1.92138,0.619785 0.45295,0.425579 0.77123,1.120389 0.68177,1.735433 -0.12075,0.830222 -0.7286,1.810205 -1.54949,1.983364 -0.64213,0.13545 -1.296007,-0.442279 -1.735427,-0.929706 -0.32882,-0.364742 -0.59621,-0.873976 -0.55781,-1.363551 z"
             id="path3724"
             inkscape:connector-curvature="0"
             sodipodi:nodetypes="aaaaaaa" />
          <path
             style="fill:none;stroke:#000000;stroke-width:2.6236465;stroke-linecap:butt;stroke-linejoin:miter;stroke-miterlimit:4;stroke-dasharray:none;stroke-opacity:1"
             d="m 75.881389,110.31458 c -0.461246,-0.66195 -0.526856,-1.71821 -0.123979,-2.41722 0.452166,-0.78453 1.5203,-1.36408 2.417208,-1.23959 0.81084,0.11255 1.428548,0.94266 1.797422,1.67345 0.327954,0.64973 0.585677,1.52461 0.247917,2.16929 -0.304557,0.58131 -1.079795,0.90119 -1.735433,0.9297 -0.943151,0.041 -2.063427,-0.34108 -2.603135,-1.11563 z"
             id="path3726"
             inkscape:connector-curvature="0"
             sodipodi:nodetypes="aaaaaaa" />
          <path
             style="fill:none;stroke:#000000;stroke-width:2.6236465;stroke-linecap:butt;stroke-linejoin:miter;stroke-miterlimit:4;stroke-dasharray:none;stroke-opacity:1"
             d="m 57.284364,117.42337 c -1.04766,0.72325 -1.102267,2.38448 -2.073923,3.20702 -0.907611,0.76832 -2.100211,1.22774 -3.274346,1.41614 -1.045736,0.16779 -2.173423,0.088 -3.164476,-0.28559 -0.839341,-0.31636 -1.618386,-0.88228 -2.172943,-1.5873 -0.720852,-0.91642 -1.224558,-2.07081 -1.339937,-3.23105 -0.105145,-1.05732 0.240899,-2.13361 0.617275,-3.12725 0.408843,-1.07935 1.567558,-1.84881 1.748329,-2.98876 0.119904,-0.75608 -0.473389,-1.47847 -0.489421,-2.24384 -0.02634,-1.25659 0.959891,-2.49675 0.648432,-3.71441 -0.233962,-0.9146 -1.404684,-1.34163 -1.766839,-2.21345 -0.51339,-1.23589 -0.683683,-2.670172 -0.455772,-3.988882 0.164537,-0.951838 0.61615,-1.896513 1.276358,-2.601619 0.845959,-0.903481 2.00492,-1.609799 3.218914,-1.850889 1.253262,-0.248928 2.663227,-0.08546 3.801004,0.495997 1.061605,0.542528 1.802997,1.603518 2.452735,2.603112 0.35194,0.541444 0.259192,1.365999 0.749224,1.786569 0.70199,0.6025 1.76748,0.6838 2.692512,0.67274 1.074244,-0.0129 2.033021,-0.84169 3.107245,-0.85582 0.971154,-0.0128 1.986548,0.21537 2.828477,0.69957 1.082,0.622262 2.131274,1.534982 2.605161,2.689702 0.397647,0.96894 0.374121,2.15286 0.02963,3.14194 -0.384702,1.10454 -1.513681,1.78598 -2.205595,2.72899 -0.37252,0.50769 -1.235174,0.97325 -1.045205,1.57361 0.396391,1.25277 2.623121,0.64107 3.6729,1.43132 1.192319,0.89754 2.373424,2.10667 2.716076,3.55919 0.333063,1.41186 -0.0662,3.03265 -0.81553,4.27474 -0.731489,1.21252 -2.002037,2.13277 -3.320179,2.65024 -1.195579,0.46936 -2.59309,0.58456 -3.842536,0.2869 -1.108822,-0.26416 -2.207885,-0.88202 -2.928993,-1.76479 -0.72075,-0.88233 -0.149285,-2.6656 -1.144224,-3.22066 -0.632518,-0.35286 -1.528305,0.0451 -2.124358,0.45653 z"
             id="path3728"
             inkscape:connector-curvature="0"
             sodipodi:nodetypes="aaaaaaaaaaaaaaaaaaaaaaaaaaaaaaaa" />
          <path
             style="fill:none;stroke:#000000;stroke-width:2.6236465;stroke-linecap:butt;stroke-linejoin:miter;stroke-miterlimit:4;stroke-dasharray:none;stroke-opacity:1"
             d="m 68.858705,52.833615 c 0.684792,0.919727 2.311168,0.260311 3.365877,0.710235 0.928239,0.395974 1.867083,0.920678 2.501337,1.705629 0.833694,1.031777 1.507794,2.358883 1.501518,3.685374 -0.0062,1.316799 -0.654034,2.656617 -1.525067,3.644193 -0.745633,0.845407 -1.847724,1.376886 -2.932035,1.685017 -1.041204,0.295881 -2.193032,0.356821 -3.245608,0.104359 -1.073833,-0.257566 -1.79967,-1.542398 -2.902618,-1.596857 -1.127573,-0.05568 -2.037008,0.993108 -3.113818,1.332243 -1.125553,0.354485 -2.412964,0.190082 -3.465373,0.723921 -0.803337,0.407499 -1.228908,1.356612 -2.008417,1.808013 -0.996799,0.577233 -2.132562,1.032811 -3.283597,1.076721 -0.991812,0.03784 -2.072743,-0.148972 -2.891841,-0.709513 -0.976832,-0.668486 -1.659124,-1.786742 -2.037517,-2.908301 -0.377237,-1.11814 -0.483431,-2.408315 -0.14035,-3.537401 0.24462,-0.804889 1.645259,-1.213711 1.486107,-2.039758 -0.248637,-1.290487 -2.544991,-1.04898 -3.339434,-2.0959 -0.720697,-0.949713 -1.004414,-2.237215 -1.015704,-3.429366 -0.01118,-1.180454 0.326895,-2.406109 0.941262,-3.414152 0.769952,-1.263318 1.852643,-2.560293 3.262281,-3.009432 1.253122,-0.39927 2.639583,0.176378 3.913201,0.504453 0.965422,0.248682 1.785616,1.060901 2.781852,1.098295 1.399699,0.05254 2.751507,-0.637333 4.013151,-1.245751 1.171193,-0.564798 1.936314,-2.018552 3.224532,-2.195125 1.299868,-0.178171 2.74752,0.387874 3.729695,1.257778 0.861457,0.762985 1.282237,1.982265 1.490265,3.114066 0.225604,1.227469 -1.055034,2.730227 -0.309699,3.731259 z"
             id="path3730"
             inkscape:connector-curvature="0"
             sodipodi:nodetypes="aaaaaaaaaaaaaaaaaaaaaaaaaaa" />
        </g>
      </g>
    </g>
  </g>
</svg>
