<?xml version="1.0" encoding="UTF-8" standalone="no"?>
<!-- Created with Inkscape (http://www.inkscape.org/) -->

<svg
   xmlns:dc="http://purl.org/dc/elements/1.1/"
   xmlns:cc="http://creativecommons.org/ns#"
   xmlns:rdf="http://www.w3.org/1999/02/22-rdf-syntax-ns#"
   xmlns:svg="http://www.w3.org/2000/svg"
   xmlns="http://www.w3.org/2000/svg"
   xmlns:sodipodi="http://sodipodi.sourceforge.net/DTD/sodipodi-0.dtd"
   xmlns:inkscape="http://www.inkscape.org/namespaces/inkscape"
   width="100"
   height="100"
   viewBox="0 0 26.458333 26.458334"
   version="1.1"
   id="svg8"
   inkscape:version="0.92.4 (unknown)"
   sodipodi:docname="Pritomnost hub.svg">
  <defs
     id="defs2" />
  <sodipodi:namedview
     id="base"
     pagecolor="#ffffff"
     bordercolor="#666666"
     borderopacity="1.0"
     inkscape:pageopacity="0.0"
     inkscape:pageshadow="2"
     inkscape:zoom="2.8"
     inkscape:cx="29.951804"
     inkscape:cy="19.320467"
     inkscape:document-units="mm"
     inkscape:current-layer="layer1"
     showgrid="false"
     units="px"
     inkscape:window-width="1366"
     inkscape:window-height="713"
     inkscape:window-x="0"
     inkscape:window-y="27"
     inkscape:window-maximized="1" />
  <metadata
     id="metadata5">
    <rdf:RDF>
      <cc:Work
         rdf:about="">
        <dc:format>image/svg+xml</dc:format>
        <dc:type
           rdf:resource="http://purl.org/dc/dcmitype/StillImage" />
        <dc:title />
      </cc:Work>
    </rdf:RDF>
  </metadata>
  <g
     inkscape:label="Vrstva 1"
     inkscape:groupmode="layer"
     id="layer1"
     transform="translate(0,-270.54165)">
    <rect
       style="opacity:1;fill:#ffffff;fill-opacity:1;stroke:#000000;stroke-width:1.21;stroke-linecap:square;stroke-linejoin:round;stroke-miterlimit:4;stroke-dasharray:none;stroke-dashoffset:2.26771665;stroke-opacity:0.99038463;paint-order:stroke fill markers"
       id="rect8267"
       width="25.702381"
       height="25.702381"
       x="0.47247022"
       y="270.91962" />
    <g
       style="stroke-width:8.64683056;stroke-miterlimit:4;stroke-dasharray:none"
       id="g1618"
       transform="matrix(0.08147351,0,0,0.08147351,20.964581,273.10262)">
      <path
         sodipodi:nodetypes="caaaaaaaaaaaasaaaaaaaaaaaacaaaac"
         inkscape:connector-curvature="0"
         id="path1606"
         d="m -129.45649,122.80576 c 0,0 -3.88872,12.13805 -5.46867,18.30811 -1.68896,6.59582 -3.58941,13.19894 -4.27982,19.97248 -0.6751,6.62339 -0.84062,13.3902 0.15861,19.97249 0.79525,5.23874 1.85827,10.68089 4.59682,15.2171 2.56825,4.25411 6.4322,7.78725 10.62029,10.46179 4.94621,3.15868 10.70333,5.17608 16.48523,6.18194 7.28849,1.26797 14.857733,0.65443 22.191638,-0.31702 6.161468,-0.81613 12.58262,-1.67882 18.070345,-4.59683 4.625856,-2.45971 8.805374,-6.1148 11.729864,-10.46177 3.694138,-5.49097 5.722131,-12.15287 6.657482,-18.70438 1.024838,-7.17825 -0.148611,-14.55201 -1.26809,-21.71611 -1.179196,-7.54629 -3.739864,-14.8113 -5.706412,-22.19164 -1.101607,-4.13428 -4.161518,-12.1722 -3.412802,-12.37354 0.968557,-0.26045 10.941554,-1.03951 16.410756,-1.57549 5.813237,-0.56972 11.6644,-0.84728 17.436296,-1.74364 5.550148,-0.86193 11.239419,-1.48011 16.4852254,-3.48726 1.8791147,-0.71899 4.3661929,-1.19503 5.2308768,-3.01173 2.85218401,-5.99234 -0.6678188,-13.508825 -3.1702212,-19.655446 -4.361207,-10.712306 -11.573285,-20.422078 -19.972487,-28.373602 -8.687598,-8.224545 -19.274206,-14.71202 -30.434259,-19.021409 -12.220763,-4.718977 -25.577998,-6.785018 -38.676851,-6.974517 -8.868961,-0.128308 -17.736821,1.698948 -26.312951,3.962794 -7.55212,1.993537 -15.09749,4.517934 -21.87462,8.401123 -9.03562,5.17727 -17.48388,11.72108 -24.41083,19.496942 -5.30504,5.955192 -9.79897,12.852964 -12.68093,20.289504 -2.60087,6.711212 -6.80505,16.490401 -3.88354,21.240571 4.1362,6.12963 12.94623,5.20348 19.73472,6.65749 10.1739,2.17912 20.6829,2.37936 31.06829,3.01173 6.33073,0.38549 12.67927,0.41288 19.02141,0.47554 10.09156,0.0997 20.183921,-0.22557 30.275758,-0.15852 8.692969,0.0578 26.075047,0.48301 26.075047,0.48301"
         style="fill:none;stroke:#000000;stroke-width:8.64683056;stroke-linecap:butt;stroke-linejoin:miter;stroke-miterlimit:4;stroke-dasharray:none;stroke-opacity:1" />
      <path
         sodipodi:nodetypes="caaaac"
         inkscape:connector-curvature="0"
         id="path1608"
         d="m -171.49305,76.686525 c 0,0 7.82344,5.960329 12.47343,7.050196 6.52167,1.528553 13.64502,0.823353 20.06594,-1.084645 7.10365,-2.110873 14.71208,-5.260777 19.25246,-11.117617 3.50683,-4.523621 4.11087,-10.838901 4.60974,-16.540843 0.32453,-3.709297 -1.08464,-11.117617 -1.08464,-11.117617"
         style="fill:none;stroke:#000000;stroke-width:8.64683056;stroke-linecap:round;stroke-linejoin:miter;stroke-miterlimit:4;stroke-dasharray:none;stroke-opacity:1" />
      <path
         sodipodi:nodetypes="caaac"
         inkscape:connector-curvature="0"
         id="path1610"
         d="m -43.369293,53.680341 c 0,0 -1.629493,7.570191 -0.542323,11.117617 1.191818,3.888891 3.981197,7.440765 7.321356,9.761809 3.405499,2.366448 7.785281,3.623486 11.9311,3.525097 2.200451,-0.05222 6.236712,-2.169291 6.236712,-2.169291"
         style="fill:none;stroke:#000000;stroke-width:8.64683056;stroke-linecap:butt;stroke-linejoin:miter;stroke-miterlimit:4;stroke-dasharray:none;stroke-opacity:1" />
      <path
         sodipodi:nodetypes="aaaaaaa"
         inkscape:connector-curvature="0"
         id="path1612"
         d="m -71.434496,81.20322 c -1.338959,-2.238897 -2.988203,-5.222454 -1.898128,-7.592518 1.182353,-2.570696 4.815352,-4.338279 7.592518,-3.79626 2.9543,0.57659 5.303743,3.84265 5.96555,6.779035 0.434035,1.925778 -0.195602,4.334903 -1.626968,5.694388 -1.748766,1.660945 -4.716667,2.236526 -7.050196,1.626968 -1.300078,-0.339603 -2.293107,-1.558405 -2.982776,-2.711613 z"
         style="fill:none;stroke:#000000;stroke-width:8.64683056;stroke-linecap:butt;stroke-linejoin:miter;stroke-miterlimit:4;stroke-dasharray:none;stroke-opacity:1" />
      <path
         style="opacity:1;fill:none;fill-opacity:1;stroke:#000000;stroke-width:2.64566922;stroke-linecap:round;stroke-linejoin:round;stroke-miterlimit:4;stroke-dasharray:none;stroke-dashoffset:0;stroke-opacity:0.99038463;paint-order:normal"
         d="m 137.36483,675.73186 c -4.36292,-0.70988 -7.63796,-3.11584 -8.62437,-6.33579 -0.44264,-1.44488 -0.65104,-2.93406 -0.69766,-4.98522 -0.0479,-2.10791 0.053,-3.61066 0.34594,-5.1517 0.27237,-1.43277 1.10108,-4.64862 1.74865,-6.78571 0.31993,-1.05581 0.62221,-2.07032 0.67174,-2.25447 l 0.0901,-0.33482 8.53824,0.0121 c 4.69604,0.007 9.17666,0.0368 9.95694,0.067 l 1.41868,0.0549 0.30156,0.9375 c 0.52771,1.64055 1.87971,6.43511 2.11489,7.5 0.49287,2.23164 0.82132,5.18644 0.73444,6.60714 -0.10737,1.75581 -0.65901,3.89811 -1.36797,5.3125 -0.41279,0.82353 -1.11165,1.73808 -1.89438,2.47904 -1.71363,1.62217 -3.32994,2.23616 -7.23484,2.74832 -1.90988,0.2505 -4.95979,0.31511 -6.10192,0.12928 z"
         id="path1614"
         inkscape:connector-curvature="0"
         transform="matrix(3.2682959,0,0,3.2682959,-554.79529,-1998.6111)" />
      <path
         style="opacity:1;fill:none;fill-opacity:1;stroke:#000000;stroke-width:2.64566922;stroke-linecap:round;stroke-linejoin:round;stroke-miterlimit:4;stroke-dasharray:none;stroke-dashoffset:0;stroke-opacity:0.99038463;paint-order:normal"
         d="m 139.04711,647.91508 c -7.49205,-0.0435 -10.2562,-0.09 -12.00893,-0.20222 -4.177,-0.26739 -5.35255,-0.39174 -7.36607,-0.77921 -0.49107,-0.0945 -1.41518,-0.23464 -2.05357,-0.31144 -2.05352,-0.24702 -2.78156,-0.48688 -3.39943,-1.11999 -0.34883,-0.35743 -0.35053,-0.36263 -0.34153,-1.04668 0.0103,-0.78075 0.20283,-1.55034 0.80037,-3.19877 0.75721,-2.08893 1.7182,-4.10739 2.34191,-4.91894 l 0.15225,-0.19811 0.75893,0.49908 c 1.05686,0.69499 2.42891,1.34734 3.16964,1.50703 0.94365,0.20343 2.6538,0.26489 3.76883,0.13543 2.53411,-0.2942 5.70864,-1.45696 7.40084,-2.71075 0.69326,-0.51365 1.48451,-1.32305 1.89138,-1.93476 1.06222,-1.59699 1.60174,-5.01981 1.20573,-7.64948 l -0.16344,-1.08538 0.3144,-0.0557 c 2.55234,-0.45233 4.67534,-0.57961 6.92155,-0.41496 4.62869,0.33929 8.2157,1.25639 11.81626,3.0211 l 1.19126,0.58386 -0.0538,0.27717 c -0.0296,0.15244 -0.0788,0.8449 -0.10945,1.53879 -0.0497,1.12579 -0.0355,1.32765 0.13198,1.875 0.52883,1.72858 2.18284,3.45048 3.9876,4.15127 0.71335,0.27699 1.97868,0.52751 2.62373,0.51946 0.44152,-0.006 1.37224,-0.23489 1.88951,-0.46568 l 0.31638,-0.14116 0.5748,0.86403 c 1.16759,1.7551 2.63722,4.98233 3.04283,6.68188 0.2116,0.88662 0.19545,1.76044 -0.0391,2.11846 -0.16689,0.25471 -1.2828,0.68086 -2.60413,0.99449 -1.05457,0.25031 -4.09061,0.70164 -5.66964,0.84284 -0.61384,0.0549 -2.64286,0.23865 -4.50893,0.40835 -2.47443,0.22503 -3.77956,0.30354 -4.82143,0.29002 -0.78571,-0.0102 -5.80803,-0.044 -11.16071,-0.075 z m 11.63713,-9.92482 c 0.63207,-0.23648 1.27287,-0.83213 1.54405,-1.43524 0.16682,-0.371 0.20922,-0.6196 0.20887,-1.22444 -3.6e-4,-0.66721 -0.0349,-0.83217 -0.28588,-1.36496 -0.70922,-1.50584 -2.07997,-2.32291 -3.41624,-2.03633 -1.84788,0.3963 -2.87807,1.91948 -2.36764,3.50066 0.33487,1.03733 1.16702,2.23712 1.76672,2.54723 0.64804,0.33512 1.67532,0.34039 2.55012,0.0131 z"
         id="path1616"
         inkscape:connector-curvature="0"
         transform="matrix(3.2682959,0,0,3.2682959,-554.79529,-1998.6111)" />
    </g>
  </g>
</svg>
