<?xml version="1.0" encoding="UTF-8" standalone="no"?>
<!-- Created with Inkscape (http://www.inkscape.org/) -->

<svg
   xmlns:dc="http://purl.org/dc/elements/1.1/"
   xmlns:cc="http://creativecommons.org/ns#"
   xmlns:rdf="http://www.w3.org/1999/02/22-rdf-syntax-ns#"
   xmlns:svg="http://www.w3.org/2000/svg"
   xmlns="http://www.w3.org/2000/svg"
   xmlns:sodipodi="http://sodipodi.sourceforge.net/DTD/sodipodi-0.dtd"
   xmlns:inkscape="http://www.inkscape.org/namespaces/inkscape"
   width="100"
   height="100"
   viewBox="0 0 26.458333 26.458334"
   version="1.1"
   id="svg8"
   inkscape:version="0.92.4 (5da689c313, 2019-01-14)"
   sodipodi:docname="Srazky.svg">
  <defs
     id="defs2" />
  <sodipodi:namedview
     id="base"
     pagecolor="#ffffff"
     bordercolor="#666666"
     borderopacity="1.0"
     inkscape:pageopacity="0.0"
     inkscape:pageshadow="2"
     inkscape:zoom="5.6"
     inkscape:cx="56.841062"
     inkscape:cy="41.08567"
     inkscape:document-units="mm"
     inkscape:current-layer="layer1"
     showgrid="false"
     units="px"
     inkscape:window-width="1920"
     inkscape:window-height="986"
     inkscape:window-x="-11"
     inkscape:window-y="-11"
     inkscape:window-maximized="1" />
  <metadata
     id="metadata5">
    <rdf:RDF>
      <cc:Work
         rdf:about="">
        <dc:format>image/svg+xml</dc:format>
        <dc:type
           rdf:resource="http://purl.org/dc/dcmitype/StillImage" />
        <dc:title></dc:title>
      </cc:Work>
    </rdf:RDF>
  </metadata>
  <g
     inkscape:label="Vrstva 1"
     inkscape:groupmode="layer"
     id="layer1"
     transform="translate(0,-270.54165)">
    <g
       transform="matrix(0.19030342,0,0,0.19030342,-36.871844,301.1875)"
       id="g3698">
      <g
         id="g3678"
         transform="matrix(0.65660169,0,0,0.65660169,214.89239,-253.56077)"
         style="stroke-width:5.5941143;stroke-miterlimit:4;stroke-dasharray:none">
        <g
           id="g3676"
           style="stroke-width:5.5941143;stroke-miterlimit:4;stroke-dasharray:none">
          <path
             style="fill:none;stroke:#000000;stroke-width:5.5941143;stroke-linecap:butt;stroke-linejoin:miter;stroke-miterlimit:4;stroke-dasharray:none;stroke-opacity:1"
             d="m 39.011122,267.71072 c 0.63174,-0.0352 4.217863,5.3987 5.161449,7.80081 0.660772,1.68215 1.254596,3.95858 0.645181,5.66002 -0.522105,1.45767 -1.999129,2.71428 -3.460517,3.2259 -1.652635,0.57856 -3.839276,0.24019 -5.366734,-0.61586 -1.361208,-0.76287 -2.514779,-2.16999 -2.844662,-3.69513 -0.301754,-1.39509 0.660395,-3.99794 1.290362,-5.27875 1.208812,-2.45769 3.811683,-7.05449 4.574921,-7.09699 z"
             id="path3664"
             inkscape:connector-curvature="0"
             sodipodi:nodetypes="ssssssss" />
          <path
             sodipodi:nodetypes="ssssssss"
             inkscape:connector-curvature="0"
             id="path3666"
             d="m 72.677847,267.4761 c 0.63174,-0.0352 4.217864,5.39871 5.161448,7.80082 0.660776,1.68215 1.254597,3.95858 0.645181,5.66002 -0.522106,1.45767 -1.999126,2.71428 -3.460516,3.2259 -1.652636,0.57856 -3.839273,0.24019 -5.366736,-0.61586 -1.361208,-0.76288 -2.514778,-2.16999 -2.844658,-3.69513 -0.301756,-1.39509 0.660396,-3.99794 1.290362,-5.27875 1.208809,-2.45769 3.81168,-7.05449 4.574919,-7.097 z"
             style="fill:none;stroke:#000000;stroke-width:5.5941143;stroke-linecap:butt;stroke-linejoin:miter;stroke-miterlimit:4;stroke-dasharray:none;stroke-opacity:1" />
          <path
             style="fill:none;stroke:#000000;stroke-width:5.5941143;stroke-linecap:butt;stroke-linejoin:miter;stroke-miterlimit:4;stroke-dasharray:none;stroke-opacity:1"
             d="m 105.64074,267.3588 c 0.63174,-0.0352 4.21786,5.3987 5.16145,7.80082 0.66077,1.68215 1.25459,3.95858 0.64518,5.66001 -0.52211,1.45767 -1.99913,2.71428 -3.46052,3.2259 -1.65264,0.57857 -3.83927,0.24019 -5.36674,-0.61586 -1.3612,-0.76287 -2.51477,-2.16999 -2.844654,-3.69513 -0.301756,-1.39509 0.660394,-3.99794 1.290364,-5.27875 1.20881,-2.45769 3.81168,-7.05448 4.57492,-7.09699 z"
             id="path3668"
             inkscape:connector-curvature="0"
             sodipodi:nodetypes="ssssssss" />
          <path
             sodipodi:nodetypes="ssssssss"
             inkscape:connector-curvature="0"
             id="path3670"
             d="m 88.74872,284.36812 c 0.63174,-0.0352 4.217864,5.3987 5.161448,7.80082 0.660775,1.68215 1.254596,3.95858 0.645181,5.66001 -0.522106,1.45767 -1.999127,2.71429 -3.460517,3.22591 -1.652636,0.57856 -3.839272,0.24018 -5.366736,-0.61587 -1.361207,-0.76287 -2.514778,-2.16998 -2.844658,-3.69512 -0.301756,-1.39509 0.660396,-3.99794 1.290362,-5.27876 1.20881,-2.45768 3.811681,-7.05448 4.57492,-7.09699 z"
             style="fill:none;stroke:#000000;stroke-width:5.5941143;stroke-linecap:butt;stroke-linejoin:miter;stroke-miterlimit:4;stroke-dasharray:none;stroke-opacity:1" />
          <path
             style="fill:none;stroke:#000000;stroke-width:5.5941143;stroke-linecap:butt;stroke-linejoin:miter;stroke-miterlimit:4;stroke-dasharray:none;stroke-opacity:1"
             d="m 55.668522,284.36812 c 0.63174,-0.0352 4.217864,5.3987 5.161448,7.80082 0.660776,1.68215 1.254597,3.95858 0.645181,5.66001 -0.522106,1.45767 -1.999127,2.71429 -3.460516,3.22591 -1.652637,0.57856 -3.839273,0.24018 -5.366736,-0.61587 -1.361208,-0.76287 -2.514779,-2.16998 -2.844659,-3.69512 -0.301756,-1.39509 0.660397,-3.99794 1.290362,-5.27876 1.20881,-2.45768 3.811681,-7.05448 4.57492,-7.09699 z"
             id="path3672"
             inkscape:connector-curvature="0"
             sodipodi:nodetypes="ssssssss" />
          <path
             style="fill:none;stroke:#000000;stroke-width:5.5941143;stroke-linecap:butt;stroke-linejoin:miter;stroke-miterlimit:4;stroke-dasharray:none;stroke-opacity:1"
             d="m 28.413926,256.63682 c 14.747085,3.88323 30.734421,1.86854 45.866513,1.52498 13.918662,-0.31601 28.519231,2.46403 41.643511,-2.11151 4.44666,-1.55024 8.75594,-4.38147 11.49596,-8.2114 2.85038,-3.98419 4.43673,-9.18251 4.223,-14.07667 -0.17994,-4.12035 -1.92495,-8.33568 -4.57492,-11.49596 -2.86558,-3.4174 -7.12233,-5.70644 -11.37865,-7.03833 -2.84006,-0.88871 -8.30645,-0.44563 -9.38445,-1.17306 -1.53036,-1.03267 -2.87503,-9.10619 -5.98259,-13.13823 -2.949242,-3.82662 -6.725157,-7.31406 -11.144039,-9.26715 -4.658289,-2.05891 -10.060748,-2.57715 -15.132427,-2.1115 -4.432794,0.40698 -8.82538,1.97761 -12.669017,4.223 -2.641339,1.54303 -4.908306,3.74077 -6.803728,6.15854 -1.511394,1.92792 -2.486799,5.99039 -3.401864,6.86239 -1.029348,0.9809 -8.57449,0.0478 -11.783756,1.51994 -3.209267,1.47214 -5.394195,3.66303 -6.921035,6.2172 -1.526839,2.55416 -1.312325,7.74722 -2.021438,8.30858 -1.414237,1.11956 -5.983288,0.72858 -8.653377,2.48354 -2.670088,1.75496 -5.223912,4.70023 -6.451811,7.85948 -1.192237,3.06749 -1.184248,6.63075 -0.533339,9.85871 0.615286,3.0513 2.069948,6.08074 4.223004,8.3287 2.482554,2.59199 5.913689,4.36483 9.384453,5.27875 z"
             id="path3674"
             inkscape:connector-curvature="0"
             sodipodi:nodetypes="ssassssssssasszzszasss" />
        </g>
      </g>
      <circle
         style="opacity:1;fill:#ffffff;fill-opacity:1;stroke:#000000;stroke-width:6.2967515;stroke-linecap:round;stroke-linejoin:round;stroke-miterlimit:4;stroke-dasharray:none;stroke-dashoffset:0;stroke-opacity:0.99038463;paint-order:normal"
         id="circle3680"
         cx="263.41077"
         cy="-91.287498"
         r="65.21376" />
      <g
         style="stroke-width:5.5941143;stroke-miterlimit:4;stroke-dasharray:none"
         transform="matrix(0.65660169,0,0,0.65660169,214.89239,-253.56077)"
         id="g3696">
        <g
           style="stroke-width:5.5941143;stroke-miterlimit:4;stroke-dasharray:none"
           id="g3694">
          <path
             sodipodi:nodetypes="ssssssss"
             inkscape:connector-curvature="0"
             id="path3682"
             d="m 39.011122,267.71072 c 0.63174,-0.0352 4.217863,5.3987 5.161449,7.80081 0.660772,1.68215 1.254596,3.95858 0.645181,5.66002 -0.522105,1.45767 -1.999129,2.71428 -3.460517,3.2259 -1.652635,0.57856 -3.839276,0.24019 -5.366734,-0.61586 -1.361208,-0.76287 -2.514779,-2.16999 -2.844662,-3.69513 -0.301754,-1.39509 0.660395,-3.99794 1.290362,-5.27875 1.208812,-2.45769 3.811683,-7.05449 4.574921,-7.09699 z"
             style="fill:none;stroke:#000000;stroke-width:5.5941143;stroke-linecap:butt;stroke-linejoin:miter;stroke-miterlimit:4;stroke-dasharray:none;stroke-opacity:1" />
          <path
             style="fill:none;stroke:#000000;stroke-width:5.5941143;stroke-linecap:butt;stroke-linejoin:miter;stroke-miterlimit:4;stroke-dasharray:none;stroke-opacity:1"
             d="m 72.677847,267.4761 c 0.63174,-0.0352 4.217864,5.39871 5.161448,7.80082 0.660776,1.68215 1.254597,3.95858 0.645181,5.66002 -0.522106,1.45767 -1.999126,2.71428 -3.460516,3.2259 -1.652636,0.57856 -3.839273,0.24019 -5.366736,-0.61586 -1.361208,-0.76288 -2.514778,-2.16999 -2.844658,-3.69513 -0.301756,-1.39509 0.660396,-3.99794 1.290362,-5.27875 1.208809,-2.45769 3.81168,-7.05449 4.574919,-7.097 z"
             id="path3684"
             inkscape:connector-curvature="0"
             sodipodi:nodetypes="ssssssss" />
          <path
             sodipodi:nodetypes="ssssssss"
             inkscape:connector-curvature="0"
             id="path3686"
             d="m 105.64074,267.3588 c 0.63174,-0.0352 4.21786,5.3987 5.16145,7.80082 0.66077,1.68215 1.25459,3.95858 0.64518,5.66001 -0.52211,1.45767 -1.99913,2.71428 -3.46052,3.2259 -1.65264,0.57857 -3.83927,0.24019 -5.36674,-0.61586 -1.3612,-0.76287 -2.51477,-2.16999 -2.844654,-3.69513 -0.301756,-1.39509 0.660394,-3.99794 1.290364,-5.27875 1.20881,-2.45769 3.81168,-7.05448 4.57492,-7.09699 z"
             style="fill:none;stroke:#000000;stroke-width:5.5941143;stroke-linecap:butt;stroke-linejoin:miter;stroke-miterlimit:4;stroke-dasharray:none;stroke-opacity:1" />
          <path
             style="fill:none;stroke:#000000;stroke-width:5.5941143;stroke-linecap:butt;stroke-linejoin:miter;stroke-miterlimit:4;stroke-dasharray:none;stroke-opacity:1"
             d="m 88.74872,284.36812 c 0.63174,-0.0352 4.217864,5.3987 5.161448,7.80082 0.660775,1.68215 1.254596,3.95858 0.645181,5.66001 -0.522106,1.45767 -1.999127,2.71429 -3.460517,3.22591 -1.652636,0.57856 -3.839272,0.24018 -5.366736,-0.61587 -1.361207,-0.76287 -2.514778,-2.16998 -2.844658,-3.69512 -0.301756,-1.39509 0.660396,-3.99794 1.290362,-5.27876 1.20881,-2.45768 3.811681,-7.05448 4.57492,-7.09699 z"
             id="path3688"
             inkscape:connector-curvature="0"
             sodipodi:nodetypes="ssssssss" />
          <path
             sodipodi:nodetypes="ssssssss"
             inkscape:connector-curvature="0"
             id="path3690"
             d="m 55.668522,284.36812 c 0.63174,-0.0352 4.217864,5.3987 5.161448,7.80082 0.660776,1.68215 1.254597,3.95858 0.645181,5.66001 -0.522106,1.45767 -1.999127,2.71429 -3.460516,3.22591 -1.652637,0.57856 -3.839273,0.24018 -5.366736,-0.61587 -1.361208,-0.76287 -2.514779,-2.16998 -2.844659,-3.69512 -0.301756,-1.39509 0.660397,-3.99794 1.290362,-5.27876 1.20881,-2.45768 3.811681,-7.05448 4.57492,-7.09699 z"
             style="fill:none;stroke:#000000;stroke-width:5.5941143;stroke-linecap:butt;stroke-linejoin:miter;stroke-miterlimit:4;stroke-dasharray:none;stroke-opacity:1" />
          <path
             sodipodi:nodetypes="ssassssssssasszzszasss"
             inkscape:connector-curvature="0"
             id="path3692"
             d="m 28.413926,256.63682 c 14.747085,3.88323 30.734421,1.86854 45.866513,1.52498 13.918662,-0.31601 28.519231,2.46403 41.643511,-2.11151 4.44666,-1.55024 8.75594,-4.38147 11.49596,-8.2114 2.85038,-3.98419 4.43673,-9.18251 4.223,-14.07667 -0.17994,-4.12035 -1.92495,-8.33568 -4.57492,-11.49596 -2.86558,-3.4174 -7.12233,-5.70644 -11.37865,-7.03833 -2.84006,-0.88871 -8.30645,-0.44563 -9.38445,-1.17306 -1.53036,-1.03267 -2.87503,-9.10619 -5.98259,-13.13823 -2.949242,-3.82662 -6.725157,-7.31406 -11.144039,-9.26715 -4.658289,-2.05891 -10.060748,-2.57715 -15.132427,-2.1115 -4.432794,0.40698 -8.82538,1.97761 -12.669017,4.223 -2.641339,1.54303 -4.908306,3.74077 -6.803728,6.15854 -1.511394,1.92792 -2.486799,5.99039 -3.401864,6.86239 -1.029348,0.9809 -8.57449,0.0478 -11.783756,1.51994 -3.209267,1.47214 -5.394195,3.66303 -6.921035,6.2172 -1.526839,2.55416 -1.312325,7.74722 -2.021438,8.30858 -1.414237,1.11956 -5.983288,0.72858 -8.653377,2.48354 -2.670088,1.75496 -5.223912,4.70023 -6.451811,7.85948 -1.192237,3.06749 -1.184248,6.63075 -0.533339,9.85871 0.615286,3.0513 2.069948,6.08074 4.223004,8.3287 2.482554,2.59199 5.913689,4.36483 9.384453,5.27875 z"
             style="fill:none;stroke:#000000;stroke-width:5.5941143;stroke-linecap:butt;stroke-linejoin:miter;stroke-miterlimit:4;stroke-dasharray:none;stroke-opacity:1" />
        </g>
      </g>
    </g>
  </g>
</svg>
