<?xml version="1.0" encoding="UTF-8" standalone="no"?>
<svg
   xmlns:dc="http://purl.org/dc/elements/1.1/"
   xmlns:cc="http://creativecommons.org/ns#"
   xmlns:rdf="http://www.w3.org/1999/02/22-rdf-syntax-ns#"
   xmlns:svg="http://www.w3.org/2000/svg"
   xmlns="http://www.w3.org/2000/svg"
   xmlns:sodipodi="http://sodipodi.sourceforge.net/DTD/sodipodi-0.dtd"
   xmlns:inkscape="http://www.inkscape.org/namespaces/inkscape"
   width="100"
   height="100"
   version="1.1"
   id="svg72"
   sodipodi:docname="drop.svg"
   inkscape:version="0.92.3 (unknown)">
  <metadata
     id="metadata78">
    <rdf:RDF>
      <cc:Work
         rdf:about="">
        <dc:format>image/svg+xml</dc:format>
        <dc:type
           rdf:resource="http://purl.org/dc/dcmitype/StillImage" />
      </cc:Work>
    </rdf:RDF>
  </metadata>
  <defs
     id="defs76" />
  <sodipodi:namedview
     pagecolor="#ffffff"
     bordercolor="#666666"
     borderopacity="1"
     objecttolerance="10"
     gridtolerance="10"
     guidetolerance="10"
     inkscape:pageopacity="0"
     inkscape:pageshadow="2"
     inkscape:window-width="1366"
     inkscape:window-height="713"
     id="namedview74"
     showgrid="false"
     inkscape:zoom="2.9555556"
     inkscape:cx="90"
     inkscape:cy="90"
     inkscape:window-x="0"
     inkscape:window-y="27"
     inkscape:window-maximized="1"
     inkscape:current-layer="svg72" />
  <g
     id="g70"
     transform="matrix(0.35519029,0,0,0.35519029,0.6323118,0.22578075)">
    <path
       style="fill:#3caed6"
       d="M 245.023,175.017 C 245.023,119.012 148.764,9.626 140.888,0.875 v 0 0 0 c 0,0 -105.885,116.386 -105.885,174.142 0,57.756 47.255,105.01 105.01,105.01 3.5,0 7.876,0 11.376,-0.875 0.875,0 1.75,0 2.625,-0.875 2.625,0 5.251,-0.875 7.876,-0.875 0.875,0 1.75,-0.875 3.5,-0.875 2.625,-0.875 5.251,-0.875 7.876,-1.75 0.875,0 1.75,-0.875 2.625,-0.875 2.625,-0.875 5.251,-1.75 7.876,-2.625 0.875,0 1.75,-0.875 1.75,-0.875 2.625,-0.875 5.251,-2.625 7.876,-4.375 0.875,0 0.875,-0.875 1.75,-0.875 2.625,-1.75 5.251,-3.5 7.876,-5.251 0,0 0.875,0 0.875,-0.875 2.625,-1.75 5.251,-4.375 7.876,-6.126 v 0 c 20.127,-20.127 33.253,-47.255 33.253,-77.883 z"
       id="path64"
       inkscape:connector-curvature="0" />
    <path
       style="fill:#63bfde"
       d="m 183.768,140.014 c -9.626,0 -17.502,7.876 -17.502,17.502 0,9.626 7.876,17.502 17.502,17.502 9.626,0 17.502,-7.876 17.502,-17.502 0,-9.627 -7.877,-17.502 -17.502,-17.502 z"
       id="path66"
       inkscape:connector-curvature="0" />
    <path
       style="fill:#369dc0"
       d="m 148.764,271.276 c -57.756,0 -105.01,-47.255 -105.01,-105.01 0,-48.13 71.757,-136.513 97.134,-165.391 L 140.014,0 c 0,0 -105.01,117.261 -105.01,175.017 0,57.756 47.255,105.01 105.01,105.01 31.503,0 59.506,-14.001 78.758,-35.003 -19.254,15.751 -42.881,26.252 -70.008,26.252 z"
       id="path68"
       inkscape:connector-curvature="0" />
  </g>
</svg>
