<?xml version="1.0" encoding="UTF-8" standalone="no"?>
<svg
   xmlns:dc="http://purl.org/dc/elements/1.1/"
   xmlns:cc="http://creativecommons.org/ns#"
   xmlns:rdf="http://www.w3.org/1999/02/22-rdf-syntax-ns#"
   xmlns:svg="http://www.w3.org/2000/svg"
   xmlns="http://www.w3.org/2000/svg"
   xmlns:sodipodi="http://sodipodi.sourceforge.net/DTD/sodipodi-0.dtd"
   xmlns:inkscape="http://www.inkscape.org/namespaces/inkscape"
   width="180"
   height="180"
   version="1.1"
   id="Capa_1"
   x="0px"
   y="0px"
   viewBox="0 0 512 512"
   style="enable-background:new 0 0 512 512;"
   xml:space="preserve"
   sodipodi:docname="thermometer.svg"
   inkscape:version="0.92.3 (unknown)"><metadata
   id="metadata19"><rdf:RDF><cc:Work
       rdf:about=""><dc:format>image/svg+xml</dc:format><dc:type
         rdf:resource="http://purl.org/dc/dcmitype/StillImage" /><dc:title></dc:title></cc:Work></rdf:RDF></metadata><defs
   id="defs17" /><sodipodi:namedview
   pagecolor="#ffffff"
   bordercolor="#666666"
   borderopacity="1"
   objecttolerance="10"
   gridtolerance="10"
   guidetolerance="10"
   inkscape:pageopacity="0"
   inkscape:pageshadow="2"
   inkscape:window-width="640"
   inkscape:window-height="480"
   id="namedview15"
   showgrid="false"
   inkscape:zoom="0.4609375"
   inkscape:cx="256"
   inkscape:cy="256"
   inkscape:window-x="0"
   inkscape:window-y="27"
   inkscape:window-maximized="0"
   inkscape:current-layer="Capa_1" />
<g
   id="g4">
	<path
   d="M341.333,288.593V85.333C341.333,38.205,303.128,0,256,0s-85.333,38.205-85.333,85.333v203.259    C144.48,312.03,128,346.091,128,384c0,70.693,57.308,128,128,128s128-57.307,128-128C384,346.091,367.52,312.03,341.333,288.593z     M256,469.333c-47.128,0-85.333-38.205-85.333-85.333c0-24.637,10.441-47.492,28.455-63.615l14.212-12.72V85.333    c0-23.564,19.103-42.667,42.667-42.667s42.667,19.102,42.667,42.667v222.332l14.212,12.72    c18.014,16.123,28.455,38.977,28.455,63.615C341.333,431.128,303.128,469.333,256,469.333z"
   id="path2" />
</g>
<g
   id="g8">
		<rect
   x="234.667"
   y="170.667"
   width="42.667"
   height="256"
   id="rect6" />
</g>
<g
   id="g12">
		<circle
   cx="256"
   cy="384"
   r="64"
   id="circle10" />
</g>
</svg>