<?xml version="1.0" encoding="UTF-8" standalone="no"?>
<!-- Generator: Adobe Illustrator 19.0.0, SVG Export Plug-In . SVG Version: 6.00 Build 0)  -->

<svg
   xmlns:dc="http://purl.org/dc/elements/1.1/"
   xmlns:cc="http://creativecommons.org/ns#"
   xmlns:rdf="http://www.w3.org/1999/02/22-rdf-syntax-ns#"
   xmlns:svg="http://www.w3.org/2000/svg"
   xmlns="http://www.w3.org/2000/svg"
   xmlns:sodipodi="http://sodipodi.sourceforge.net/DTD/sodipodi-0.dtd"
   xmlns:inkscape="http://www.inkscape.org/namespaces/inkscape"
   version="1.1"
   id="Capa_1"
   x="0px"
   y="0px"
   viewBox="0 0 100 100"
   xml:space="preserve"
   sodipodi:docname="vgi_drytree.svg"
   width="100"
   height="100"
   inkscape:version="0.92.4 (unknown)"><metadata
   id="metadata43"><rdf:RDF><cc:Work
       rdf:about=""><dc:format>image/svg+xml</dc:format><dc:type
         rdf:resource="http://purl.org/dc/dcmitype/StillImage" /><dc:title></dc:title></cc:Work></rdf:RDF></metadata><defs
   id="defs41" /><sodipodi:namedview
   pagecolor="#ffffff"
   bordercolor="#666666"
   borderopacity="1"
   objecttolerance="10"
   gridtolerance="10"
   guidetolerance="10"
   inkscape:pageopacity="0"
   inkscape:pageshadow="2"
   inkscape:window-width="1920"
   inkscape:window-height="1025"
   id="namedview39"
   showgrid="false"
   inkscape:zoom="3.6875"
   inkscape:cx="69.64641"
   inkscape:cy="91.449379"
   inkscape:window-x="0"
   inkscape:window-y="27"
   inkscape:window-maximized="1"
   inkscape:current-layer="Capa_1" />
<g
   id="g858"
   transform="matrix(0.19705542,0,0,0.19705542,-0.44617703,80.741138)"><path
     inkscape:connector-curvature="0"
     id="path2"
     d="m 449.61153,-249.73776 -48.22423,2.6216 c -2.06286,0.11236 -3.86863,1.42315 -4.61259,3.35038 l -20.60535,53.32268 c -4.93751,12.777 -15.09696,22.83522 -27.92153,27.6452 l -9.76368,3.66112 c -29.40946,11.02893 -60.78259,-10.71211 -60.78259,-42.12269 v 0 c 0,-6.20883 1.30878,-16.1962 2.90805,-22.19551 l 20.34825,-76.32896 c 2.27846,-8.54702 8.61382,-15.42593 16.94422,-18.39977 l 30.30729,-10.81839 c 2.92525,-1.04358 4.30994,-4.38384 2.98092,-7.19168 l -11.32853,-23.94054 c -1.25918,-2.66108 -4.46077,-3.76741 -7.09552,-2.45054 l -26.76054,13.38027 c -2.5558,1.27739 -5.66427,0.27734 -6.9943,-2.25114 l -28.03388,-53.26498 c -0.90794,-1.7258 -2.6965,-2.80582 -4.646,-2.80582 h -18.55058 c -4.04779,0 -6.57323,4.38688 -4.54073,7.88706 l 28.25657,48.6696 c 3.49512,6.01955 4.52048,13.15961 2.85946,19.91908 l -26.21091,106.69394 c -2.28757,9.31224 -8.46806,17.1912 -16.96649,21.63172 v 0 c -12.69298,6.63193 -28.20089,4.43242 -38.54962,-5.46588 l -80.20063,-76.71461 c -0.21864,-0.20953 -29.056206,-39.35331 -29.056206,-39.35331 -3.25827,-4.42838 -10.268765,-1.50514 -9.417505,3.92632 l 2.452559,15.63646 c 1.777423,11.32753 6.762506,21.91007 14.36615,30.49353 l 6.066113,6.84652 c 2.327047,2.62564 1.38064,6.7625 -1.856374,8.11683 l -34.908742,14.59794 c -2.647915,1.10735 -3.917213,4.13686 -2.847318,6.80097 l 2.809866,6.99734 c 1.014224,2.52442 3.788664,3.85749 6.393053,3.07 l 48.505624,-14.66678 c 1.91305,-0.57897 3.98806,0.009 5.31303,1.50514 l 35.59502,40.18028 c 14.63438,16.5191 25.49731,36.0252 31.83469,57.16499 l 5.43855,18.13862 c 11.05322,36.86735 13.0098,75.86436 5.69969,113.65281 L 179.26616,89.27322 c -0.62757,3.24005 1.85536,6.24831 5.15614,6.24831 h 139.99734 c 3.39087,0 5.89201,-3.16515 5.10958,-6.46391 L 317.52453,38.49824 c -5.43348,-22.88178 -8.17857,-46.32028 -8.17857,-69.83772 v -53.39657 c 0,-17.08188 10.24548,-32.49566 25.99531,-39.10836 l 47.95903,-20.13771 c 9.30516,-3.90709 16.3693,-11.77796 19.25204,-21.45054 l 13.94811,-46.80411 c 0.51724,-1.73694 1.89484,-3.08417 3.64088,-3.56396 l 27.18465,-7.46598 c 1.83714,-0.50408 3.25625,-1.96367 3.7087,-3.81397 l 3.96175,-16.16685 c 0.84013,-3.42022 -1.86548,-6.68153 -5.3849,-6.49023 z"
     style="fill:#93511b;stroke:#000000;stroke-width:6.07319784;stroke-miterlimit:4;stroke-dasharray:none;stroke-opacity:1" /></g>


<g
   id="g8"
   transform="translate(0,-412)">
</g>
<g
   id="g10"
   transform="translate(0,-412)">
</g>
<g
   id="g12"
   transform="translate(0,-412)">
</g>
<g
   id="g14"
   transform="translate(0,-412)">
</g>
<g
   id="g16"
   transform="translate(0,-412)">
</g>
<g
   id="g18"
   transform="translate(0,-412)">
</g>
<g
   id="g20"
   transform="translate(0,-412)">
</g>
<g
   id="g22"
   transform="translate(0,-412)">
</g>
<g
   id="g24"
   transform="translate(0,-412)">
</g>
<g
   id="g26"
   transform="translate(0,-412)">
</g>
<g
   id="g28"
   transform="translate(0,-412)">
</g>
<g
   id="g30"
   transform="translate(0,-412)">
</g>
<g
   id="g32"
   transform="translate(0,-412)">
</g>
<g
   id="g34"
   transform="translate(0,-412)">
</g>
<g
   id="g36"
   transform="translate(0,-412)">
</g>
</svg>