<?xml version="1.0" encoding="UTF-8" standalone="no"?>
<svg
   xmlns:dc="http://purl.org/dc/elements/1.1/"
   xmlns:cc="http://creativecommons.org/ns#"
   xmlns:rdf="http://www.w3.org/1999/02/22-rdf-syntax-ns#"
   xmlns:svg="http://www.w3.org/2000/svg"
   xmlns="http://www.w3.org/2000/svg"
   xmlns:sodipodi="http://sodipodi.sourceforge.net/DTD/sodipodi-0.dtd"
   xmlns:inkscape="http://www.inkscape.org/namespaces/inkscape"
   id="Layer_1"
   data-name="Layer 1"
   viewBox="0 0 100 100"
   width="100"
   height="100"
   version="1.1"
   sodipodi:docname="vgi_mushroom.svg"
   inkscape:version="0.92.4 (unknown)">
  <metadata
     id="metadata11">
    <rdf:RDF>
      <cc:Work
         rdf:about="">
        <dc:format>image/svg+xml</dc:format>
        <dc:type
           rdf:resource="http://purl.org/dc/dcmitype/StillImage" />
        <dc:title>Mushroom</dc:title>
      </cc:Work>
    </rdf:RDF>
  </metadata>
  <defs
     id="defs9" />
  <sodipodi:namedview
     pagecolor="#ffffff"
     bordercolor="#666666"
     borderopacity="1"
     objecttolerance="10"
     gridtolerance="10"
     guidetolerance="10"
     inkscape:pageopacity="0"
     inkscape:pageshadow="2"
     inkscape:window-width="1366"
     inkscape:window-height="713"
     id="namedview7"
     showgrid="false"
     inkscape:zoom="1.84375"
     inkscape:cx="-114.58838"
     inkscape:cy="30.252902"
     inkscape:window-x="0"
     inkscape:window-y="27"
     inkscape:window-maximized="1"
     inkscape:current-layer="Layer_1" />
  <title
     id="title2">Mushroom</title>
  <path
     style="fill:#8f4f00;fill-opacity:1;stroke:none;stroke-width:4.35276318;stroke-linecap:square;stroke-linejoin:round;stroke-miterlimit:18;stroke-dasharray:4.35276277, 8.70552554000000001;stroke-dashoffset:2.26771665;stroke-opacity:1;paint-order:stroke fill markers"
     d="m 38.823869,96.744953 c -2.914793,-1.323729 -5.987925,-4.332383 -7.464048,-7.307443 -0.930759,-1.875902 -1.10423,-3.390746 -1.048687,-9.157723 0.06344,-6.586116 0.245594,-7.584791 3.88626,-21.305867 2.10084,-7.91772 4.089797,-15.014526 4.419903,-15.770679 l 0.600195,-1.374824 11.215485,0.2816 c 6.168518,0.15488 11.316933,0.384862 11.440923,0.511072 0.123989,0.12621 1.715267,9.428426 3.536172,20.671588 l 3.310738,20.442115 -1.004952,3.455006 c -0.799334,2.748092 -1.613358,4.046573 -3.978506,6.346264 -3.832099,3.726042 -5.889291,4.309779 -15.132883,4.294022 -5.988073,-0.01019 -7.874529,-0.219504 -9.7806,-1.085131 z"
     id="path828"
     inkscape:connector-curvature="0" />
  <path
     d="M 81.700789,14.885646 C 74.703308,8.6764756 63.833575,0.4217734 50.289308,0.4217734 c -7.99949,0 -15.636611,2.1784514 -22.698517,6.4748041 C 21.32048,10.710746 15.761189,16.10441 11.513499,22.494344 10.513536,23.998584 9.3501854,25.78379 8.3029913,27.619919 A 12.396866,12.396866 0 0 0 7.8259092,39.181024 c 1.904635,4.046879 5.8398578,6.951477 10.5288428,7.770665 l 0.01136,0.0023 a 15.471594,15.471594 0 0 0 6.109787,-0.153569 l 7.983954,-1.811594 q 1.615477,-0.366244 3.251409,-0.639435 l -7.012004,26.628625 a 18.772286,18.772286 0 0 0 -0.587091,3.695772 l -0.376881,6.530423 a 17.390948,17.390948 0 0 0 0.13026,3.535032 17.619569,17.619569 0 0 0 17.428577,15.061601 h 7.754096 A 17.665784,17.665784 0 0 0 70.509725,84.49097 l 0.0023,-0.01818 a 17.587874,17.587874 0 0 0 -0.08728,-5.166056 l -5.615124,-34.449396 10.686707,2.08949 a 15.509426,15.509426 0 0 0 5.51656,0.08182 l 1.345956,-0.221869 c 4.762593,-0.784845 8.761627,-3.702932 10.697344,-7.805839 A 12.301778,12.301778 0 0 0 92.550043,27.426746 C 90.170996,23.327306 86.723879,19.342386 81.70138,14.885919 Z M 67.265555,84.05988 c 0,0.0045 -0.0011,0.01182 -0.0023,0.01693 A 14.384111,14.384111 0 0 1 53.047463,96.52869 H 45.293367 A 14.409264,14.409264 0 0 1 31.102709,84.270067 14.179415,14.179415 0 0 1 31.000428,81.393482 l 0.376665,-6.531036 a 15.495724,15.495724 0 0 1 0.48506,-3.051007 L 39.220355,43.86977 a 59.051314,59.051314 0 0 1 7.320778,-0.321252 l 7.644497,0.141909 a 59.054176,59.054176 0 0 1 7.212406,0.582192 l 5.796911,35.564278 a 14.330125,14.330125 0 0 1 0.07012,4.222949 z M 90.096377,37.604402 c -1.476841,3.130559 -4.568544,5.363594 -8.270033,5.973596 l -1.345956,0.221869 A 12.256176,12.256176 0 0 1 76.123497,43.73543 L 64.99488,41.55924 A 62.210906,62.210906 0 0 0 54.246828,40.419198 l -7.644292,-0.14192 q -0.577886,-0.01023 -1.154964,-0.01136 a 62.022161,62.022161 0 0 0 -13.711531,1.532254 l -7.983954,1.811378 a 12.380098,12.380098 0 0 1 -4.815358,0.122691 l -0.0091,-0.0011 C 15.28277,43.097218 12.240763,40.874399 10.787038,37.78781 a 9.1636567,9.1636567 0 0 1 0.357243,-8.546293 c 0.999145,-1.750851 2.124663,-3.477574 3.093954,-4.9358 3.984306,-5.993642 9.189626,-11.047019 15.052588,-14.6139633 6.543718,-3.9800103 13.607454,-5.9981311 20.998579,-5.9981311 5.95356,0 15.461983,1.4138471 29.239985,13.6395594 4.753604,4.21804 7.991716,7.947337 10.190408,11.735742 a 9.0726581,9.0726581 0 0 1 0.376676,8.535463 z"
     id="path4"
     inkscape:connector-curvature="0"
     style="fill:#000000;fill-opacity:1;stroke-width:0.20449114" />
  <path
     style="fill:#8f4f00;fill-opacity:1;stroke:none;stroke-width:4.21000433;stroke-linecap:square;stroke-linejoin:round;stroke-miterlimit:18;stroke-dasharray:4.21000432, 8.42000865;stroke-dashoffset:2.26771665;stroke-opacity:1;paint-order:stroke fill markers"
     d="M 70.675114,42.911775 C 64.091722,41.602036 60.561297,41.244662 51.570582,40.977887 40.046323,40.635934 36.479907,40.951343 27.233133,43.130262 18.142407,45.27241 12.580237,43.684539 9.9191811,38.187531 8.1878253,34.611027 8.6542465,31.792893 11.811806,26.752229 21.213964,11.742809 34.752032,3.4785409 49.937482,3.4785409 c 2.994078,0 6.735225,0.3806778 8.682847,0.8835174 4.493949,1.1602527 11.30667,4.7355029 16.556071,8.6884677 5.404522,4.069776 13.924764,12.971183 15.468881,16.160907 2.62032,5.412863 0.761733,10.946047 -4.514106,13.438888 -4.259781,2.012753 -6.46562,2.050066 -15.456061,0.261454 z"
     id="path822"
     inkscape:connector-curvature="0" />
</svg>
