<?xml version="1.0" encoding="UTF-8" standalone="no"?>
<!-- Created with Inkscape (http://www.inkscape.org/) -->

<svg
   xmlns:dc="http://purl.org/dc/elements/1.1/"
   xmlns:cc="http://creativecommons.org/ns#"
   xmlns:rdf="http://www.w3.org/1999/02/22-rdf-syntax-ns#"
   xmlns:svg="http://www.w3.org/2000/svg"
   xmlns="http://www.w3.org/2000/svg"
   xmlns:sodipodi="http://sodipodi.sourceforge.net/DTD/sodipodi-0.dtd"
   xmlns:inkscape="http://www.inkscape.org/namespaces/inkscape"
   width="100"
   height="100"
   viewBox="0 0 26.458333 26.458334"
   version="1.1"
   id="svg8"
   inkscape:version="0.92.4 (5da689c313, 2019-01-14)"
   sodipodi:docname="Teplota_3.svg">
  <defs
     id="defs2" />
  <sodipodi:namedview
     id="base"
     pagecolor="#ffffff"
     bordercolor="#666666"
     borderopacity="1.0"
     inkscape:pageopacity="0.0"
     inkscape:pageshadow="2"
     inkscape:zoom="5.6"
     inkscape:cx="51.996096"
     inkscape:cy="43.062612"
     inkscape:document-units="mm"
     inkscape:current-layer="layer1"
     showgrid="false"
     units="px"
     inkscape:window-width="1920"
     inkscape:window-height="986"
     inkscape:window-x="-11"
     inkscape:window-y="-11"
     inkscape:window-maximized="1" />
  <metadata
     id="metadata5">
    <rdf:RDF>
      <cc:Work
         rdf:about="">
        <dc:format>image/svg+xml</dc:format>
        <dc:type
           rdf:resource="http://purl.org/dc/dcmitype/StillImage" />
        <dc:title></dc:title>
      </cc:Work>
    </rdf:RDF>
  </metadata>
  <g
     inkscape:label="Vrstva 1"
     inkscape:groupmode="layer"
     id="layer1"
     transform="translate(0,-270.54165)">
    <circle
       style="opacity:1;fill:#ffffff;fill-opacity:1;stroke:#000000;stroke-width:0.20746459;stroke-linecap:round;stroke-linejoin:round;stroke-miterlimit:4;stroke-dasharray:none;stroke-dashoffset:0;stroke-opacity:0.99038463;paint-order:normal"
       id="circle1109-4"
       cx="7.5957351"
       cy="308.25192"
       r="0" />
    <circle
       style="opacity:1;fill:#130d0d;fill-opacity:1;stroke:#000000;stroke-width:0.20746461;stroke-linecap:round;stroke-linejoin:round;stroke-miterlimit:4;stroke-dasharray:none;stroke-dashoffset:0;stroke-opacity:0.99038463;paint-order:normal"
       id="circle1109-4-1"
       cx="7.5957365"
       cy="308.25195"
       r="0" />
    <g
       transform="translate(-167.82143,151.94642)"
       id="g1194">
      <g
         id="g1028"
         transform="matrix(0.19057446,0,0,0.19057446,130.27514,119.8503)"
         style="fill:#ff8c73;fill-opacity:1">
        <g
           transform="matrix(0.93062968,0,0,0.93062968,19.600194,2.3872322)"
           style="fill:#ff8c73;fill-opacity:1;stroke-width:3.94690299;stroke-miterlimit:4;stroke-dasharray:none"
           id="g1024">
          <path
             sodipodi:nodetypes="cssccc"
             inkscape:connector-curvature="0"
             id="path1004-8"
             d="m 237.74332,95.193665 c 0,0 -0.31169,-4.893785 0.26159,-7.365679 0.62081,-2.676839 1.58123,-5.280981 3.13902,-7.544655 1.43207,-2.081003 5.22861,-5.541329 5.22861,-5.541329 v 0 0"
             style="fill:#ff8c73;fill-opacity:1;stroke:#000000;stroke-width:3.94690299;stroke-linecap:round;stroke-linejoin:miter;stroke-miterlimit:4;stroke-dasharray:none;stroke-opacity:1" />
          <path
             sodipodi:nodetypes="ssssscsssssssssss"
             inkscape:connector-curvature="0"
             id="path1006"
             d="m 255.53306,78.620284 c 0.31941,-1.106235 -0.39254,-34.47278 -0.0484,-51.892187 0.0268,-1.358637 1.50768,-2.551002 2.80374,-2.959496 1.11198,-0.35048 2.4274,0.100439 3.42678,0.700935 0.66385,0.398887 1.46179,1.017005 1.47974,1.791271 0.38576,16.63688 0.31153,53.270907 0.31153,53.270907 0,0 4.00892,2.516094 5.52958,4.283472 1.49327,1.735547 2.81276,3.770999 3.3489,5.996873 0.49883,2.070956 0.30954,4.326517 -0.23364,6.386283 -0.57439,2.17812 -1.59465,4.334978 -3.11526,5.996878 -1.20563,1.31766 -2.84293,2.25961 -4.51712,2.8816 -2.04083,0.75821 -4.30768,1.2337 -6.46416,0.93458 -2.59001,-0.35924 -5.17133,-1.50137 -7.16509,-3.19314 -2.08624,-1.77026 -3.81635,-4.208739 -4.51712,-6.853559 -0.71961,-2.715899 -0.40698,-5.767835 0.54516,-8.411199 0.63,-1.749032 1.91204,-3.248594 3.27102,-4.517126 1.48759,-1.388574 4.98152,-3.159555 5.34433,-4.416092 z"
             style="fill:#ff8c73;fill-opacity:1;stroke:#000000;stroke-width:3.94690299;stroke-linecap:butt;stroke-linejoin:miter;stroke-miterlimit:4;stroke-dasharray:none;stroke-opacity:1" />
          <path
             inkscape:connector-curvature="0"
             id="path1008"
             d="m 255.40679,47.444561 7.78814,-0.07788"
             style="fill:#ff8c73;fill-opacity:1;stroke:#000000;stroke-width:3.94690299;stroke-linecap:butt;stroke-linejoin:miter;stroke-miterlimit:4;stroke-dasharray:none;stroke-opacity:1" />
          <g
             style="fill:#ff8c73;fill-opacity:1;stroke-width:3.94690299;stroke-miterlimit:4;stroke-dasharray:none"
             id="g1022">
            <path
               style="fill:#ff8c73;fill-opacity:1;stroke:#000000;stroke-width:3.94690299;stroke-linecap:round;stroke-linejoin:miter;stroke-miterlimit:4;stroke-dasharray:none;stroke-opacity:1"
               d="m 246.37254,74.742002 c 0,0 -0.2499,-34.257037 0.0306,-49.832054 0.0262,-1.455635 0.88005,-2.82206 1.70719,-4.020147 1.37198,-1.98729 3.09133,-3.89316 5.23169,-5.011415 1.97513,-1.031921 4.3267,-1.410012 6.55339,-1.32169 2.27009,0.09004 4.60198,0.709032 6.55339,1.872397 1.9401,1.156623 3.50889,2.949939 4.73606,4.846201 0.65377,1.010226 1.26663,2.157243 1.3217,3.359301 0.76164,16.627626 -0.0956,49.518658 0.22028,50.554712 0.21468,0.704076 4.45351,4.262973 6.00268,6.883817 1.33274,2.254676 2.30002,4.790817 2.69846,7.379445 0.43328,2.815054 0.21784,5.752344 -0.3855,8.535916 -0.57405,2.648485 -1.4965,4.842245 -3.02888,7.077385 -1.47618,2.15316 -3.57049,4.3383 -5.72733,5.80912 -1.96722,1.34151 -4.16778,2.38267 -6.44325,3.08394 -2.32471,0.71645 -4.78166,1.11342 -7.21423,1.10141 -2.39918,-0.0119 -4.85797,-0.31323 -7.1041,-1.15647 -2.14594,-0.80563 -4.239,-2.01678 -6.00268,-3.52452 -2.30163,-1.96762 -4.40498,-4.31596 -5.76189,-7.02297 -1.25593,-2.50556 -2.01682,-8.162715 -2.01682,-8.162715"
               id="path1010"
               inkscape:connector-curvature="0"
               sodipodi:nodetypes="cssssssssssssssssaac" />
            <path
               style="fill:#ff8c73;fill-opacity:1;stroke:#000000;stroke-width:3.94690299;stroke-linecap:round;stroke-linejoin:miter;stroke-miterlimit:4;stroke-dasharray:none;stroke-opacity:1"
               d="m 282.77117,28.79576 12.2033,0.111958"
               id="path1012-9"
               inkscape:connector-curvature="0" />
            <path
               style="fill:#ff8c73;fill-opacity:1;stroke:#000000;stroke-width:3.94690299;stroke-linecap:round;stroke-linejoin:miter;stroke-miterlimit:4;stroke-dasharray:none;stroke-opacity:1"
               d="m 282.63682,39.028621 9.33721,-0.134347"
               id="path1014-4"
               inkscape:connector-curvature="0" />
            <path
               style="fill:#ff8c73;fill-opacity:1;stroke:#000000;stroke-width:3.94690299;stroke-linecap:round;stroke-linejoin:miter;stroke-miterlimit:4;stroke-dasharray:none;stroke-opacity:1"
               d="M 282.59203,49.082352 295.176,49.015172"
               id="path1016-2"
               inkscape:connector-curvature="0" />
            <path
               style="fill:#ff8c73;fill-opacity:1;stroke:#000000;stroke-width:3.94690299;stroke-linecap:round;stroke-linejoin:miter;stroke-miterlimit:4;stroke-dasharray:none;stroke-opacity:1"
               d="m 283.16572,58.92117 9.22525,-0.08956"
               id="path1018-6"
               inkscape:connector-curvature="0" />
            <path
               style="fill:#ff8c73;fill-opacity:1;stroke:#000000;stroke-width:3.94690299;stroke-linecap:round;stroke-linejoin:miter;stroke-miterlimit:4;stroke-dasharray:none;stroke-opacity:1"
               d="m 282.59203,69.122635 12.65114,-0.08956"
               id="path1020-5"
               inkscape:connector-curvature="0" />
          </g>
        </g>
        <circle
           r="65.21376"
           cy="62.831589"
           cx="266.43369"
           id="circle1026"
           style="opacity:1;fill:#ff8c73;fill-opacity:1;stroke:#000000;stroke-width:6.2967515;stroke-linecap:round;stroke-linejoin:round;stroke-miterlimit:4;stroke-dasharray:none;stroke-dashoffset:0;stroke-opacity:0.99038463;paint-order:normal" />
      </g>
      <g
         id="g1050"
         style="stroke-width:3.94690299;stroke-miterlimit:4;stroke-dasharray:none"
         transform="matrix(0.17735425,0,0,0.17735425,134.01044,120.30525)">
        <path
           style="fill:none;stroke:#000000;stroke-width:3.94690299;stroke-linecap:round;stroke-linejoin:miter;stroke-miterlimit:4;stroke-dasharray:none;stroke-opacity:1"
           d="m 237.74332,95.193665 c 0,0 -0.31169,-4.893785 0.26159,-7.365679 0.62081,-2.676839 1.58123,-5.280981 3.13902,-7.544655 1.43207,-2.081003 5.22861,-5.541329 5.22861,-5.541329 v 0 0"
           id="path1030"
           inkscape:connector-curvature="0"
           sodipodi:nodetypes="cssccc" />
        <path
           style="fill:#ffd5d5;fill-opacity:0.00480772;stroke:#000000;stroke-width:3.94690299;stroke-linecap:butt;stroke-linejoin:miter;stroke-miterlimit:4;stroke-dasharray:none;stroke-opacity:1"
           d="m 255.53306,78.620284 c 0.31941,-1.106235 -0.39254,-34.47278 -0.0484,-51.892187 0.0268,-1.358637 1.50768,-2.551002 2.80374,-2.959496 1.11198,-0.35048 2.4274,0.100439 3.42678,0.700935 0.66385,0.398887 1.46179,1.017005 1.47974,1.791271 0.38576,16.63688 0.31153,53.270907 0.31153,53.270907 0,0 4.00892,2.516094 5.52958,4.283472 1.49327,1.735547 2.81276,3.770999 3.3489,5.996873 0.49883,2.070956 0.30954,4.326517 -0.23364,6.386283 -0.57439,2.17812 -1.59465,4.334978 -3.11526,5.996878 -1.20563,1.31766 -2.84293,2.25961 -4.51712,2.8816 -2.04083,0.75821 -4.30768,1.2337 -6.46416,0.93458 -2.59001,-0.35924 -5.17133,-1.50137 -7.16509,-3.19314 -2.08624,-1.77026 -3.81635,-4.208739 -4.51712,-6.853559 -0.71961,-2.715899 -0.40698,-5.767835 0.54516,-8.411199 0.63,-1.749032 1.91204,-3.248594 3.27102,-4.517126 1.48759,-1.388574 4.98152,-3.159555 5.34433,-4.416092 z"
           id="path1032"
           inkscape:connector-curvature="0"
           sodipodi:nodetypes="ssssscsssssssssss" />
        <path
           style="fill:none;stroke:#000000;stroke-width:3.94690299;stroke-linecap:butt;stroke-linejoin:miter;stroke-miterlimit:4;stroke-dasharray:none;stroke-opacity:1"
           d="m 255.40679,47.444561 7.78814,-0.07788"
           id="path1034"
           inkscape:connector-curvature="0" />
        <g
           id="g1048"
           style="stroke-width:3.94690299;stroke-miterlimit:4;stroke-dasharray:none">
          <path
             sodipodi:nodetypes="cssssssssssssssssaac"
             inkscape:connector-curvature="0"
             id="path1036-5"
             d="m 246.37254,74.742002 c 0,0 -0.2499,-34.257037 0.0306,-49.832054 0.0262,-1.455635 0.88005,-2.82206 1.70719,-4.020147 1.37198,-1.98729 3.09133,-3.89316 5.23169,-5.011415 1.97513,-1.031921 4.3267,-1.410012 6.55339,-1.32169 2.27009,0.09004 4.60198,0.709032 6.55339,1.872397 1.9401,1.156623 3.50889,2.949939 4.73606,4.846201 0.65377,1.010226 1.26663,2.157243 1.3217,3.359301 0.76164,16.627626 -0.0956,49.518658 0.22028,50.554712 0.21468,0.704076 4.45351,4.262973 6.00268,6.883817 1.33274,2.254676 2.30002,4.790817 2.69846,7.379445 0.43328,2.815054 0.21784,5.752344 -0.3855,8.535916 -0.57405,2.648485 -1.4965,4.842245 -3.02888,7.077385 -1.47618,2.15316 -3.57049,4.3383 -5.72733,5.80912 -1.96722,1.34151 -4.16778,2.38267 -6.44325,3.08394 -2.32471,0.71645 -4.78166,1.11342 -7.21423,1.10141 -2.39918,-0.0119 -4.85797,-0.31323 -7.1041,-1.15647 -2.14594,-0.80563 -4.239,-2.01678 -6.00268,-3.52452 -2.30163,-1.96762 -4.40498,-4.31596 -5.76189,-7.02297 -1.25593,-2.50556 -2.01682,-8.162715 -2.01682,-8.162715"
             style="fill:none;stroke:#000000;stroke-width:3.94690299;stroke-linecap:round;stroke-linejoin:miter;stroke-miterlimit:4;stroke-dasharray:none;stroke-opacity:1" />
          <path
             inkscape:connector-curvature="0"
             id="path1038-5"
             d="m 282.77117,28.79576 12.2033,0.111958"
             style="fill:none;stroke:#000000;stroke-width:3.94690299;stroke-linecap:round;stroke-linejoin:miter;stroke-miterlimit:4;stroke-dasharray:none;stroke-opacity:1" />
          <path
             inkscape:connector-curvature="0"
             id="path1040-9"
             d="m 282.63682,39.028621 9.33721,-0.134347"
             style="fill:none;stroke:#000000;stroke-width:3.94690299;stroke-linecap:round;stroke-linejoin:miter;stroke-miterlimit:4;stroke-dasharray:none;stroke-opacity:1" />
          <path
             inkscape:connector-curvature="0"
             id="path1042-9"
             d="M 282.59203,49.082352 295.176,49.015172"
             style="fill:none;stroke:#000000;stroke-width:3.94690299;stroke-linecap:round;stroke-linejoin:miter;stroke-miterlimit:4;stroke-dasharray:none;stroke-opacity:1" />
          <path
             inkscape:connector-curvature="0"
             id="path1044"
             d="m 283.16572,58.92117 9.22525,-0.08956"
             style="fill:none;stroke:#000000;stroke-width:3.94690299;stroke-linecap:round;stroke-linejoin:miter;stroke-miterlimit:4;stroke-dasharray:none;stroke-opacity:1" />
          <path
             inkscape:connector-curvature="0"
             id="path1046"
             d="m 282.59203,69.122635 12.65114,-0.08956"
             style="fill:none;stroke:#000000;stroke-width:3.94690299;stroke-linecap:round;stroke-linejoin:miter;stroke-miterlimit:4;stroke-dasharray:none;stroke-opacity:1" />
        </g>
      </g>
    </g>
  </g>
</svg>
