<?xml version="1.0" encoding="UTF-8" standalone="no"?>
<!-- Created with Inkscape (http://www.inkscape.org/) -->

<svg
   xmlns:dc="http://purl.org/dc/elements/1.1/"
   xmlns:cc="http://creativecommons.org/ns#"
   xmlns:rdf="http://www.w3.org/1999/02/22-rdf-syntax-ns#"
   xmlns:svg="http://www.w3.org/2000/svg"
   xmlns="http://www.w3.org/2000/svg"
   xmlns:sodipodi="http://sodipodi.sourceforge.net/DTD/sodipodi-0.dtd"
   xmlns:inkscape="http://www.inkscape.org/namespaces/inkscape"
   width="100"
   height="100"
   viewBox="0 0 26.458333 26.458334"
   version="1.1"
   id="svg8"
   inkscape:version="0.92.4 (unknown)"
   sodipodi:docname="vgi_mushroom_one_or_more.svg">
  <defs
     id="defs2" />
  <sodipodi:namedview
     id="base"
     pagecolor="#ffffff"
     bordercolor="#666666"
     borderopacity="1.0"
     inkscape:pageopacity="0.0"
     inkscape:pageshadow="2"
     inkscape:zoom="3.959798"
     inkscape:cx="-52.033058"
     inkscape:cy="36.943353"
     inkscape:document-units="mm"
     inkscape:current-layer="layer1"
     showgrid="false"
     units="px"
     inkscape:window-width="1920"
     inkscape:window-height="1025"
     inkscape:window-x="0"
     inkscape:window-y="27"
     inkscape:window-maximized="1" />
  <metadata
     id="metadata5">
    <rdf:RDF>
      <cc:Work
         rdf:about="">
        <dc:format>image/svg+xml</dc:format>
        <dc:type
           rdf:resource="http://purl.org/dc/dcmitype/StillImage" />
        <dc:title />
      </cc:Work>
    </rdf:RDF>
  </metadata>
  <g
     inkscape:label="Vrstva 1"
     inkscape:groupmode="layer"
     id="layer1"
     transform="translate(0,-270.54165)">
    <rect
       style="opacity:1;fill:#d38d5f;fill-opacity:1;stroke:#000000;stroke-width:2.10340261;stroke-linecap:square;stroke-linejoin:round;stroke-miterlimit:4;stroke-dasharray:none;stroke-dashoffset:2.26771665;stroke-opacity:0.99038463;paint-order:stroke fill markers"
       id="rect8267"
       width="17.031124"
       height="17.031124"
       x="201.56194"
       y="182.71944"
       transform="rotate(45)" />
    <path
       style="fill:none;stroke:#000000;stroke-width:0.70448762;stroke-linecap:butt;stroke-linejoin:miter;stroke-miterlimit:4;stroke-dasharray:none;stroke-opacity:1"
       d="m 10.417306,283.63721 c 0,0 -0.316827,0.98893 -0.4455514,1.49162 -0.1376055,0.53739 -0.2924418,1.07537 -0.3486919,1.62723 -0.055003,0.53963 -0.068488,1.09095 0.012923,1.62723 0.064792,0.42682 0.1513998,0.87021 0.3745193,1.23979 0.209245,0.3466 0.524054,0.63445 0.865273,0.85236 0.402985,0.25735 0.872037,0.42171 1.343109,0.50366 0.593819,0.10331 1.210512,0.0533 1.808031,-0.0258 0.501996,-0.0665 1.02515,-0.13678 1.472254,-0.37452 0.376885,-0.2004 0.717405,-0.49819 0.955672,-0.85235 0.300975,-0.44737 0.466202,-0.99014 0.542409,-1.52391 0.0835,-0.58484 -0.01211,-1.18561 -0.103316,-1.76929 -0.09607,-0.61482 -0.3047,-1.20673 -0.464921,-1.80803 -0.08975,-0.33684 -0.339054,-0.99171 -0.278053,-1.00812 0.07891,-0.0212 0.891446,-0.0847 1.337042,-0.12836 0.473624,-0.0464 0.950339,-0.069 1.420596,-0.14206 0.452191,-0.0702 0.915715,-0.12059 1.34311,-0.28412 0.153098,-0.0586 0.355729,-0.0974 0.426178,-0.24538 0.232377,-0.48821 -0.05441,-1.10061 -0.25829,-1.60139 -0.355322,-0.87277 -0.942916,-1.66386 -1.627229,-2.3117 -0.707809,-0.67008 -1.570336,-1.19864 -2.479586,-1.54974 -0.995668,-0.38447 -2.083928,-0.5528 -3.151139,-0.56824 -0.722585,-0.0105 -1.445081,0.13842 -2.143808,0.32286 -0.615297,0.16242 -1.230045,0.36809 -1.7822016,0.68447 -0.7361636,0.42181 -1.424473,0.95496 -1.988836,1.58849 -0.4322202,0.48519 -0.7983564,1.04717 -1.0331598,1.65305 -0.211902,0.54679 -0.5544313,1.34353 -0.3164057,1.73055 0.3369908,0.4994 1.0547748,0.42394 1.6078569,0.54241 0.8289034,0.17754 1.6851085,0.19385 2.5312432,0.24537 0.515786,0.0314 1.033025,0.0336 1.54974,0.0387 0.822195,0.008 1.644455,-0.0184 2.466672,-0.0129 0.708247,0.005 2.124426,0.0394 2.124426,0.0394"
       id="path1606"
       inkscape:connector-curvature="0"
       sodipodi:nodetypes="caaaaaaaaaaaasaaaaaaaaaaaacaaaac" />
    <path
       style="fill:none;stroke:#000000;stroke-width:0.70448762;stroke-linecap:round;stroke-linejoin:miter;stroke-miterlimit:4;stroke-dasharray:none;stroke-opacity:1"
       d="m 6.9924403,279.87971 c 0,0 0.6374031,0.48561 1.0162541,0.5744 0.5313433,0.12454 1.1117077,0.0671 1.6348426,-0.0884 0.578759,-0.17198 1.198645,-0.42861 1.568565,-0.90579 0.285714,-0.36855 0.334927,-0.88308 0.375572,-1.34764 0.02644,-0.30221 -0.08837,-0.90579 -0.08837,-0.90579"
       id="path1608"
       inkscape:connector-curvature="0"
       sodipodi:nodetypes="caaaac" />
    <path
       style="fill:none;stroke:#000000;stroke-width:0.70448762;stroke-linecap:butt;stroke-linejoin:miter;stroke-miterlimit:4;stroke-dasharray:none;stroke-opacity:1"
       d="m 17.431132,278.00532 c 0,0 -0.13276,0.61677 -0.04418,0.90579 0.0971,0.31684 0.324362,0.60622 0.596496,0.79533 0.277458,0.1928 0.634294,0.29521 0.972069,0.2872 0.179278,-0.004 0.508126,-0.17674 0.508126,-0.17674"
       id="path1610"
       inkscape:connector-curvature="0"
       sodipodi:nodetypes="caaac" />
    <path
       style="fill:none;stroke:#000000;stroke-width:0.70448762;stroke-linecap:butt;stroke-linejoin:miter;stroke-miterlimit:4;stroke-dasharray:none;stroke-opacity:1"
       d="m 15.144562,280.2477 c -0.10909,-0.18241 -0.24346,-0.42549 -0.154647,-0.61859 0.09633,-0.20944 0.392323,-0.35345 0.618589,-0.30929 0.240697,0.047 0.432114,0.31307 0.486034,0.55231 0.03536,0.1569 -0.01594,0.35318 -0.132555,0.46394 -0.142478,0.13532 -0.384283,0.18222 -0.574404,0.13256 -0.105922,-0.0277 -0.186827,-0.12697 -0.243017,-0.22093 z"
       id="path1612"
       inkscape:connector-curvature="0"
       sodipodi:nodetypes="aaaaaaa" />
    <path
       inkscape:connector-curvature="0"
       id="path1614"
       d="m 12.340905,290.7315 c -1.161757,-0.18903 -2.033833,-0.82969 -2.296494,-1.68709 -0.1178655,-0.38474 -0.1733582,-0.78128 -0.1857721,-1.32746 -0.012755,-0.5613 0.014113,-0.96145 0.092117,-1.3718 0.072526,-0.38151 0.2931951,-1.23783 0.4656291,-1.80689 0.08519,-0.28114 0.165682,-0.55129 0.178871,-0.60032 l 0.02399,-0.0892 2.273558,0.003 c 1.25046,0.002 2.443557,0.01 2.65133,0.0179 l 0.377765,0.0146 0.0803,0.24964 c 0.140519,0.43685 0.500529,1.71354 0.563152,1.9971 0.131242,0.59424 0.218701,1.38104 0.195567,1.75934 -0.02859,0.46754 -0.175481,1.03799 -0.364263,1.41461 -0.109917,0.21929 -0.296009,0.46282 -0.504434,0.66012 -0.456305,0.43195 -0.886695,0.59545 -1.92649,0.73182 -0.508562,0.0667 -1.320691,0.0839 -1.624817,0.0344 z"
       style="opacity:1;fill:none;fill-opacity:1;stroke:#000000;stroke-width:0.204;stroke-linecap:round;stroke-linejoin:round;stroke-miterlimit:4;stroke-dasharray:none;stroke-dashoffset:0;stroke-opacity:0.99038463;paint-order:normal" />
    <path
       inkscape:connector-curvature="0"
       id="path1616"
       d="m 12.788861,283.32446 c -1.994979,-0.0116 -2.731016,-0.024 -3.1977319,-0.0539 -1.1122496,-0.0712 -1.4252745,-0.10431 -1.9614337,-0.20749 -0.1307619,-0.0252 -0.3768335,-0.0625 -0.5468237,-0.0829 -0.5468103,-0.0658 -0.7406725,-0.12964 -0.9051986,-0.29823 -0.092886,-0.0952 -0.093339,-0.0966 -0.090942,-0.27871 0.00274,-0.20789 0.05401,-0.41282 0.2131222,-0.85176 0.2016295,-0.55624 0.4575215,-1.09372 0.6236027,-1.30982 l 0.040541,-0.0528 0.2020875,0.1329 c 0.2814202,0.18506 0.646769,0.35877 0.8440103,0.40129 0.2512747,0.0542 0.7066526,0.0705 1.0035623,0.0361 0.6747816,-0.0783 1.5200939,-0.38796 1.9706919,-0.72182 0.184601,-0.13677 0.395295,-0.3523 0.503636,-0.51518 0.282847,-0.42525 0.42651,-1.33668 0.321061,-2.0369 l -0.04352,-0.28902 0.08372,-0.0148 c 0.679635,-0.12045 1.244947,-0.15434 1.843067,-0.1105 1.232525,0.0904 2.187673,0.33456 3.146428,0.80446 l 0.317208,0.15547 -0.01433,0.0738 c -0.0079,0.0406 -0.02098,0.22498 -0.02914,0.40974 -0.01323,0.29978 -0.0095,0.35353 0.03514,0.49928 0.140816,0.46028 0.581245,0.91879 1.061816,1.1054 0.18995,0.0738 0.526882,0.14046 0.698645,0.13832 0.117568,-0.002 0.3654,-0.0626 0.503138,-0.124 l 0.08425,-0.0376 0.153057,0.23007 c 0.310906,0.46735 0.702238,1.3267 0.810244,1.77925 0.05634,0.23609 0.05204,0.46877 -0.01041,0.5641 -0.04444,0.0678 -0.341583,0.1813 -0.693426,0.26482 -0.280811,0.0666 -1.089246,0.18683 -1.509709,0.22443 -0.163454,0.0146 -0.70374,0.0635 -1.200636,0.10873 -0.65889,0.0599 -1.00642,0.0808 -1.283848,0.0772 -0.209219,-0.003 -1.54656,-0.0117 -2.971869,-0.02 z m 3.09873,-2.64278 c 0.168307,-0.063 0.338939,-0.22158 0.411149,-0.38217 0.04442,-0.0988 0.05571,-0.16499 0.05562,-0.32605 -9.6e-5,-0.17766 -0.0093,-0.22159 -0.07612,-0.36346 -0.188851,-0.40097 -0.553854,-0.61854 -0.909675,-0.54223 -0.492053,0.10553 -0.766371,0.51112 -0.630454,0.93215 0.08917,0.27622 0.310753,0.5957 0.470441,0.67828 0.17256,0.0892 0.446104,0.0906 0.679045,0.003 z"
       style="opacity:1;fill:none;fill-opacity:1;stroke:#000000;stroke-width:0.204;stroke-linecap:round;stroke-linejoin:round;stroke-miterlimit:4;stroke-dasharray:none;stroke-dashoffset:0;stroke-opacity:0.99038463;paint-order:normal" />
  </g>
</svg>
