<?xml version="1.0" encoding="UTF-8" standalone="no"?>
<!-- Created with Inkscape (http://www.inkscape.org/) -->

<svg
   xmlns:dc="http://purl.org/dc/elements/1.1/"
   xmlns:cc="http://creativecommons.org/ns#"
   xmlns:rdf="http://www.w3.org/1999/02/22-rdf-syntax-ns#"
   xmlns:svg="http://www.w3.org/2000/svg"
   xmlns="http://www.w3.org/2000/svg"
   xmlns:sodipodi="http://sodipodi.sourceforge.net/DTD/sodipodi-0.dtd"
   xmlns:inkscape="http://www.inkscape.org/namespaces/inkscape"
   width="100"
   height="100"
   viewBox="0 0 26.458333 26.458334"
   version="1.1"
   id="svg8"
   inkscape:version="0.92.4 (unknown)"
   sodipodi:docname="vgi_drytree_none.svg">
  <defs
     id="defs2" />
  <sodipodi:namedview
     id="base"
     pagecolor="#ffffff"
     bordercolor="#666666"
     borderopacity="1.0"
     inkscape:pageopacity="0.0"
     inkscape:pageshadow="2"
     inkscape:zoom="3.959798"
     inkscape:cx="19.8312"
     inkscape:cy="15.340367"
     inkscape:document-units="mm"
     inkscape:current-layer="layer1"
     showgrid="false"
     units="px"
     inkscape:window-width="1920"
     inkscape:window-height="1025"
     inkscape:window-x="0"
     inkscape:window-y="27"
     inkscape:window-maximized="1" />
  <metadata
     id="metadata5">
    <rdf:RDF>
      <cc:Work
         rdf:about="">
        <dc:format>image/svg+xml</dc:format>
        <dc:type
           rdf:resource="http://purl.org/dc/dcmitype/StillImage" />
        <dc:title />
      </cc:Work>
    </rdf:RDF>
  </metadata>
  <g
     inkscape:label="Vrstva 1"
     inkscape:groupmode="layer"
     id="layer1"
     transform="translate(0,-270.54165)">
    <circle
       style="opacity:1;fill:#ffffff;fill-opacity:1;stroke:#000000;stroke-width:0.20746459;stroke-linecap:round;stroke-linejoin:round;stroke-miterlimit:4;stroke-dasharray:none;stroke-dashoffset:0;stroke-opacity:0.99038463;paint-order:normal"
       id="circle1109-4"
       cx="7.5957351"
       cy="308.25192"
       r="0" />
    <rect
       style="opacity:1;fill:#d38d5f;fill-opacity:1;stroke:#000000;stroke-width:0;stroke-linecap:square;stroke-linejoin:round;stroke-miterlimit:4;stroke-dasharray:none;stroke-dashoffset:2.26771665;stroke-opacity:0.99038463;paint-order:stroke fill markers"
       id="rect7629"
       width="18.452745"
       height="18.520584"
       x="200.88455"
       y="182.00813"
       transform="rotate(45)" />
    <g
       style="stroke-width:7.0073843;stroke-miterlimit:4;stroke-dasharray:none"
       transform="matrix(0.10472022,0,0,0.10472022,31.233996,275.52961)"
       id="g1061-8-5">
      <path
         style="fill:none;stroke:#000000;stroke-width:7.0073843;stroke-linecap:round;stroke-linejoin:miter;stroke-miterlimit:4;stroke-dasharray:none;stroke-opacity:1"
         d="m -196.57547,129.26657 c 0,0 0.32353,-35.612949 0.54232,-53.418787 0.23102,-18.801057 -1.13369,-40.703788 0.81349,-56.401565 0.89304,-7.19948 5.51512,-14.1012158 11.11761,-18.71013389 5.40913,-4.44985031 12.79102,-6.96636111 19.79479,-7.05019551 8.08844,-0.096818 16.76367,2.5003326 23.04871,7.5925182 5.44449,4.4111568 8.44502,11.4922882 10.5753,18.1678112 1.4417,4.517743 1.28801,14.168182 1.28801,14.168182"
         id="path1036-0-9"
         inkscape:connector-curvature="0"
         sodipodi:nodetypes="casaaaac" />
      <path
         style="fill:none;stroke:#000000;stroke-width:7.0073843;stroke-linecap:butt;stroke-linejoin:miter;stroke-miterlimit:4;stroke-dasharray:none;stroke-opacity:1"
         d="m -89.873468,73.407331 c 1.308807,-1.364848 -0.847204,-13.129649 -3.525098,-18.981295 -2.468584,-5.39427 -6.155988,-10.645202 -11.117614,-13.897021 -6.65689,-4.362883 -20.83197,-7.589481 -23.04872,-6.236711 -1.92582,1.17523 -1.37151,11.630105 0.27116,17.083165 1.54765,5.137633 4.72488,9.929029 8.67717,13.558069 4.00551,3.677916 9.20251,6.127315 14.43934,7.592518 4.600296,1.287108 13.06656,2.171452 14.303762,0.881275 z"
         id="path1038-4-9"
         inkscape:connector-curvature="0"
         sodipodi:nodetypes="saasaaas" />
      <path
         sodipodi:nodetypes="saasaaas"
         inkscape:connector-curvature="0"
         id="path1040-3-5"
         d="m -131.41806,34.324081 c -1.40649,-1.263947 -13.09533,1.271744 -18.85724,4.137651 -5.31154,2.641892 -10.44036,6.497334 -13.52987,11.561612 -4.14513,6.794623 -6.91121,21.066715 -5.48739,23.238515 1.23695,1.886772 11.6684,0.994342 17.06544,-0.823976 5.08484,-1.713137 9.77089,-5.043793 13.2701,-9.11148 3.54633,-4.122459 5.82623,-9.39602 7.12115,-14.677533 1.13753,-4.639541 1.74736,-13.129999 0.41781,-14.324789 z"
         style="fill:none;stroke:#000000;stroke-width:7.0073843;stroke-linecap:butt;stroke-linejoin:miter;stroke-miterlimit:4;stroke-dasharray:none;stroke-opacity:1" />
      <path
         style="fill:none;stroke:#000000;stroke-width:7.0073843;stroke-linecap:round;stroke-linejoin:miter;stroke-miterlimit:4;stroke-dasharray:none;stroke-opacity:1"
         d="m -224.43719,61.72201 25.89568,27.302482"
         id="path1042-7-1"
         inkscape:connector-curvature="0" />
    </g>
    <path
       sodipodi:nodetypes="caaaaac"
       inkscape:connector-curvature="0"
       id="path1065-1"
       d="m 5.5364587,289.11309 c 0,0 1.6605963,-0.64037 2.5055439,-0.60824 0.8855024,0.0337 1.7253016,0.6482 2.6028474,0.83633 0.805297,0.17264 1.61996,0.29665 2.432566,0.26612 1.101998,-0.0414 2.18326,-0.70132 3.283965,-0.60824 0.830813,0.0703 1.622525,0.57741 2.432568,0.87432 0.373376,0.13688 1.118981,0.41818 1.118981,0.41818"
       style="fill:none;fill-opacity:1;stroke:#000000;stroke-width:0.5825454;stroke-linecap:round;stroke-linejoin:miter;stroke-miterlimit:4;stroke-dasharray:none;stroke-opacity:1" />
    <path
       sodipodi:nodetypes="csc"
       inkscape:connector-curvature="0"
       id="path1081-5"
       d="m 10.648568,289.06644 c 0,0 -0.9961024,2.08373 -0.9751092,2.32943 0.017119,0.20036 1.0292822,0.9751 1.0292822,0.9751"
       style="fill:none;fill-opacity:1;stroke:#000000;stroke-width:0.7338149;stroke-linecap:round;stroke-linejoin:miter;stroke-miterlimit:4;stroke-dasharray:none;stroke-opacity:1" />
    <path
       sodipodi:nodetypes="csc"
       inkscape:connector-curvature="0"
       id="path1083-2"
       d="m 13.734518,289.65541 c 0,0 1.027094,2.38979 0.967351,2.67883 -0.06256,0.30263 -1.308768,2.89487 -1.308768,2.89487"
       style="fill:none;fill-opacity:1;stroke:#000000;stroke-width:0.67166042;stroke-linecap:round;stroke-linejoin:miter;stroke-miterlimit:4;stroke-dasharray:none;stroke-opacity:1" />
    <path
       inkscape:connector-curvature="0"
       id="path1085-5"
       d="m 14.621316,292.3561 -2.619522,-0.43271"
       style="fill:#ffffff;fill-opacity:1;stroke:#000000;stroke-width:0.7338149;stroke-linecap:round;stroke-linejoin:miter;stroke-miterlimit:4;stroke-dasharray:none;stroke-opacity:1" />
    <circle
       style="opacity:1;fill:#130d0d;fill-opacity:1;stroke:#000000;stroke-width:0.20746461;stroke-linecap:round;stroke-linejoin:round;stroke-miterlimit:4;stroke-dasharray:none;stroke-dashoffset:0;stroke-opacity:0.99038463;paint-order:normal"
       id="circle1109-4-1"
       cx="7.5957365"
       cy="308.25195"
       r="0" />
  </g>
</svg>
