<?xml version="1.0" encoding="UTF-8" standalone="no"?>
<svg
   xmlns:dc="http://purl.org/dc/elements/1.1/"
   xmlns:cc="http://creativecommons.org/ns#"
   xmlns:rdf="http://www.w3.org/1999/02/22-rdf-syntax-ns#"
   xmlns:svg="http://www.w3.org/2000/svg"
   xmlns="http://www.w3.org/2000/svg"
   xmlns:sodipodi="http://sodipodi.sourceforge.net/DTD/sodipodi-0.dtd"
   xmlns:inkscape="http://www.inkscape.org/namespaces/inkscape"
   width="100"
   height="100"
   version="1.1"
   id="svg72"
   sodipodi:docname="drop_high.svg"
   inkscape:version="0.92.3 (unknown)">
  <metadata
     id="metadata78">
    <rdf:RDF>
      <cc:Work
         rdf:about="">
        <dc:format>image/svg+xml</dc:format>
        <dc:type
           rdf:resource="http://purl.org/dc/dcmitype/StillImage" />
        <dc:title></dc:title>
      </cc:Work>
    </rdf:RDF>
  </metadata>
  <defs
     id="defs76" />
  <sodipodi:namedview
     pagecolor="#ffffff"
     bordercolor="#666666"
     borderopacity="1"
     objecttolerance="10"
     gridtolerance="10"
     guidetolerance="10"
     inkscape:pageopacity="0"
     inkscape:pageshadow="2"
     inkscape:window-width="1920"
     inkscape:window-height="1025"
     id="namedview74"
     showgrid="false"
     inkscape:zoom="2.9555556"
     inkscape:cx="90"
     inkscape:cy="90"
     inkscape:window-x="0"
     inkscape:window-y="27"
     inkscape:window-maximized="1"
     inkscape:current-layer="svg72" />
  <path
     inkscape:connector-curvature="0"
     id="path64"
     d="m 87.662102,62.39012 c 0,-19.892432 -34.190262,-58.7452775 -36.987741,-61.85354775 v 0 0 0 c 0,0 -37.609323,41.33917675 -37.609323,61.85354775 0,20.51437 16.784517,37.298532 37.298532,37.298532 1.243166,0 2.797479,0 4.040645,-0.310791 0.310791,0 0.621583,0 0.932374,-0.310792 0.932375,0 1.865104,-0.310791 2.797479,-0.310791 0.310791,0 0.621583,-0.310792 1.243166,-0.310792 0.932374,-0.310791 1.865104,-0.310791 2.797479,-0.621583 0.310791,0 0.621583,-0.310791 0.932374,-0.310791 0.932375,-0.310792 1.865104,-0.621583 2.797479,-0.932375 0.310791,0 0.621583,-0.310791 0.621583,-0.310791 0.932374,-0.310792 1.865104,-0.932375 2.797479,-1.553958 0.310791,0 0.310791,-0.310791 0.621583,-0.310791 0.932374,-0.621583 1.865104,-1.243166 2.797478,-1.865105 0,0 0.310792,0 0.310792,-0.310791 0.932374,-0.621583 1.865104,-1.553958 2.797479,-2.175896 v 0 C 82.999874,82.90449 87.662102,73.268888 87.662102,62.39012 Z"
     style="fill:#ff2a2a;stroke-width:0.35519028" />
  <path
     inkscape:connector-curvature="0"
     id="path68"
     d="m 53.47184,96.580382 c -20.51437,0 -37.298532,-16.784517 -37.298532,-37.298532 0,-17.095309 25.487389,-48.488093 34.501053,-58.74527775 l -0.310436,-0.3107915 c 0,0 -37.298532,41.64996825 -37.298532,62.16433925 0,20.51437 16.784517,37.298532 37.298532,37.298532 11.18956,0 21.135953,-4.973019 27.974077,-12.432726 -6.838834,5.594603 -15.230915,9.324456 -24.866162,9.324456 z"
     style="fill:#d40000;stroke-width:0.35519028" />
</svg>
