<?xml version="1.0" encoding="UTF-8" standalone="no"?>
<svg
   xmlns:dc="http://purl.org/dc/elements/1.1/"
   xmlns:cc="http://creativecommons.org/ns#"
   xmlns:rdf="http://www.w3.org/1999/02/22-rdf-syntax-ns#"
   xmlns:svg="http://www.w3.org/2000/svg"
   xmlns="http://www.w3.org/2000/svg"
   xmlns:sodipodi="http://sodipodi.sourceforge.net/DTD/sodipodi-0.dtd"
   xmlns:inkscape="http://www.inkscape.org/namespaces/inkscape"
   version="1.1"
   x="0px"
   y="0px"
   viewBox="0 0 100 100"
   xml:space="preserve"
   id="svg965"
   sodipodi:docname="pm10_middle.svg"
   width="100"
   height="100"
   inkscape:version="0.92.4 (unknown)"><metadata
     id="metadata971"><rdf:RDF><cc:Work
         rdf:about=""><dc:format>image/svg+xml</dc:format><dc:type
           rdf:resource="http://purl.org/dc/dcmitype/StillImage" /><dc:title></dc:title></cc:Work></rdf:RDF></metadata><defs
     id="defs969" /><sodipodi:namedview
     pagecolor="#ffffff"
     bordercolor="#666666"
     borderopacity="1"
     objecttolerance="10"
     gridtolerance="10"
     guidetolerance="10"
     inkscape:pageopacity="0"
     inkscape:pageshadow="2"
     inkscape:window-width="1920"
     inkscape:window-height="1025"
     id="namedview967"
     showgrid="false"
     inkscape:zoom="4"
     inkscape:cx="117.54287"
     inkscape:cy="86.985314"
     inkscape:window-x="0"
     inkscape:window-y="27"
     inkscape:window-maximized="1"
     inkscape:current-layer="svg965" /><g
     id="g2347"
     transform="matrix(0.17198737,0,0,0.17198737,-23.021313,-16.383594)"><g
       style="fill:#ffcc00;fill-opacity:1"
       id="g2253"><path
         inkscape:connector-curvature="0"
         id="path921"
         d="m 666.9,446.2 c 35.9,-25.7 53.9,-69.5 46.1,-113.2 -7.9,-43.6 -39.6,-77 -79.3,-89.1 0.1,-0.9 0.2,-1.8 0.1,-2.7 -3.5,-28.5 -19.3,-54.1 -43.2,-70 C 548.3,143 491.9,151.9 460,190 c -13.9,-11.7 -30.9,-19.6 -49.3,-22.4 -43,-6.4 -83.7,16.1 -102.4,52.8 -1.1,-0.3 -2.3,-0.4 -3.5,-0.3 -30.3,3.7 -57.4,18.9 -76.3,42.9 -17.9,22.7 -26.3,50.8 -24.1,79.4 -20.6,8.9 -38,23.8 -50.4,43.1 -16.4,25.7 -21.9,56.3 -15.4,86.1 10,45.6 46.1,78.9 89.2,87.6 5.3,27 21.6,50.6 45.2,65.1 16.1,9.9 33.9,14.6 51.5,14.6 22.9,0 45.5,-7.9 63.4,-22.8 0.9,0.7 2,1.3 3.1,1.6 10.6,3.1 21.5,4.6 32.2,4.6 19,0 37.8,-4.8 54.9,-14 15.8,-8.6 29,-20.6 38.9,-34.9 12.2,4.1 24.5,6.1 36.8,6.1 46.7,0 90.6,-28.8 107.7,-75.1 6.9,-18.9 8.7,-38.9 5.4,-58.2 z M 643.7,498 c -17.4,47.6 -69,73.1 -117,58.7 2.5,-5.3 4.6,-10.9 6.2,-16.6 1.5,-5 -1.4,-10.2 -6.4,-11.7 -5,-1.5 -10.2,1.4 -11.7,6.4 -7.2,24.4 -23.4,44.6 -45.8,56.9 -20.6,11.2 -44,14.5 -66.6,9.4 2.3,-2.9 4.4,-6 6.4,-9.2 2.7,-4.5 1.3,-10.3 -3.1,-13 -4.5,-2.7 -10.3,-1.3 -13,3.1 -11.2,18.2 -28.7,30.9 -49.5,35.9 -20.8,5 -42.2,1.6 -60.4,-9.6 -17.4,-10.7 -29.9,-27.5 -35.2,-46.9 0.9,0 1.8,0.1 2.7,0.1 8,0 16.2,-0.9 24.3,-2.6 5.1,-1.1 8.3,-6.1 7.2,-11.2 -1.1,-5.1 -6.1,-8.3 -11.2,-7.2 -51.4,11.3 -102.4,-21.4 -113.7,-72.9 -5.5,-24.9 -0.9,-50.4 12.9,-71.9 13.8,-21.5 35.1,-36.3 60,-41.8 5.1,-1.1 8.3,-6.1 7.2,-11.2 -1.1,-5.1 -6.1,-8.3 -11.2,-7.2 -1,0.2 -1.9,0.4 -2.9,0.7 -0.7,-22.3 6.4,-43.9 20.4,-61.6 14.5,-18.4 34.7,-30.6 57.6,-34.9 -1,3.6 -1.7,7.3 -2.3,11.1 -0.8,5.2 2.8,9.9 7.9,10.7 0.5,0.1 0.9,0.1 1.4,0.1 4.6,0 8.6,-3.3 9.4,-7.9 6.4,-43.6 47.1,-73.8 90.7,-67.4 22.9,3.4 43.3,16.6 55.7,36.2 2.8,4.4 8.6,5.7 13,2.9 4.4,-2.8 5.7,-8.6 2.9,-13 -2,-3.1 -4.1,-6 -6.3,-8.8 25.5,-32.1 72.1,-39.8 106.8,-16.7 18.4,12.2 30.7,31.3 34.4,52.9 -11.1,-1.4 -22.6,-1.2 -34.2,0.9 -5.1,0.9 -8.5,5.8 -7.6,10.9 0.9,5.1 5.8,8.5 10.9,7.6 51.8,-9.3 101.5,25.3 110.9,77.1 6.1,34 -6.7,68.3 -32.8,90.1 -2.2,-6.2 -5,-12.2 -8.3,-18 -2.6,-4.5 -8.4,-6.1 -12.9,-3.5 -4.5,2.6 -6.1,8.4 -3.5,12.9 14,24.5 16.4,53.7 6.7,80.2 z"
         style="fill:#ffcc00;fill-opacity:1" /></g><path
       inkscape:connector-curvature="0"
       id="path2273"
       d="m 307.109,618.85666 c -26.15554,-5.86716 -49.49044,-26.78398 -58.56096,-52.49257 l -1.63305,-4.62857 13.18717,-1.43027 c 7.25295,-0.78665 14.51938,-2.06878 16.14764,-2.84918 5.6281,-2.69748 6.29327,-12.3337 1.04524,-15.14236 -1.91233,-1.02345 -5.64497,-0.99834 -15.19982,0.10225 -57.86685,6.66522 -107.82982,-37.52819 -107.82982,-95.37805 0,-42.60188 27.69978,-79.61161 68.76214,-91.87325 10.71207,-3.19874 12.99142,-4.9894 12.99142,-10.20612 0,-5.52436 -3.48789,-8.70262 -9.55042,-8.70262 h -4.81108 l 0.7782,-8.59004 c 3.27482,-36.14871 22.07779,-64.36936 53.31699,-80.02143 7.77718,-3.89667 23.98728,-9.19994 25.00622,-8.181 0.34814,0.34814 10e-4,3.67721 -0.77142,7.39794 -1.2741,6.13729 -1.19033,7.05295 0.90282,9.86885 2.64984,3.56481 9.09845,4.7294 12.48016,2.25387 1.24657,-0.91254 3.06955,-5.43276 4.44124,-11.01245 6.03337,-24.54211 21.38129,-44.04115 42.69483,-54.24237 6.14678,-2.94202 14.10843,-6.05785 17.69255,-6.92409 9.11914,-2.20397 28.49768,-1.90867 37.91469,0.57778 16.82428,4.44223 32.95829,14.79659 42.54817,27.30623 7.76858,10.13383 9.18187,11.37714 12.93251,11.37714 4.11316,0 8.50037,-4.36805 8.50037,-8.46328 0,-1.63834 -1.63357,-5.44504 -3.63016,-8.45933 l -3.63015,-5.48054 2.66861,-3.6095 c 2.81729,-3.81057 12.95196,-12.07775 20.11057,-16.40483 13.47799,-8.14687 33.90097,-12.13591 50.35116,-9.83465 19.15073,2.67906 33.30814,9.59632 46.53352,22.73613 10.96506,10.89411 18.84097,25.09996 21.96886,39.6254 l 0.77368,3.59281 -14.55172,0.0895 c -21.7255,0.13354 -26.99248,2.24645 -26.99248,10.82832 0,5.65676 3.67439,7.97184 11.62691,7.32563 12.62089,-1.02554 29.23178,-0.2367 37.54371,1.78295 25.69942,6.24448 50.18487,25.1834 62.0898,48.02499 19.34108,37.10909 13.87265,79.99068 -14.08959,110.48578 -4.03335,4.39869 -7.98057,7.99763 -8.7716,7.99763 -0.79102,0 -2.35021,-2.53618 -3.46488,-5.63594 -2.75208,-7.6533 -6.02508,-12.80143 -9.64781,-15.17513 -2.57196,-1.68521 -3.56436,-1.75934 -6.61843,-0.4943 -7.07004,2.92851 -7.44793,7.06943 -1.74382,19.10893 6.21763,13.12338 8.9051,25.22002 8.9051,40.08305 0,15.23263 -1.44657,23.72861 -6.09891,35.82021 -8.1783,21.25569 -25.51721,40.3151 -46.0078,50.57304 -14.84873,7.43354 -26.33713,10.13369 -43.27244,10.17049 -11.97026,0.0261 -27.85123,-2.24693 -27.83812,-3.98429 0.004,-0.3997 1.32331,-3.92578 2.93397,-7.83573 4.91568,-11.93305 3.61337,-18.17379 -4.1992,-20.12277 -4.62547,-1.1539 -7.81949,2.30305 -12.21603,13.22167 -5.17255,12.84576 -10.51987,21.5244 -18.95573,30.76489 -16.6347,18.22138 -39.46309,29.09633 -64.72489,30.83356 -8.81677,0.60632 -25.35795,-0.86889 -26.88694,-2.39788 -0.29633,-0.29633 1.12535,-2.83603 3.15929,-5.6438 4.64295,-6.4094 4.58417,-12.06209 -0.1621,-15.59041 -4.96071,-3.68773 -8.22324,-2.01973 -16.30272,8.33494 -11.40235,14.61329 -23.14008,22.96127 -39.78383,28.29463 -11.94339,3.82716 -30.54135,4.81237 -42.06162,2.22818 z M 471.47591,507.03787 c 6.13744,-3.1311 11.50037,-9.61891 14.82808,-17.93834 2.25114,-5.62792 2.6066,-8.77865 2.6066,-23.10427 0,-14.58293 -0.33262,-17.4228 -2.75212,-23.49758 -3.53982,-8.88769 -8.69219,-14.68596 -16.12615,-18.14779 -16.70637,-7.77976 -34.95564,1.39894 -40.87317,20.5577 -3.46453,11.21684 -3.3515,31.69183 0.23566,42.68601 3.18953,9.7755 11.80517,19.31527 19.34271,21.41749 6.60331,1.84164 17.0351,0.93637 22.73839,-1.97322 z m -55.36217,-3.12792 v -5.33175 h -7.70142 -7.70142 v -37.91469 -37.91469 h -6.63153 -6.63151 l -12.62204,10.82383 c -6.94211,5.95312 -12.75885,11.16217 -12.92609,11.57569 -0.43461,1.07466 6.44899,8.40616 7.89259,8.40616 0.66304,0 4.1512,-2.39929 7.75147,-5.33175 3.60027,-2.93247 6.82007,-5.33175 7.15511,-5.33175 0.33503,0 0.60916,12.52962 0.60916,27.8436 v 27.8436 h -8.88626 -8.88625 v 5.33175 5.33176 h 24.28909 24.2891 z M 355.6872,344.70818 v -15.24445 l 11.7741,-0.56695 c 9.94189,-0.47875 12.84582,-1.10261 18.66114,-4.00913 9.74937,-4.87276 13.77424,-10.95873 14.38399,-21.74996 0.78921,-13.96697 -3.94,-22.32099 -15.48596,-27.35552 -5.44667,-2.37498 -8.72156,-2.78482 -26.07497,-3.26324 l -19.84597,-0.54713 v 43.9904 43.99041 h 8.29383 8.29384 z m 72.29465,-15.85747 0.0198,-31.10189 13.30962,24.85372 c 19.21126,35.87414 19.23894,35.87428 38.23214,0.1921 l 12.99215,-24.40815 0.31587,30.78306 0.31589,30.78306 h 7.08933 7.08933 v -43.83887 -43.83886 h -7.109 c -5.22062,0 -7.65979,0.55553 -9.18247,2.09135 -1.1404,1.15024 -8.47156,14.16382 -16.29147,28.91907 -7.8199,14.75525 -14.26916,26.74365 -14.33167,26.64088 -0.0626,-0.10272 -6.66433,-12.44988 -14.67071,-27.43803 C 437.75429,287.5 430.37237,274.5705 429.3564,273.75592 c -1.01598,-0.81457 -4.94436,-1.48104 -8.72977,-1.48104 h -6.88254 v 43.83886 43.83887 h 7.109 7.10901 l 0.0198,-31.1019 z"
       style="fill:#ffcc00;fill-opacity:1;stroke:none;stroke-width:8.95622635;stroke-linecap:square;stroke-linejoin:round;stroke-miterlimit:18;stroke-dasharray:8.95622669, 17.91245339;stroke-dashoffset:2.26771665;stroke-opacity:1;paint-order:stroke fill markers" /><path
       inkscape:connector-curvature="0"
       id="path2275"
       d="m 306.91289,637.79919 c -19.10426,-3.62896 -35.88455,-12.14171 -49.7886,-25.25809 -13.78646,-13.00545 -21.50571,-25.22282 -27.02618,-42.77474 l -3.13673,-9.97297 -7.95429,-2.17897 c -38.71696,-10.606 -70.38138,-43.46716 -80.35932,-83.39648 -3.74704,-14.99474 -3.75498,-39.33508 -0.0177,-54.28546 7.8368,-31.34998 28.84993,-58.51577 57.25341,-74.0173 l 7.85029,-4.28439 0.61085,-14.83197 c 0.68108,-16.53745 3.96034,-29.97967 10.49651,-43.02701 12.84963,-25.65007 35.64339,-46.92948 60.62268,-56.59509 9.18327,-3.55342 30.36942,-8.70528 31.43148,-7.64322 0.2694,0.2694 3.14276,-3.57411 6.38526,-8.54112 13.51204,-20.69836 34.00909,-35.40309 58.40193,-41.89796 13.38995,-3.56522 35.34605,-3.58036 48.5782,-0.0335 11.12509,2.98207 24.76669,9.2153 32.80225,14.98828 3.14069,2.25636 6.13408,4.10247 6.65198,4.10247 0.51789,0 3.04925,-2.18286 5.62522,-4.8508 10.92925,-11.31943 28.87805,-21.4628 46.15278,-26.08224 12.46343,-3.33284 35.43707,-3.64275 46.80095,-0.63134 18.04165,4.78101 32.42021,12.50608 45.16727,24.2667 14.81929,13.67247 26.81773,35.46498 29.78127,54.09108 l 1.3454,8.45599 9.63294,3.79625 c 34.66754,13.66216 60.58467,45.16121 68.83935,83.66567 2.09986,9.7949 2.33702,31.58094 0.46072,42.32336 -4.53545,25.96709 -18.41234,50.08711 -38.88045,67.57974 l -6.52506,5.5765 0.25794,15.75051 c 0.17772,10.85167 -0.34208,18.65185 -1.67123,25.07872 -9.45647,45.72545 -43.03249,79.84854 -88.85839,90.30623 -16.34503,3.73003 -40.49162,2.69064 -58.08992,-2.50045 -1.91074,-0.56362 -3.69863,0.88852 -8.73193,7.09216 -13.66321,16.8402 -36.12384,30.91847 -59.03869,37.00533 -15.32588,4.071 -40.67517,4.37029 -55.1864,0.65158 l -9.24598,-2.36942 -7.93412,5.32559 c -9.74798,6.54313 -18.18572,10.348 -29.82844,13.45065 -11.84195,3.15576 -31.09368,3.9037 -42.87523,1.66572 z M 416.11374,503.90995 v -5.33175 h -7.70142 -7.70142 v -37.91469 -37.91469 h -6.4393 c -6.40449,0 -6.50698,0.0582 -18.95735,10.76232 -6.88493,5.91927 -12.51804,11.34996 -12.51804,12.06818 0,2.08548 4.96153,6.79035 7.16077,6.79035 1.1046,0 4.68692,-2.1327 7.96071,-4.73934 3.2738,-2.60663 6.27591,-4.73933 6.67136,-4.73933 0.39545,0 0.71901,12.52962 0.71901,27.8436 v 27.8436 h -8.88626 -8.88625 v 5.33175 5.33176 h 24.28909 24.2891 z m 53.90996,3.12126 c 6.46218,-2.94311 12.83244,-10.34268 15.85213,-18.41353 3.54304,-9.46962 3.65962,-35.57407 0.19954,-44.68026 -3.49267,-9.19195 -7.79482,-14.58552 -14.57953,-18.27823 -16.55539,-9.01056 -36.0336,-0.21197 -41.82576,18.8933 -2.61988,8.64163 -3.47045,24.85449 -1.80551,34.41527 2.34237,13.45088 9.6426,24.7903 18.4222,28.61514 5.32552,2.32006 18.08241,2.02357 23.73693,-0.55169 z M 355.6872,344.7121 v -15.24051 l 11.55214,-0.83993 c 12.61885,-0.91748 20.00812,-3.43954 25.57971,-8.73072 5.62228,-5.33934 7.17869,-9.47505 7.22546,-19.19952 0.0565,-11.73881 -3.3971,-18.09852 -12.52648,-23.06734 -5.66157,-3.08141 -7.79785,-3.49461 -22.30435,-4.31401 -8.82368,-0.4984 -18.30906,-0.93746 -21.07861,-0.97569 l -5.03554,-0.0695 v 43.83886 43.83887 h 8.29383 8.29384 z m 72.55143,-15.65166 0.31587,-30.89216 8.76992,16.37794 c 17.58591,32.84192 19.75289,35.81515 24.91019,34.17828 2.97252,-0.94343 6.7018,-6.82515 19.45306,-30.68089 l 10.84788,-20.29479 0.31587,31.10189 0.31589,31.1019 h 7.08933 7.08933 v -43.83887 -43.83886 h -3.99881 c -8.22855,0 -11.47543,1.34503 -14.38921,5.96075 -1.54284,2.44404 -8.14459,14.49903 -14.67053,26.78887 -6.52595,12.28984 -12.30722,23.08376 -12.84725,23.98648 -0.67955,1.13589 -5.46515,-6.70844 -15.54089,-25.47393 -8.00744,-14.91339 -15.20063,-27.77751 -15.98485,-28.58694 -0.78423,-0.80943 -4.74338,-1.81845 -8.7981,-2.24225 l -7.37225,-0.77055 v 44.00764 44.00766 h 7.08933 7.08933 z"
       style="fill:#ffcc00;fill-opacity:1;stroke:none;stroke-width:8.95622635;stroke-linecap:square;stroke-linejoin:round;stroke-miterlimit:18;stroke-dasharray:8.95622669, 17.91245339;stroke-dashoffset:2.26771665;stroke-opacity:1;paint-order:stroke fill markers" /><path
       inkscape:connector-curvature="0"
       id="path2304"
       d="m 355.6872,300.7109 v -15.40284 l 7.99763,0.0669 c 14.97504,0.12522 20.71182,4.3377 20.71182,15.20855 0,11.13764 -5.76365,15.53026 -20.37755,15.53026 h -8.3319 z"
       style="fill:#ffcc00;fill-opacity:1;stroke:none;stroke-width:8.95622635;stroke-linecap:square;stroke-linejoin:round;stroke-miterlimit:18;stroke-dasharray:8.95622669, 17.91245339;stroke-dashoffset:2.26771665;stroke-opacity:1;paint-order:stroke fill markers" /><path
       inkscape:connector-curvature="0"
       id="path2306"
       d="m 355.6872,300.7109 v -15.64601 l 9.98509,0.41779 c 11.88054,0.4971 15.81641,2.71598 18.26716,10.29823 1.33474,4.12951 1.33474,5.73047 0,9.85998 -2.45075,7.58225 -6.38662,9.80113 -18.26716,10.29823 l -9.98509,0.41779 z"
       style="fill:#ffcc00;fill-opacity:1;stroke:none;stroke-width:8.95622635;stroke-linecap:square;stroke-linejoin:round;stroke-miterlimit:18;stroke-dasharray:8.95622669, 17.91245339;stroke-dashoffset:2.26771665;stroke-opacity:1;paint-order:stroke fill markers" /><path
       inkscape:connector-curvature="0"
       id="path2308"
       d="m 449.28198,494.01402 c -5.46841,-5.46841 -7.46527,-14.61962 -6.86458,-31.45903 0.41847,-11.73131 0.978,-15.23185 3.0832,-19.28949 3.31076,-6.38127 6.68229,-8.66834 12.7786,-8.66834 11.17397,0 15.299,8.46579 15.299,31.3981 0,17.05242 -1.18429,22.13536 -6.47768,27.80195 -2.81481,3.01327 -4.25726,3.59615 -8.89926,3.59615 -4.5119,0 -6.16704,-0.6271 -8.91928,-3.37934 z"
       style="fill:#ffcc00;fill-opacity:1;stroke:none;stroke-width:8.95622635;stroke-linecap:square;stroke-linejoin:round;stroke-miterlimit:18;stroke-dasharray:8.95622669, 17.91245339;stroke-dashoffset:2.26771665;stroke-opacity:1;paint-order:stroke fill markers" /><path
       inkscape:connector-curvature="0"
       id="path2310"
       d="m 449.3995,494.34236 c -5.1864,-4.36407 -7.21941,-12.3467 -7.21941,-28.3471 0,-22.33716 4.6368,-31.3981 16.06748,-31.3981 11.66643,0 16.60024,11.17509 15.67966,35.51446 -0.74903,19.80383 -5.11395,27.28174 -15.9246,27.28174 -3.61909,0 -5.96661,-0.83252 -8.60313,-3.051 z"
       style="fill:#ffcc00;fill-opacity:1;stroke:none;stroke-width:8.95622635;stroke-linecap:square;stroke-linejoin:round;stroke-miterlimit:18;stroke-dasharray:8.95622669, 17.91245339;stroke-dashoffset:2.26771665;stroke-opacity:1;paint-order:stroke fill markers" /></g></svg>