<?xml version="1.0" encoding="UTF-8" standalone="no"?>
<svg
   xmlns:dc="http://purl.org/dc/elements/1.1/"
   xmlns:cc="http://creativecommons.org/ns#"
   xmlns:rdf="http://www.w3.org/1999/02/22-rdf-syntax-ns#"
   xmlns:svg="http://www.w3.org/2000/svg"
   xmlns="http://www.w3.org/2000/svg"
   xmlns:sodipodi="http://sodipodi.sourceforge.net/DTD/sodipodi-0.dtd"
   xmlns:inkscape="http://www.inkscape.org/namespaces/inkscape"
   version="1.1"
   x="0px"
   y="0px"
   viewBox="0 0 800 1000"
   style="enable-background:new 0 0 800 800;"
   xml:space="preserve"
   id="svg965"
   sodipodi:docname="pm10.svg"
   inkscape:version="0.92.4 (unknown)"><metadata
     id="metadata971"><rdf:RDF><cc:Work
         rdf:about=""><dc:format>image/svg+xml</dc:format><dc:type
           rdf:resource="http://purl.org/dc/dcmitype/StillImage" /><dc:title></dc:title></cc:Work></rdf:RDF></metadata><defs
     id="defs969" /><sodipodi:namedview
     pagecolor="#ffffff"
     bordercolor="#666666"
     borderopacity="1"
     objecttolerance="10"
     gridtolerance="10"
     guidetolerance="10"
     inkscape:pageopacity="0"
     inkscape:pageshadow="2"
     inkscape:window-width="1920"
     inkscape:window-height="1025"
     id="namedview967"
     showgrid="false"
     inkscape:zoom="0.844"
     inkscape:cx="413.03318"
     inkscape:cy="547.39336"
     inkscape:window-x="0"
     inkscape:window-y="27"
     inkscape:window-maximized="1"
     inkscape:current-layer="svg965" /><path
     inkscape:connector-curvature="0"
     id="path921"
     d="m 666.9,446.2 c 35.9,-25.7 53.9,-69.5 46.1,-113.2 -7.9,-43.6 -39.6,-77 -79.3,-89.1 0.1,-0.9 0.2,-1.8 0.1,-2.7 -3.5,-28.5 -19.3,-54.1 -43.2,-70 C 548.3,143 491.9,151.9 460,190 c -13.9,-11.7 -30.9,-19.6 -49.3,-22.4 -43,-6.4 -83.7,16.1 -102.4,52.8 -1.1,-0.3 -2.3,-0.4 -3.5,-0.3 -30.3,3.7 -57.4,18.9 -76.3,42.9 -17.9,22.7 -26.3,50.8 -24.1,79.4 -20.6,8.9 -38,23.8 -50.4,43.1 -16.4,25.7 -21.9,56.3 -15.4,86.1 10,45.6 46.1,78.9 89.2,87.6 5.3,27 21.6,50.6 45.2,65.1 16.1,9.9 33.9,14.6 51.5,14.6 22.9,0 45.5,-7.9 63.4,-22.8 0.9,0.7 2,1.3 3.1,1.6 10.6,3.1 21.5,4.6 32.2,4.6 19,0 37.8,-4.8 54.9,-14 15.8,-8.6 29,-20.6 38.9,-34.9 12.2,4.1 24.5,6.1 36.8,6.1 46.7,0 90.6,-28.8 107.7,-75.1 6.9,-18.9 8.7,-38.9 5.4,-58.2 z M 643.7,498 c -17.4,47.6 -69,73.1 -117,58.7 2.5,-5.3 4.6,-10.9 6.2,-16.6 1.5,-5 -1.4,-10.2 -6.4,-11.7 -5,-1.5 -10.2,1.4 -11.7,6.4 -7.2,24.4 -23.4,44.6 -45.8,56.9 -20.6,11.2 -44,14.5 -66.6,9.4 2.3,-2.9 4.4,-6 6.4,-9.2 2.7,-4.5 1.3,-10.3 -3.1,-13 -4.5,-2.7 -10.3,-1.3 -13,3.1 -11.2,18.2 -28.7,30.9 -49.5,35.9 -20.8,5 -42.2,1.6 -60.4,-9.6 -17.4,-10.7 -29.9,-27.5 -35.2,-46.9 0.9,0 1.8,0.1 2.7,0.1 8,0 16.2,-0.9 24.3,-2.6 5.1,-1.1 8.3,-6.1 7.2,-11.2 -1.1,-5.1 -6.1,-8.3 -11.2,-7.2 -51.4,11.3 -102.4,-21.4 -113.7,-72.9 -5.5,-24.9 -0.9,-50.4 12.9,-71.9 13.8,-21.5 35.1,-36.3 60,-41.8 5.1,-1.1 8.3,-6.1 7.2,-11.2 -1.1,-5.1 -6.1,-8.3 -11.2,-7.2 -1,0.2 -1.9,0.4 -2.9,0.7 -0.7,-22.3 6.4,-43.9 20.4,-61.6 14.5,-18.4 34.7,-30.6 57.6,-34.9 -1,3.6 -1.7,7.3 -2.3,11.1 -0.8,5.2 2.8,9.9 7.9,10.7 0.5,0.1 0.9,0.1 1.4,0.1 4.6,0 8.6,-3.3 9.4,-7.9 6.4,-43.6 47.1,-73.8 90.7,-67.4 22.9,3.4 43.3,16.6 55.7,36.2 2.8,4.4 8.6,5.7 13,2.9 4.4,-2.8 5.7,-8.6 2.9,-13 -2,-3.1 -4.1,-6 -6.3,-8.8 25.5,-32.1 72.1,-39.8 106.8,-16.7 18.4,12.2 30.7,31.3 34.4,52.9 -11.1,-1.4 -22.6,-1.2 -34.2,0.9 -5.1,0.9 -8.5,5.8 -7.6,10.9 0.9,5.1 5.8,8.5 10.9,7.6 51.8,-9.3 101.5,25.3 110.9,77.1 6.1,34 -6.7,68.3 -32.8,90.1 -2.2,-6.2 -5,-12.2 -8.3,-18 -2.6,-4.5 -8.4,-6.1 -12.9,-3.5 -4.5,2.6 -6.1,8.4 -3.5,12.9 14,24.5 16.4,53.7 6.7,80.2 z"
     style="fill:#000000;fill-opacity:1" /><flowRoot
     xml:space="preserve"
     id="flowRoot992"
     style="font-style:normal;font-variant:normal;font-weight:bold;font-stretch:normal;font-size:40px;line-height:1.25;font-family:Lato;-inkscape-font-specification:'Lato Bold';letter-spacing:0px;word-spacing:0px;fill:#000000;fill-opacity:1;stroke:none"
     transform="matrix(2.9960774,0,0,2.9960774,-897.2184,-596.87507)"><flowRegion
       id="flowRegion994"><rect
         id="rect996"
         width="298.57819"
         height="215.63982"
         x="291.46921"
         y="281.99051" /></flowRegion><flowPara
       id="flowPara998"
       style="text-align:center;text-anchor:middle">PM </flowPara><flowPara
       id="flowPara1000"
       style="text-align:center;text-anchor:middle">10</flowPara></flowRoot></svg>