<?xml version="1.0" encoding="UTF-8" standalone="no"?>
<!-- Created with Inkscape (http://www.inkscape.org/) -->

<svg
   xmlns:dc="http://purl.org/dc/elements/1.1/"
   xmlns:cc="http://creativecommons.org/ns#"
   xmlns:rdf="http://www.w3.org/1999/02/22-rdf-syntax-ns#"
   xmlns:svg="http://www.w3.org/2000/svg"
   xmlns="http://www.w3.org/2000/svg"
   xmlns:sodipodi="http://sodipodi.sourceforge.net/DTD/sodipodi-0.dtd"
   xmlns:inkscape="http://www.inkscape.org/namespaces/inkscape"
   width="210mm"
   height="297mm"
   viewBox="0 0 744.09448819 1052.3622047"
   id="svg2"
   version="1.1"
   inkscape:version="0.91 r13725"
   sodipodi:docname="symbolization.svg">
  <defs
     id="defs4" />
  <sodipodi:namedview
     id="base"
     pagecolor="#ffffff"
     bordercolor="#666666"
     borderopacity="1.0"
     inkscape:pageopacity="0.0"
     inkscape:pageshadow="2"
     inkscape:zoom="1.038246"
     inkscape:cx="345.49685"
     inkscape:cy="744.63934"
     inkscape:document-units="px"
     inkscape:current-layer="layer1"
     showgrid="false"
     showguides="false"
     inkscape:window-width="1366"
     inkscape:window-height="744"
     inkscape:window-x="0"
     inkscape:window-y="24"
     inkscape:window-maximized="1">
    <inkscape:grid
       type="xygrid"
       id="grid3342" />
  </sodipodi:namedview>
  <metadata
     id="metadata7">
    <rdf:RDF>
      <cc:Work
         rdf:about="">
        <dc:format>image/svg+xml</dc:format>
        <dc:type
           rdf:resource="http://purl.org/dc/dcmitype/StillImage" />
        <dc:title></dc:title>
      </cc:Work>
    </rdf:RDF>
  </metadata>
  <g
     inkscape:label="Layer 1"
     inkscape:groupmode="layer"
     id="layer1">
    <g
       id="g4193"
       transform="matrix(0.59106821,0,0,0.59106821,135.46755,262.54717)">
      <ellipse
         ry="42.012959"
         rx="41.906128"
         cy="309.9324"
         cx="352.46957"
         id="path3340"
         style="fill:none;fill-opacity:1;stroke:#000000;stroke-width:0.97905517;stroke-miterlimit:4;stroke-dasharray:none;stroke-opacity:1" />
      <path
         sodipodi:nodetypes="cc"
         inkscape:connector-curvature="0"
         id="path3344"
         d="m 352.76025,267.78581 0.21366,83.75651"
         style="fill:none;fill-rule:evenodd;stroke:#000000;stroke-width:1px;stroke-linecap:butt;stroke-linejoin:miter;stroke-opacity:1" />
      <path
         sodipodi:nodetypes="ccc"
         inkscape:connector-curvature="0"
         id="path3346"
         d="m 386.09193,285.09264 -33.33168,26.49441 0.42733,-0.21367"
         style="fill:none;fill-rule:evenodd;stroke:#000000;stroke-width:1px;stroke-linecap:butt;stroke-linejoin:miter;stroke-opacity:1" />
      <path
         inkscape:connector-curvature="0"
         id="path4181"
         d="m 349.5651,351.38971 c -13.18154,-0.94554 -25.12155,-8.12647 -32.1767,-19.35162 -6.85387,-10.90491 -8.25635,-24.52484 -3.77148,-36.62611 2.06963,-5.58438 5.95062,-11.46942 10.24209,-15.53085 5.68919,-5.38424 12.63434,-9.05899 20.04613,-10.60661 2.8638,-0.59797 8.13794,-1.13354 8.30735,-0.84358 0.0435,0.0745 0.13467,18.8113 0.20261,41.63742 l 0.12352,41.50203 -0.57091,-0.0246 c -0.314,-0.0136 -1.39518,-0.0838 -2.40261,-0.15603 z"
         style="fill:#916f6f;fill-opacity:1;stroke:none;stroke-width:1;stroke-miterlimit:4;stroke-dasharray:none;stroke-opacity:1" />
      <path
         inkscape:connector-curvature="0"
         id="path4189"
         d="m 353.27485,289.4995 c -0.0703,-11.57507 -0.0618,-20.94244 0.0191,-21.02064 0.0803,-0.0776 1.04399,-0.0729 2.14156,0.0104 11.56637,0.87763 21.74964,6.2089 29.23671,15.30636 l 0.90306,1.09729 -0.40332,0.32888 c -1.98922,1.62205 -31.53537,25.07113 -31.6369,25.10837 -0.0734,0.0269 -0.19049,-9.34686 -0.26025,-20.83063 z"
         style="fill:#ff7f2a;fill-opacity:1;stroke:none;stroke-width:1;stroke-miterlimit:4;stroke-dasharray:none;stroke-opacity:1" />
      <path
         inkscape:connector-curvature="0"
         id="path4191"
         d="m 353.3967,331.52474 0.0433,-19.87538 16.33481,-12.98781 c 8.98414,-7.14329 16.38986,-12.9294 16.45714,-12.85801 0.51515,0.54657 2.42293,3.78925 3.38205,5.74852 2.80418,5.72827 4.03195,10.71702 4.21423,17.12351 0.16862,5.92628 -0.64945,10.94616 -2.61195,16.02772 -2.20212,5.70201 -5.09827,10.13333 -9.49996,14.53563 -3.68223,3.68275 -6.57851,5.78193 -11.00791,7.97835 -4.92317,2.44127 -11.63299,4.18285 -16.11536,4.18285 l -1.2396,0 0.0433,-19.87538 z"
         style="fill:#9dac93;fill-opacity:1;stroke:none;stroke-width:1;stroke-miterlimit:4;stroke-dasharray:none;stroke-opacity:1" />
    </g>
    <circle
       style="fill:#009b1d;fill-opacity:1;stroke:#000000;stroke-width:1;stroke-miterlimit:4;stroke-dasharray:none;stroke-opacity:1"
       id="path3338"
       cx="343.80112"
       cy="445.73837"
       r="17.142857" />
  </g>
</svg>
