<?xml version="1.0" encoding="UTF-8" standalone="no"?>
<svg
   xmlns:dc="http://purl.org/dc/elements/1.1/"
   xmlns:cc="http://creativecommons.org/ns#"
   xmlns:rdf="http://www.w3.org/1999/02/22-rdf-syntax-ns#"
   xmlns:svg="http://www.w3.org/2000/svg"
   xmlns="http://www.w3.org/2000/svg"
   xmlns:sodipodi="http://sodipodi.sourceforge.net/DTD/sodipodi-0.dtd"
   xmlns:inkscape="http://www.inkscape.org/namespaces/inkscape"
   width="100"
   height="100"
   version="1.1"
   id="svg72"
   sodipodi:docname="thermometer.svg"
   inkscape:version="0.92.3 (unknown)">
  <metadata
     id="metadata78">
    <rdf:RDF>
      <cc:Work
         rdf:about="">
        <dc:format>image/svg+xml</dc:format>
        <dc:type
           rdf:resource="http://purl.org/dc/dcmitype/StillImage" />
        <dc:title />
      </cc:Work>
    </rdf:RDF>
  </metadata>
  <defs
     id="defs76" />
  <sodipodi:namedview
     pagecolor="#ffffff"
     bordercolor="#666666"
     borderopacity="1"
     objecttolerance="10"
     gridtolerance="10"
     guidetolerance="10"
     inkscape:pageopacity="0"
     inkscape:pageshadow="2"
     inkscape:window-width="1920"
     inkscape:window-height="1025"
     id="namedview74"
     showgrid="false"
     inkscape:zoom="2.9555556"
     inkscape:cx="90"
     inkscape:cy="90"
     inkscape:window-x="0"
     inkscape:window-y="27"
     inkscape:window-maximized="1"
     inkscape:current-layer="svg72" />
  <g
     id="g18">
    <g
       id="g4"
       transform="matrix(0.1956062,0,0,0.1956062,0.33834563,-0.1503761)">
      <path
         id="path2"
         d="M 341.333,288.593 V 85.333 C 341.333,38.205 303.128,0 256,0 208.872,0 170.667,38.205 170.667,85.333 V 288.592 C 144.48,312.03 128,346.091 128,384 c 0,70.693 57.308,128 128,128 70.692,0 128,-57.307 128,-128 0,-37.909 -16.48,-71.97 -42.667,-95.407 z M 256,469.333 c -47.128,0 -85.333,-38.205 -85.333,-85.333 0,-24.637 10.441,-47.492 28.455,-63.615 l 14.212,-12.72 V 85.333 c 0,-23.564 19.103,-42.667 42.667,-42.667 23.564,0 42.667,19.102 42.667,42.667 v 222.332 l 14.212,12.72 c 18.014,16.123 28.455,38.977 28.455,63.615 -0.002,47.128 -38.207,85.333 -85.335,85.333 z"
         inkscape:connector-curvature="0" />
    </g>
    <g
       id="g8"
       transform="matrix(0.1956062,0,0,0.1956062,0.33834563,-0.1503761)">
      <rect
         id="rect6"
         height="256"
         width="42.667"
         y="170.66701"
         x="234.66701" />
    </g>
    <g
       id="g12"
       transform="matrix(0.1956062,0,0,0.1956062,0.33834563,-0.1503761)">
      <circle
         id="circle10"
         r="64"
         cy="384"
         cx="256" />
    </g>
  </g>
</svg>
