<?xml version="1.0" encoding="UTF-8" standalone="no"?>
<!-- Created with Inkscape (http://www.inkscape.org/) -->

<svg
   xmlns:dc="http://purl.org/dc/elements/1.1/"
   xmlns:cc="http://creativecommons.org/ns#"
   xmlns:rdf="http://www.w3.org/1999/02/22-rdf-syntax-ns#"
   xmlns:svg="http://www.w3.org/2000/svg"
   xmlns="http://www.w3.org/2000/svg"
   xmlns:sodipodi="http://sodipodi.sourceforge.net/DTD/sodipodi-0.dtd"
   xmlns:inkscape="http://www.inkscape.org/namespaces/inkscape"
   width="123"
   height="100"
   viewBox="0 0 32.54375 26.458334"
   version="1.1"
   id="svg8"
   inkscape:version="0.92.4 (unknown)"
   sodipodi:docname="stream_flow_low_agg.svg">
  <defs
     id="defs2" />
  <sodipodi:namedview
     id="base"
     pagecolor="#ffffff"
     bordercolor="#666666"
     borderopacity="1.0"
     inkscape:pageopacity="0.0"
     inkscape:pageshadow="2"
     inkscape:zoom="3.959798"
     inkscape:cx="17.920005"
     inkscape:cy="60.81619"
     inkscape:document-units="mm"
     inkscape:current-layer="layer1"
     showgrid="false"
     units="px"
     inkscape:window-width="1366"
     inkscape:window-height="713"
     inkscape:window-x="0"
     inkscape:window-y="27"
     inkscape:window-maximized="1" />
  <metadata
     id="metadata5">
    <rdf:RDF>
      <cc:Work
         rdf:about="">
        <dc:format>image/svg+xml</dc:format>
        <dc:type
           rdf:resource="http://purl.org/dc/dcmitype/StillImage" />
        <dc:title></dc:title>
      </cc:Work>
    </rdf:RDF>
  </metadata>
  <g
     inkscape:label="Vrstva 1"
     inkscape:groupmode="layer"
     id="layer1"
     transform="translate(0,-270.54165)">
    <circle
       style="opacity:1;fill:#cccccc;fill-opacity:1;stroke:#000000;stroke-width:1.20321262;stroke-linecap:round;stroke-linejoin:round;stroke-miterlimit:4;stroke-dasharray:none;stroke-dashoffset:0;stroke-opacity:0.99038463;paint-order:normal"
       id="circle3700-6-0"
       cx="19.340956"
       cy="283.81204"
       r="12.461349" />
    <circle
       style="opacity:1;fill:#cccccc;fill-opacity:1;stroke:#000000;stroke-width:1.20321262;stroke-linecap:round;stroke-linejoin:round;stroke-miterlimit:4;stroke-dasharray:none;stroke-dashoffset:0;stroke-opacity:0.99038463;paint-order:normal"
       id="circle3700-6"
       cx="16.240955"
       cy="283.81204"
       r="12.461349" />
    <circle
       style="opacity:1;fill:#cccccc;fill-opacity:1;stroke:#000000;stroke-width:1.20321262;stroke-linecap:round;stroke-linejoin:round;stroke-miterlimit:4;stroke-dasharray:none;stroke-dashoffset:0;stroke-opacity:0.99038463;paint-order:normal"
       id="circle3700"
       cx="13.248719"
       cy="283.789"
       r="12.461349" />
    <g
       transform="matrix(0.19108466,0,0,0.19108466,-42.662374,269.90146)"
       id="g3710"
       style="stroke-width:3.673105;stroke-miterlimit:4;stroke-dasharray:none">
      <path
         sodipodi:nodetypes="caaaaaaaaaaaaaaaaaaaaaaac"
         inkscape:connector-curvature="0"
         id="path3702"
         d="m 248.75995,91.143021 c 0,0 3.32507,0.612149 4.77244,1.42554 1.47929,0.83133 2.50635,2.288497 3.78076,3.40889 0.71526,0.628819 1.27386,1.534999 2.16929,1.859384 1.43755,0.520779 3.11998,0.370619 4.5865,-0.06192 1.38002,-0.407029 2.48581,-1.45725 3.6568,-2.293257 1.01627,-0.725545 1.86912,-1.670087 2.91306,-2.355218 0.85755,-0.562803 1.71808,-1.241116 2.7271,-1.42554 1.1873,-0.217009 2.46408,0.01173 3.59483,0.433858 1.6588,0.619253 2.97468,1.925301 4.40056,2.975032 0.95879,0.705856 1.67732,1.805274 2.78909,2.231267 1.35266,0.518291 2.91233,0.501126 4.33858,0.247917 1.48509,-0.263655 2.88624,-0.978108 4.15264,-1.797409 1.08049,-0.69903 1.73983,-1.954111 2.85107,-2.603149 1.25806,-0.734789 2.69659,-1.313184 4.15264,-1.36355 1.59749,-0.05526 3.22848,0.443713 4.64849,1.177609 1.47115,0.760328 2.33858,2.408982 3.78075,3.222948 1.3086,0.738582 2.77405,1.409544 4.27661,1.425526 1.53557,0.01633 3.05285,-0.627397 4.40056,-1.36355 1.49273,-0.815366 2.40384,-2.48466 3.90472,-3.284924 1.25207,-0.6676 2.67387,-1.099914 4.09067,-1.177609 1.21413,-0.06658 2.48592,0.120928 3.59483,0.619785 1.32707,0.596995 2.22801,1.876774 3.40887,2.727115 0.95798,0.689846 1.86044,1.532429 2.97504,1.921374 1.19563,0.417219 3.78075,0.371882 3.78075,0.371882"
         style="fill:none;stroke:#000000;stroke-width:3.673105;stroke-linecap:round;stroke-linejoin:round;stroke-miterlimit:4;stroke-dasharray:none;stroke-opacity:1" />
      <path
         sodipodi:nodetypes="caaaaaaaaaaaaaaaaaaaaaaaac"
         inkscape:connector-curvature="0"
         id="path3704"
         d="m 248.63598,77.011642 c 0,0 2.68564,0.224731 3.90473,0.743765 1.28165,0.545671 2.28345,1.596374 3.40889,2.417208 0.91805,0.669579 1.7034,1.552167 2.7271,2.045325 0.96158,0.463233 2.03271,0.758142 3.09899,0.805741 1.38099,0.06165 2.83036,-0.113842 4.09067,-0.681775 1.28553,-0.579298 2.14958,-1.82895 3.28492,-2.665125 1.01964,-0.750963 1.95722,-1.714107 3.16096,-2.107315 1.35635,-0.443059 2.88954,-0.520664 4.27661,-0.185941 1.17827,0.284335 2.16663,1.10427 3.16097,1.797408 1.1306,0.788124 1.97095,1.969959 3.16096,2.665139 1.12329,0.656204 2.36588,1.202669 3.65681,1.36355 1.31991,0.164492 2.7407,0.08204 3.9667,-0.433858 1.38003,-0.580715 2.28334,-1.939187 3.47086,-2.851066 1.06863,-0.820585 2.00603,-1.93128 3.28493,-2.355232 1.07876,-0.357605 2.28322,-0.218297 3.40889,-0.06192 1.41123,0.196046 2.82866,0.578254 4.09066,1.239585 1.58901,0.832692 2.58622,2.594166 4.21462,3.346914 1.45274,0.671545 3.11975,1.105887 4.71046,0.929692 1.52619,-0.169047 2.94223,-0.999848 4.21463,-1.859398 0.95641,-0.646086 1.47651,-1.845568 2.47919,-2.417208 1.17117,-0.667695 2.55858,-0.980512 3.90472,-1.053657 1.33631,-0.07261 2.73368,0.09957 3.9667,0.619799 1.14211,0.481866 1.94802,1.537128 2.97503,2.231281 1.22119,0.825393 2.37522,1.84936 3.78076,2.293242 1.18468,0.374131 3.71879,0.247917 3.71879,0.247917"
         style="fill:none;stroke:#000000;stroke-width:3.673105;stroke-linecap:round;stroke-linejoin:round;stroke-miterlimit:4;stroke-dasharray:none;stroke-opacity:1" />
      <path
         sodipodi:nodetypes="caaaaaaaaaaaaaaaaaaaaaaaac"
         inkscape:connector-curvature="0"
         id="path3706"
         d="m 248.69796,62.446405 c 0,0 2.34965,0.106423 3.40889,0.557824 1.23539,0.526471 2.13193,1.634233 3.22295,2.417207 1.03822,0.745086 2.0168,1.600129 3.16097,2.169291 0.99441,0.494665 2.05256,0.983029 3.16096,1.053658 1.38694,0.08838 2.83212,-0.216252 4.09066,-0.805741 1.2769,-0.598089 2.11417,-1.879307 3.28493,-2.665125 1.03637,-0.695614 2.08781,-1.444054 3.28492,-1.797422 1.35104,-0.398806 2.82527,-0.54231 4.21463,-0.309893 1.24148,0.207678 2.43703,0.769478 3.47087,1.487516 1.00817,0.700211 1.52653,1.974297 2.54116,2.665125 1.08773,0.740604 2.35351,1.305584 3.6568,1.487516 1.31735,0.183895 2.73624,0.07126 3.96672,-0.433858 1.29244,-0.530558 2.1491,-1.789629 3.28492,-2.60315 1.23927,-0.88762 2.38979,-2.01808 3.84274,-2.479183 1.41906,-0.450349 3.02319,-0.566493 4.46254,-0.185941 1.31901,0.348737 2.35143,1.389371 3.47087,2.16929 1.13587,0.791368 2.0336,1.948985 3.28492,2.54116 1.16875,0.553103 2.48861,0.820562 3.78077,0.867716 1.08623,0.03964 2.21887,-0.07954 3.22294,-0.495834 1.5154,-0.628296 2.61453,-1.984181 3.96671,-2.913042 1.0723,-0.736598 2.02648,-1.777604 3.28493,-2.107315 1.3813,-0.3619 2.9167,-0.187568 4.2766,0.247917 1.25555,0.402068 2.24202,1.388077 3.3469,2.107315 1.14773,0.747135 2.13695,1.785628 3.40889,2.293243 1.49841,0.597996 4.77244,0.805741 4.77244,0.805741"
         style="fill:none;stroke:#000000;stroke-width:3.673105;stroke-linecap:round;stroke-linejoin:round;stroke-miterlimit:4;stroke-dasharray:none;stroke-opacity:1" />
      <path
         sodipodi:nodetypes="caaaaaaaaaaaaaaaaaaaaaac"
         inkscape:connector-curvature="0"
         id="path3708"
         d="m 248.83256,47.759037 c 0,0 3.06134,0.92477 4.46253,1.673443 1.74969,0.93488 3.06572,2.572491 4.83443,3.470866 1.29897,0.659782 2.69639,1.319317 4.15264,1.363564 1.30228,0.03957 2.60475,-0.430878 3.78076,-0.991682 1.48073,-0.706115 2.61635,-1.981531 3.9667,-2.913042 1.03305,-0.712623 1.94701,-1.727044 3.16097,-2.045339 1.30145,-0.341232 2.7551,-0.185854 4.02869,0.247917 1.53505,0.522819 2.71996,1.769533 4.02868,2.727114 1.21085,0.885971 2.11545,2.297027 3.53284,2.789091 1.34669,0.467521 2.89378,0.34636 4.2766,0 1.31798,-0.330121 2.48304,-1.140377 3.59484,-1.921374 1.16109,-0.815617 1.88928,-2.221614 3.16095,-2.851066 1.20567,-0.596783 2.62144,-0.745698 3.96672,-0.743765 1.76663,0.0025 3.64956,0.156474 5.2063,0.991682 1.14577,0.614721 1.64869,2.062658 2.7271,2.78909 1.12961,0.760919 2.43102,1.367306 3.78077,1.549491 1.36119,0.183729 2.81687,0.01805 4.09065,-0.495834 1.36799,-0.551896 2.31742,-1.829237 3.53285,-2.665138 1.12415,-0.773121 2.1594,-1.793167 3.47087,-2.169291 1.35043,-0.387299 2.86359,-0.385202 4.21462,0 1.35628,0.3867 2.40389,1.475826 3.59483,2.23128 1.12266,0.712142 2.12846,1.637408 3.3469,2.169291 1.46495,0.639489 4.64849,1.177609 4.64849,1.177609"
         style="fill:none;stroke:#000000;stroke-width:3.673105;stroke-linecap:round;stroke-linejoin:round;stroke-miterlimit:4;stroke-dasharray:none;stroke-opacity:1" />
    </g>
  </g>
</svg>
