<?xml version="1.0" encoding="UTF-8" standalone="no"?>
<!-- Created with Inkscape (http://www.inkscape.org/) -->

<svg
   xmlns:dc="http://purl.org/dc/elements/1.1/"
   xmlns:cc="http://creativecommons.org/ns#"
   xmlns:rdf="http://www.w3.org/1999/02/22-rdf-syntax-ns#"
   xmlns:svg="http://www.w3.org/2000/svg"
   xmlns="http://www.w3.org/2000/svg"
   xmlns:sodipodi="http://sodipodi.sourceforge.net/DTD/sodipodi-0.dtd"
   xmlns:inkscape="http://www.inkscape.org/namespaces/inkscape"
   width="100"
   height="100"
   viewBox="0 0 26.458333 26.458334"
   version="1.1"
   id="svg2185"
   inkscape:version="0.92.4 (unknown)"
   sodipodi:docname="pm10_middle.svg">
  <defs
     id="defs2179">
    <filter
       id="shadow7871878"
       x="142.62"
       y="22.700001"
       width="95.550003"
       height="162.10001"
       filterUnits="userSpaceOnUse"
       primitiveUnits="userSpaceOnUse">
      <feFlood
         id="feFlood220" />
      <feComposite
         in2="SourceAlpha"
         operator="in"
         id="feComposite222" />
      <feGaussianBlur
         stdDeviation="2"
         id="feGaussianBlur224" />
      <feOffset
         dx="1"
         dy="1"
         result="afterOffset"
         id="feOffset226" />
      <feFlood
         flood-color="#000000"
         flood-opacity="1"
         id="feFlood228" />
      <feComposite
         in2="afterOffset"
         operator="in"
         id="feComposite230" />
      <feMorphology
         operator="dilate"
         radius="0"
         id="feMorphology232" />
      <feComposite
         in2="SourceAlpha"
         operator="out"
         id="feComposite234" />
    </filter>
    <filter
       id="shadow10161464"
       x="170.35001"
       y="67.07"
       width="40.09"
       height="95.550003"
       filterUnits="userSpaceOnUse"
       primitiveUnits="userSpaceOnUse">
      <feFlood
         id="feFlood248" />
      <feComposite
         in2="SourceAlpha"
         operator="in"
         id="feComposite250" />
      <feGaussianBlur
         stdDeviation="2"
         id="feGaussianBlur252" />
      <feOffset
         dx="1"
         dy="1"
         result="afterOffset"
         id="feOffset254" />
      <feFlood
         flood-color="#000000"
         flood-opacity="1"
         id="feFlood256" />
      <feComposite
         in2="afterOffset"
         operator="in"
         id="feComposite258" />
      <feMorphology
         operator="dilate"
         radius="0"
         id="feMorphology260" />
      <feComposite
         in2="SourceAlpha"
         operator="out"
         id="feComposite262" />
    </filter>
    <filter
       id="shadow10090558"
       x="159.25999"
       y="105.89"
       width="62.279999"
       height="62.279999"
       filterUnits="userSpaceOnUse"
       primitiveUnits="userSpaceOnUse">
      <feFlood
         id="feFlood276" />
      <feComposite
         in2="SourceAlpha"
         operator="in"
         id="feComposite278" />
      <feGaussianBlur
         stdDeviation="2"
         id="feGaussianBlur280" />
      <feOffset
         dx="1"
         dy="1"
         result="afterOffset"
         id="feOffset282" />
      <feFlood
         flood-color="#000000"
         flood-opacity="1"
         id="feFlood284" />
      <feComposite
         in2="afterOffset"
         operator="in"
         id="feComposite286" />
      <feMorphology
         operator="dilate"
         radius="0"
         id="feMorphology288" />
      <feComposite
         in2="SourceAlpha"
         operator="out"
         id="feComposite290" />
    </filter>
  </defs>
  <sodipodi:namedview
     id="base"
     pagecolor="#ffffff"
     bordercolor="#666666"
     borderopacity="1.0"
     inkscape:pageopacity="0.0"
     inkscape:pageshadow="2"
     inkscape:zoom="3.959798"
     inkscape:cx="48.881977"
     inkscape:cy="17.992101"
     inkscape:document-units="mm"
     inkscape:current-layer="layer1"
     showgrid="false"
     inkscape:window-width="1920"
     inkscape:window-height="1025"
     inkscape:window-x="0"
     inkscape:window-y="27"
     inkscape:window-maximized="1"
     showguides="false"
     units="px" />
  <metadata
     id="metadata2182">
    <rdf:RDF>
      <cc:Work
         rdf:about="">
        <dc:format>image/svg+xml</dc:format>
        <dc:type
           rdf:resource="http://purl.org/dc/dcmitype/StillImage" />
        <dc:title></dc:title>
      </cc:Work>
    </rdf:RDF>
  </metadata>
  <g
     inkscape:label="Layer 1"
     inkscape:groupmode="layer"
     id="layer1"
     transform="translate(0,-270.54165)">
    <g
       id="g845"
       transform="matrix(0.30567119,0,0,0.30567119,-21.741062,258.44646)">
      <path
         transform="scale(0.26458333)"
         inkscape:connector-curvature="0"
         id="path7746"
         d="m 401.80517,433.89715 c -16.15925,-1.68421 -32.61266,-9.01793 -43.45367,-19.36846 -5.87171,-5.60606 -8.74921,-9.52313 -12.63291,-17.19688 l -2.34976,-4.64285 -1.94254,-0.44914 c -12.55413,-2.90267 -18.32777,-4.77547 -25.52124,-8.27839 -16.66636,-8.1158 -26.67473,-19.9061 -30.03248,-35.37962 -0.98684,-4.54765 -0.90783,-14.58228 0.15371,-19.52298 1.15229,-5.36308 2.6729,-9.73552 5.19617,-14.9413 6.78505,-13.99834 18.61147,-25.93928 32.71227,-33.02902 1.62122,-0.81513 3.17745,-1.39388 3.45829,-1.28611 0.64729,0.24839 1.04426,-0.7236 0.54246,-1.32823 -1.23238,-1.48492 -1.59661,-14.32479 -0.59975,-21.14236 2.26559,-15.49449 9.0529,-26.76208 20.08088,-33.33619 7.50832,-4.47595 15.91001,-6.46621 27.34908,-6.47869 9.49859,-0.0104 17.25804,1.05517 28.82324,3.95803 3.83144,0.96169 7.18634,1.7488 7.45534,1.74912 0.26899,3.3e-4 1.88689,-1.32961 3.59533,-2.95541 14.36477,-13.66994 30.45386,-23.41741 44.39522,-26.89655 4.45342,-1.11137 11.88975,-1.52642 15.98465,-0.89215 7.3813,1.14331 13.68889,4.47868 19.64414,10.38756 6.0963,6.04882 11.37828,14.87778 15.38373,25.71428 0.83496,2.25893 1.66646,4.20568 1.84778,4.3261 0.18133,0.12043 1.91792,0.32834 3.85911,0.46204 19.04864,1.31195 40.0219,10.48425 52.27525,22.8617 8.17981,8.26264 12.13432,17.44275 11.52162,26.7466 -0.90558,13.75122 -11.68526,28.31957 -31.00256,41.89884 l -2.72093,1.9127 0.8594,3.30673 c 2.50992,9.65751 1.67566,24.69646 -1.9261,34.72107 -6.2566,17.4137 -20.35996,27.57946 -41.87493,30.18363 -7.00649,0.84807 -20.88641,0.28478 -30.16079,-1.224 -1.75293,-0.28517 -3.38295,-0.40562 -3.62228,-0.26766 -0.23932,0.13795 -1.39509,1.54845 -2.56837,3.13444 -9.24507,12.49707 -21.92204,23.70697 -34.01507,30.07862 -10.17933,5.36335 -21.8764,8.09566 -30.71429,7.17453 z"
         style="opacity:1;fill:#ffcc00;fill-opacity:1;stroke:none;stroke-width:0.67491567;stroke-linecap:square;stroke-linejoin:round;stroke-miterlimit:4;stroke-dasharray:none;stroke-dashoffset:2.26771665;stroke-opacity:1;paint-order:stroke fill markers" />
      <text
         id="text7750"
         y="94.994606"
         x="92.436646"
         style="font-style:normal;font-variant:normal;font-weight:bold;font-stretch:normal;font-size:37.69565201px;line-height:1.25;font-family:Lato;-inkscape-font-specification:'Lato Bold';letter-spacing:0px;word-spacing:0px;fill:#ffffff;fill-opacity:1;stroke:none;stroke-width:0.94239128"
         xml:space="preserve"><tspan
           style="fill:#ffffff;stroke-width:0.94239128"
           y="94.994606"
           x="92.436646"
           id="tspan7748"
           sodipodi:role="line">10</tspan></text>
    </g>
  </g>
</svg>
